<svg width="133" height="121" viewBox="0 0 133 121" fill="none" xmlns="http://www.w3.org/2000/svg">
<path d="M82 0L82.8839 4.11612L87 5L82.8839 5.88388L82 10L81.1161 5.88388L77 5L81.1161 4.11612L82 0Z" fill="#FCFCFC"/>
<path d="M56 17L56.8839 21.1161L61 22L56.8839 22.8839L56 27L55.1161 22.8839L51 22L55.1161 21.1161L56 17Z" fill="#FCFCFC"/>
<path d="M128 12L128.884 16.1161L133 17L128.884 17.8839L128 22L127.116 17.8839L123 17L127.116 16.1161L128 12Z" fill="#FCFCFC"/>
<path d="M42 10L42.8839 14.1161L47 15L42.8839 15.8839L42 20L41.1161 15.8839L37 15L41.1161 14.1161L42 10Z" fill="#FCFCFC"/>
<path d="M32 12L32.8839 16.1161L37 17L32.8839 17.8839L32 22L31.1161 17.8839L27 17L31.1161 16.1161L32 12Z" fill="#FCFCFC"/>
<path d="M5 48L5.88388 52.1161L10 53L5.88388 53.8839L5 58L4.11612 53.8839L0 53L4.11612 52.1161L5 48Z" fill="#FCFCFC"/>
<path d="M10 76L10.8839 80.1161L15 81L10.8839 81.8839L10 86L9.11612 81.8839L5 81L9.11612 80.1161L10 76Z" fill="#FCFCFC"/>
<path d="M31 58L31.8839 62.1161L36 63L31.8839 63.8839L31 68L30.1161 63.8839L26 63L30.1161 62.1161L31 58Z" fill="#FCFCFC"/>
<path d="M47 93L47.8839 97.1161L52 98L47.8839 98.8839L47 103L46.1161 98.8839L42 98L46.1161 97.1161L47 93Z" fill="#FCFCFC"/>
<path d="M41 111L41.8839 115.116L46 116L41.8839 116.884L41 121L40.1161 116.884L36 116L40.1161 115.116L41 111Z" fill="#FCFCFC"/>
</svg>
