<svg width="130" height="80" viewBox="0 0 130 80" fill="none" xmlns="http://www.w3.org/2000/svg">
<path d="M39 0L39.8839 4.11612L44 5L39.8839 5.88388L39 10L38.1161 5.88388L34 5L38.1161 4.11612L39 0Z" fill="#FCFCFC"/>
<path d="M104 24L104.884 28.1161L109 29L104.884 29.8839L104 34L103.116 29.8839L99 29L103.116 28.1161L104 24Z" fill="#FCFCFC"/>
<path d="M25 53L25.8839 57.1161L30 58L25.8839 58.8839L25 63L24.1161 58.8839L20 58L24.1161 57.1161L25 53Z" fill="#FCFCFC"/>
<path d="M5 70L5.88388 74.1161L10 75L5.88388 75.8839L5 80L4.11612 75.8839L0 75L4.11612 74.1161L5 70Z" fill="#FCFCFC"/>
<path d="M125 49L125.884 53.1161L130 54L125.884 54.8839L125 59L124.116 54.8839L120 54L124.116 53.1161L125 49Z" fill="#FCFCFC"/>
<path d="M125 65L125.884 69.1161L130 70L125.884 70.8839L125 75L124.116 70.8839L120 70L124.116 69.1161L125 65Z" fill="#FCFCFC"/>
</svg>
