<svg width="70" height="125" viewBox="0 0 70 125" fill="none" xmlns="http://www.w3.org/2000/svg">
<path d="M20 0L20.8839 4.11612L25 5L20.8839 5.88388L20 10L19.1161 5.88388L15 5L19.1161 4.11612L20 0Z" fill="#FCFCFC"/>
<path d="M30 37L30.8839 41.1161L35 42L30.8839 42.8839L30 47L29.1161 42.8839L25 42L29.1161 41.1161L30 37Z" fill="#FCFCFC"/>
<path d="M31 64L31.8839 68.1161L36 69L31.8839 69.8839L31 74L30.1161 69.8839L26 69L30.1161 68.1161L31 64Z" fill="#FCFCFC"/>
<path d="M5 98L5.88388 102.116L10 103L5.88388 103.884L5 108L4.11612 103.884L0 103L4.11612 102.116L5 98Z" fill="#FCFCFC"/>
<path d="M65 115L65.8839 119.116L70 120L65.8839 120.884L65 125L64.1161 120.884L60 120L64.1161 119.116L65 115Z" fill="#FCFCFC"/>
</svg>
