<svg width="206" height="133" viewBox="0 0 206 133" fill="none" xmlns="http://www.w3.org/2000/svg">
<path d="M200.699 0.699219L201.583 4.81534L205.699 5.69922L201.583 6.5831L200.699 10.6992L199.815 6.5831L195.699 5.69922L199.815 4.81534L200.699 0.699219Z" fill="#FCFCFC"/>
<path d="M20.6992 25.6992L21.5831 29.8153L25.6992 30.6992L21.5831 31.5831L20.6992 35.6992L19.8153 31.5831L15.6992 30.6992L19.8153 29.8153L20.6992 25.6992Z" fill="#FCFCFC"/>
<path d="M5.69922 19.6992L6.5831 23.8153L10.6992 24.6992L6.5831 25.5831L5.69922 29.6992L4.81534 25.5831L0.699219 24.6992L4.81534 23.8153L5.69922 19.6992Z" fill="#FCFCFC"/>
<path d="M14.6992 45.6992L15.5831 49.8153L19.6992 50.6992L15.5831 51.5831L14.6992 55.6992L13.8153 51.5831L9.69922 50.6992L13.8153 49.8153L14.6992 45.6992Z" fill="#FCFCFC"/>
<path d="M26.6992 50.6992L27.5831 54.8153L31.6992 55.6992L27.5831 56.5831L26.6992 60.6992L25.8153 56.5831L21.6992 55.6992L25.8153 54.8153L26.6992 50.6992Z" fill="#FCFCFC"/>
<path d="M46.6992 76.6992L47.5831 80.8153L51.6992 81.6992L47.5831 82.5831L46.6992 86.6992L45.8153 82.5831L41.6992 81.6992L45.8153 80.8153L46.6992 76.6992Z" fill="#FCFCFC"/>
<path d="M113.699 122.699L114.583 126.815L118.699 127.699L114.583 128.583L113.699 132.699L112.815 128.583L108.699 127.699L112.815 126.815L113.699 122.699Z" fill="#FCFCFC"/>
<path d="M194.699 2.69922L195.583 6.81534L199.699 7.69922L195.583 8.5831L194.699 12.6992L193.815 8.5831L189.699 7.69922L193.815 6.81534L194.699 2.69922Z" fill="#FCFCFC"/>
<path d="M191.699 20.6992L192.583 24.8153L196.699 25.6992L192.583 26.5831L191.699 30.6992L190.815 26.5831L186.699 25.6992L190.815 24.8153L191.699 20.6992Z" fill="#FCFCFC"/>
<path d="M172.699 44.6992L173.583 48.8153L177.699 49.6992L173.583 50.5831L172.699 54.6992L171.815 50.5831L167.699 49.6992L171.815 48.8153L172.699 44.6992Z" fill="#FCFCFC"/>
<path d="M92.6992 33.6992L93.5831 37.8153L97.6992 38.6992L93.5831 39.5831L92.6992 43.6992L91.8153 39.5831L87.6992 38.6992L91.8153 37.8153L92.6992 33.6992Z" fill="#FCFCFC"/>
<path d="M126.699 107.699L127.583 111.815L131.699 112.699L127.583 113.583L126.699 117.699L125.815 113.583L121.699 112.699L125.815 111.815L126.699 107.699Z" fill="#FCFCFC"/>
<path d="M57.6992 27.6992L58.5831 31.8153L62.6992 32.6992L58.5831 33.5831L57.6992 37.6992L56.8153 33.5831L52.6992 32.6992L56.8153 31.8153L57.6992 27.6992Z" fill="#FCFCFC"/>
</svg>
