<svg width="140" height="83" viewBox="0 0 140 83" fill="none" xmlns="http://www.w3.org/2000/svg">
<path d="M135 9L135.884 13.1161L140 14L135.884 14.8839L135 19L134.116 14.8839L130 14L134.116 13.1161L135 9Z" fill="#FCFCFC"/>
<path d="M118 7L118.884 11.1161L123 12L118.884 12.8839L118 17L117.116 12.8839L113 12L117.116 11.1161L118 7Z" fill="#FCFCFC"/>
<path d="M108 0L108.884 4.11612L113 5L108.884 5.88388L108 10L107.116 5.88388L103 5L107.116 4.11612L108 0Z" fill="#FCFCFC"/>
<path d="M89 6L89.8839 10.1161L94 11L89.8839 11.8839L89 16L88.1161 11.8839L84 11L88.1161 10.1161L89 6Z" fill="#FCFCFC"/>
<path d="M83 25L83.8839 29.1161L88 30L83.8839 30.8839L83 35L82.1161 30.8839L78 30L82.1161 29.1161L83 25Z" fill="#FCFCFC"/>
<path d="M95 73L95.8839 77.1161L100 78L95.8839 78.8839L95 83L94.1161 78.8839L90 78L94.1161 77.1161L95 73Z" fill="#FCFCFC"/>
<path d="M52 21L52.8839 25.1161L57 26L52.8839 26.8839L52 31L51.1161 26.8839L47 26L51.1161 25.1161L52 21Z" fill="#FCFCFC"/>
<path d="M39 48L39.8839 52.1161L44 53L39.8839 53.8839L39 58L38.1161 53.8839L34 53L38.1161 52.1161L39 48Z" fill="#FCFCFC"/>
<path d="M36 16L36.8839 20.1161L41 21L36.8839 21.8839L36 26L35.1161 21.8839L31 21L35.1161 20.1161L36 16Z" fill="#FCFCFC"/>
<path d="M5 49L5.88388 53.1161L10 54L5.88388 54.8839L5 59L4.11612 54.8839L0 54L4.11612 53.1161L5 49Z" fill="#FCFCFC"/>
</svg>
