<svg width="97" height="110" viewBox="0 0 97 110" fill="none" xmlns="http://www.w3.org/2000/svg">
<path d="M92 43L92.8839 47.1161L97 48L92.8839 48.8839L92 53L91.1161 48.8839L87 48L91.1161 47.1161L92 43Z" fill="#FCFCFC"/>
<path d="M67 0L67.8839 4.11612L72 5L67.8839 5.88388L67 10L66.1161 5.88388L62 5L66.1161 4.11612L67 0Z" fill="#FCFCFC"/>
<path d="M82 79L82.8839 83.1161L87 84L82.8839 84.8839L82 89L81.1161 84.8839L77 84L81.1161 83.1161L82 79Z" fill="#FCFCFC"/>
<path d="M45 100L45.8839 104.116L50 105L45.8839 105.884L45 110L44.1161 105.884L40 105L44.1161 104.116L45 100Z" fill="#FCFCFC"/>
<path d="M31 36L31.8839 40.1161L36 41L31.8839 41.8839L31 46L30.1161 41.8839L26 41L30.1161 40.1161L31 36Z" fill="#FCFCFC"/>
<path d="M5 49L5.88388 53.1161L10 54L5.88388 54.8839L5 59L4.11612 54.8839L0 54L4.11612 53.1161L5 49Z" fill="#FCFCFC"/>
</svg>
