<svg width="60" height="60" viewBox="0 0 60 60" fill="none" xmlns="http://www.w3.org/2000/svg">
<path d="M-8.89301e-05 30C-8.74816e-05 13.4315 13.4314 5.82805e-07 29.9999 2.03127e-06C40.7999 2.97544e-06 50.3999 13.4315 50.3999 30C50.3999 46.5685 41.3999 60 29.9999 60C13.4314 60 -9.03785e-05 46.5685 -8.89301e-05 30Z" fill="#FCFCFC"/>
<path d="M57.7236 18.5164C58.7115 20.8988 59.4013 23.4361 59.7464 26.0817L59.2506 26.1464C59.4151 27.4074 59.5 28.6937 59.5 30C59.5 31.3063 59.4151 32.5926 59.2506 33.8536L59.7464 33.9183C59.4013 36.5639 58.7115 39.1012 57.7236 41.4836L57.2617 41.2921C56.2673 43.6901 54.9656 45.9288 53.4055 47.9589L53.802 48.2635C52.2049 50.3418 50.3418 52.2049 48.2635 53.802L47.9589 53.4055C45.9288 54.9656 43.6901 56.2673 41.2921 57.2617L41.4836 57.7236C39.1012 58.7115 36.5639 59.4013 33.9183 59.7464L33.8536 59.2506C32.5926 59.4151 31.3063 59.5 30 59.5C28.6937 59.5 27.4074 59.4151 26.1464 59.2506L26.0817 59.7464C23.4361 59.4013 20.8988 58.7115 18.5164 57.7236L18.7079 57.2617C16.3099 56.2673 14.0712 54.9656 12.0411 53.4055L11.7365 53.802C9.65822 52.2049 7.79508 50.3418 6.19802 48.2635L6.59448 47.9589C5.03442 45.9288 3.73269 43.6901 2.73828 41.2921L2.27642 41.4836C1.28847 39.1012 0.59867 36.5639 0.253569 33.9183L0.749368 33.8536C0.58488 32.5926 0.5 31.3063 0.5 30C0.5 28.6937 0.58488 27.4074 0.749369 26.1464L0.253569 26.0817C0.59867 23.4361 1.28847 20.8988 2.27642 18.5164L2.73828 18.7079C3.73269 16.3099 5.03442 14.0712 6.59448 12.0411L6.19802 11.7365C7.79508 9.65821 9.65822 7.79508 11.7365 6.19802L12.0411 6.59448C14.0712 5.03442 16.3099 3.73269 18.7079 2.73828L18.5164 2.27642C20.8988 1.28847 23.4361 0.59867 26.0817 0.253569L26.1464 0.749368C27.4074 0.58488 28.6937 0.5 30 0.5C31.3063 0.5 32.5926 0.58488 33.8536 0.749368L33.9183 0.253569C36.5639 0.59867 39.1012 1.28847 41.4836 2.27642L41.2921 2.73828C43.6901 3.73269 45.9288 5.03442 47.9589 6.59448L48.2635 6.19802C50.3418 7.79508 52.2049 9.65821 53.802 11.7365L53.4055 12.0411C54.9656 14.0712 56.2673 16.3099 57.2617 18.7079L57.7236 18.5164Z" stroke="#FCFCFC" stroke-dasharray="8 8"/>
</svg>
