<svg width="156" height="124" viewBox="0 0 156 124" fill="none" xmlns="http://www.w3.org/2000/svg">
<path d="M63 78L63.8839 82.1161L68 83L63.8839 83.8839L63 88L62.1161 83.8839L58 83L62.1161 82.1161L63 78Z" fill="#FCFCFC"/>
<path d="M49 73L49.8839 77.1161L54 78L49.8839 78.8839L49 83L48.1161 78.8839L44 78L48.1161 77.1161L49 73Z" fill="#FCFCFC"/>
<path d="M27 83L27.8839 87.1161L32 88L27.8839 88.8839L27 93L26.1161 88.8839L22 88L26.1161 87.1161L27 83Z" fill="#FCFCFC"/>
<path d="M17 93L17.8839 97.1161L22 98L17.8839 98.8839L17 103L16.1161 98.8839L12 98L16.1161 97.1161L17 93Z" fill="#FCFCFC"/>
<path d="M5 99L5.88388 103.116L10 104L5.88388 104.884L5 109L4.11612 104.884L0 104L4.11612 103.116L5 99Z" fill="#FCFCFC"/>
<path d="M16 58L16.8839 62.1161L21 63L16.8839 63.8839L16 68L15.1161 63.8839L11 63L15.1161 62.1161L16 58Z" fill="#FCFCFC"/>
<path d="M28 34L28.8839 38.1161L33 39L28.8839 39.8839L28 44L27.1161 39.8839L23 39L27.1161 38.1161L28 34Z" fill="#FCFCFC"/>
<path d="M25 13L25.8839 17.1161L30 18L25.8839 18.8839L25 23L24.1161 18.8839L20 18L24.1161 17.1161L25 13Z" fill="#FCFCFC"/>
<path d="M49 11L49.8839 15.1161L54 16L49.8839 16.8839L49 21L48.1161 16.8839L44 16L48.1161 15.1161L49 11Z" fill="#FCFCFC"/>
<path d="M56 0L56.8839 4.11612L61 5L56.8839 5.88388L56 10L55.1161 5.88388L51 5L55.1161 4.11612L56 0Z" fill="#FCFCFC"/>
<path d="M88 83L88.8839 87.1161L93 88L88.8839 88.8839L88 93L87.1161 88.8839L83 88L87.1161 87.1161L88 83Z" fill="#FCFCFC"/>
<path d="M105 89L105.884 93.1161L110 94L105.884 94.8839L105 99L104.116 94.8839L100 94L104.116 93.1161L105 89Z" fill="#FCFCFC"/>
<path d="M106 112L106.884 116.116L111 117L106.884 117.884L106 122L105.116 117.884L101 117L105.116 116.116L106 112Z" fill="#FCFCFC"/>
<path d="M123 114L123.884 118.116L128 119L123.884 119.884L123 124L122.116 119.884L118 119L122.116 118.116L123 114Z" fill="#FCFCFC"/>
<path d="M133 100L133.884 104.116L138 105L133.884 105.884L133 110L132.116 105.884L128 105L132.116 104.116L133 100Z" fill="#FCFCFC"/>
<path d="M120 82L120.884 86.1161L125 87L120.884 87.8839L120 92L119.116 87.8839L115 87L119.116 86.1161L120 82Z" fill="#FCFCFC"/>
<path d="M151 94L151.884 98.1161L156 99L151.884 99.8839L151 104L150.116 99.8839L146 99L150.116 98.1161L151 94Z" fill="#FCFCFC"/>
</svg>
