<svg width="94" height="123" viewBox="0 0 94 123" fill="none" xmlns="http://www.w3.org/2000/svg">
<path d="M84 0L84.8839 4.11612L89 5L84.8839 5.88388L84 10L83.1161 5.88388L79 5L83.1161 4.11612L84 0Z" fill="#FCFCFC"/>
<path d="M66 46L66.8839 50.1161L71 51L66.8839 51.8839L66 56L65.1161 51.8839L61 51L65.1161 50.1161L66 46Z" fill="#FCFCFC"/>
<path d="M28 59L28.8839 63.1161L33 64L28.8839 64.8839L28 69L27.1161 64.8839L23 64L27.1161 63.1161L28 59Z" fill="#FCFCFC"/>
<path d="M5 18L5.88388 22.1161L10 23L5.88388 23.8839L5 28L4.11612 23.8839L0 23L4.11612 22.1161L5 18Z" fill="#FCFCFC"/>
<path d="M12 70L12.8839 74.1161L17 75L12.8839 75.8839L12 80L11.1161 75.8839L7 75L11.1161 74.1161L12 70Z" fill="#FCFCFC"/>
<path d="M79 99L79.8839 103.116L84 104L79.8839 104.884L79 109L78.1161 104.884L74 104L78.1161 103.116L79 99Z" fill="#FCFCFC"/>
<path d="M78 68L78.8839 72.1161L83 73L78.8839 73.8839L78 78L77.1161 73.8839L73 73L77.1161 72.1161L78 68Z" fill="#FCFCFC"/>
<path d="M89 113L89.8839 117.116L94 118L89.8839 118.884L89 123L88.1161 118.884L84 118L88.1161 117.116L89 113Z" fill="#FCFCFC"/>
<path d="M20 87L20.8839 91.1161L25 92L20.8839 92.8839L20 97L19.1161 92.8839L15 92L19.1161 91.1161L20 87Z" fill="#FCFCFC"/>
</svg>
