<svg width="122" height="115" viewBox="0 0 122 115" fill="none" xmlns="http://www.w3.org/2000/svg">
<path d="M5 85L5.88388 89.1161L10 90L5.88388 90.8839L5 95L4.11612 90.8839L0 90L4.11612 89.1161L5 85Z" fill="#FCFCFC"/>
<path d="M20 98L20.8839 102.116L25 103L20.8839 103.884L20 108L19.1161 103.884L15 103L19.1161 102.116L20 98Z" fill="#FCFCFC"/>
<path d="M42 104L42.8839 108.116L47 109L42.8839 109.884L42 114L41.1161 109.884L37 109L41.1161 108.116L42 104Z" fill="#FCFCFC"/>
<path d="M60 105L60.8839 109.116L65 110L60.8839 110.884L60 115L59.1161 110.884L55 110L59.1161 109.116L60 105Z" fill="#FCFCFC"/>
<path d="M63 80L63.8839 84.1161L68 85L63.8839 85.8839L63 90L62.1161 85.8839L58 85L62.1161 84.1161L63 80Z" fill="#FCFCFC"/>
<path d="M79 42L79.8839 46.1161L84 47L79.8839 47.8839L79 52L78.1161 47.8839L74 47L78.1161 46.1161L79 42Z" fill="#FCFCFC"/>
<path d="M88 32L88.8839 36.1161L93 37L88.8839 37.8839L88 42L87.1161 37.8839L83 37L87.1161 36.1161L88 32Z" fill="#FCFCFC"/>
<path d="M110 0L110.884 4.11612L115 5L110.884 5.88388L110 10L109.116 5.88388L105 5L109.116 4.11612L110 0Z" fill="#FCFCFC"/>
<path d="M117 18L117.884 22.1161L122 23L117.884 23.8839L117 28L116.116 23.8839L112 23L116.116 22.1161L117 18Z" fill="#FCFCFC"/>
<path d="M114 37L114.884 41.1161L119 42L114.884 42.8839L114 47L113.116 42.8839L109 42L113.116 41.1161L114 37Z" fill="#FCFCFC"/>
</svg>
