<svg width="141" height="123" viewBox="0 0 141 123" fill="none" xmlns="http://www.w3.org/2000/svg">
<path d="M53 0L53.8839 4.11612L58 5L53.8839 5.88388L53 10L52.1161 5.88388L48 5L52.1161 4.11612L53 0Z" fill="#FCFCFC"/>
<path d="M73 17L73.8839 21.1161L78 22L73.8839 22.8839L73 27L72.1161 22.8839L68 22L72.1161 21.1161L73 17Z" fill="#FCFCFC"/>
<path d="M67 35L67.8839 39.1161L72 40L67.8839 40.8839L67 45L66.1161 40.8839L62 40L66.1161 39.1161L67 35Z" fill="#FCFCFC"/>
<path d="M41 63L41.8839 67.1161L46 68L41.8839 68.8839L41 73L40.1161 68.8839L36 68L40.1161 67.1161L41 63Z" fill="#FCFCFC"/>
<path d="M5 27L5.88388 31.1161L10 32L5.88388 32.8839L5 37L4.11612 32.8839L0 32L4.11612 31.1161L5 27Z" fill="#FCFCFC"/>
<path d="M136 73L136.884 77.1161L141 78L136.884 78.8839L136 83L135.116 78.8839L131 78L135.116 77.1161L136 73Z" fill="#FCFCFC"/>
<path d="M84 113L84.8839 117.116L89 118L84.8839 118.884L84 123L83.1161 118.884L79 118L83.1161 117.116L84 113Z" fill="#FCFCFC"/>
<path d="M21 106L21.8839 110.116L26 111L21.8839 111.884L21 116L20.1161 111.884L16 111L20.1161 110.116L21 106Z" fill="#FCFCFC"/>
</svg>
