<svg width="117" height="112" viewBox="0 0 117 112" fill="none" xmlns="http://www.w3.org/2000/svg">
<path d="M84 51L84.8839 55.1161L89 56L84.8839 56.8839L84 61L83.1161 56.8839L79 56L83.1161 55.1161L84 51Z" fill="#FCFCFC"/>
<path d="M62 58L62.8839 62.1161L67 63L62.8839 63.8839L62 68L61.1161 63.8839L57 63L61.1161 62.1161L62 58Z" fill="#FCFCFC"/>
<path d="M45 31L45.8839 35.1161L50 36L45.8839 36.8839L45 41L44.1161 36.8839L40 36L44.1161 35.1161L45 31Z" fill="#FCFCFC"/>
<path d="M5 51L5.88388 55.1161L10 56L5.88388 56.8839L5 61L4.11612 56.8839L0 56L4.11612 55.1161L5 51Z" fill="#FCFCFC"/>
<path d="M24 102L24.8839 106.116L29 107L24.8839 107.884L24 112L23.1161 107.884L19 107L23.1161 106.116L24 102Z" fill="#FCFCFC"/>
<path d="M33 0L33.8839 4.11612L38 5L33.8839 5.88388L33 10L32.1161 5.88388L28 5L32.1161 4.11612L33 0Z" fill="#FCFCFC"/>
<path d="M112 37L112.884 41.1161L117 42L112.884 42.8839L112 47L111.116 42.8839L107 42L111.116 41.1161L112 37Z" fill="#FCFCFC"/>
</svg>
