<?xml version="1.0" encoding="UTF-8"?><svg id="Layer_2" xmlns="http://www.w3.org/2000/svg" viewBox="0 0 126.66 80.68"><defs><style>.cls-1{fill:none;stroke:#231f20;}.cls-1,.cls-2{stroke-linecap:round;stroke-linejoin:round;}.cls-3{fill:#9a8479;}.cls-4{fill:#bee0ff;}.cls-2{stroke:#372c25;}.cls-2,.cls-5{fill:#372c25;}.cls-6,.cls-7{fill:#5a4a42;}.cls-7{stroke:#5a4a42;stroke-miterlimit:10;stroke-width:2px;}.cls-8{fill:#231f20;}.cls-9{fill:#c1b49a;}</style></defs><g id="Eye_Mona"><path class="cls-6" d="m126,21.7c.5.14.5.43.26.75-.42.56-.85,1.12-1.31,1.65-.72.83-1.57,1.56-2.18,2.46-.71,1.03-1.63,1.78-2.75,2.34-.53.25-.71.64-.68,1.22.06.88-.03,1.77.02,2.65.07,1.12-.34,2.04-1.01,2.93-1.7,2.25-3.24,4.6-4.34,7.18-.39.93-.37.91.6,1.16,1.15.3,2.29.68,3.39,1.12.97.39,1.87.91,2.79,1.38,1.58.8,2.1,2.03,1.67,3.89-.19.79-.39,1.58-.6,2.36-.53,2.02-3.17,3.31-5.46,2.67-.39-.11-.8-.19-1.21-.28,0,.06-.02.13-.03.19.66.32,1.34.61,1.98.96.41.22.85.47,1.13.8.23.28.4.81.27,1.08-.14.28-.66.47-1.05.53-1.42.25-2.89.34-4.3.64-1.87.41-3.45,1.39-4.93,2.53-.14.11-.25.26-.37.39.02.07.03.14.05.21.66,0,1.33-.05,1.98.02.31.04.6.3.91.46-.24.21-.45.57-.73.62-1.47.31-2.62,1.1-3.75,2.02-.76.64-1.66,1.21-2.59,1.56-2.77,1.04-5.59,1.95-8.38,2.93-2.31.8-4.63,1.58-6.9,2.47-1.28.51-2.55.95-3.94,1.11-.65.08-1.28.38-1.92.57.02.09.05.18.06.28,1.09,0,2.18-.02,3.27,0,.3,0,.76-.19.82.35.06.48-.27.6-.66.71-2.19.67-4.39,1.35-6.57,2.03-1.42.44-2.82.96-4.26,1.36-2.77.77-5.55,1.45-8.48,1.42-5.41-.05-10.81.05-16.22-.04-2.28-.04-4.55-.34-6.81-.61-2.44-.27-4.86-.64-7.3-.93-.62-.08-1.26-.1-1.87-.05-2.57.2-4.95-.38-7.32-1.3-1.94-.74-3.99-1.26-6.03-1.75-1.42-.34-2.63-.87-3.71-1.88-.89-.83-2.04-1.46-3.14-2.07-1.02-.57-1.85-1.29-2.54-2.19-.72-.95-1.5-1.86-2.27-2.76-.25-.29-.58-.51-1.01-.88-.06,1.05-.1,1.92-.14,2.8-.09.03-.18.05-.27.08-.2-.18-.45-.32-.6-.54-1.01-1.49-1.68-3.03-1.88-4.89-.23-2-1.04-3.97-1.8-5.87-.83-2.06-1.5-4.13-1.78-6.33-.23-1.79-.79-3.55-.93-5.35-.17-2.24-.39-4.52.23-6.76.16-.54.14-1.14.31-1.68.27-.92.62-1.82.94-2.73-.84.06-1.35.88-2.34,1.4,0-.47-.1-.83,0-1.13,1.05-3.03,2.78-5.69,4.78-8.23.9-1.15,1.74-2.34,2.63-3.49,1.13-1.46,2.54-2.64,4.09-3.68.94-.63,1.68-1.4,2.22-2.38.95-1.73,2.39-2.97,4.3-3.74,1.67-.67,3.34-1.36,4.8-2.49,1.02-.8,2.37-1.21,3.56-1.82.6-.31,1.15-.68,1.72-1.02.83-.48,1.68-.94,2.5-1.45,2.25-1.38,4.88-1.83,7.35-2.64,2.24-.74,4.51-1.41,6.81-1.93,1.68-.38,3.42-.63,5.14-.66,2.12-.04,4.2-.24,6.29-.51,5.14-.68,10.35-.97,15.47-.33,4.1.51,8.17.31,12.25.51,1.85.09,3.69.31,5.54.47.25.02.51.09.75.05,1.85-.3,3.35.47,4.83,1.38,1.79,1.1,3.6,2.18,5.49,3.12,2.16,1.09,3.6,2.7,4.5,4.81.3.7.64,1.4.89,2.12.82,2.31,2.7,3.74,4.67,5.07.51.34.97.59.94,1.26.23.02.42.06.61.05,2.08-.12,4.08.31,6.09.76,1.68.37,3.41.51,5.11.81.8.15,1.58.46,2.37.68Zm-1.15,1.06c-.14-.15-.25-.38-.43-.44-.47-.17-.95-.31-1.44-.39-1.23-.2-2.48-.31-3.71-.54-2.19-.41-4.35-.96-6.62-.8-1,.08-2.01,0-3.02,0-.4,0-.76-.12-.68-.54.04-.21.38-.44.63-.52.41-.11.85-.1,1.42-.15-.23-.18-.34-.29-.47-.35-1.8-.88-3.77-1.35-5.75-1.53-2.12-.2-4.26-.18-6.4-.17-.54,0-1.08.28-1.6.48-.3.11-.57.54-.89.11-.31-.41-.23-.86.25-1.1.45-.24.97-.52,1.45-.53,2.16-.02,4.33-.02,6.48.1,1.17.06,2.33.37,3.54.57-.14-.17-.3-.36-.45-.56-.53-.72-1.16-1.39-1.56-2.17-.53-1.02-.87-2.13-1.33-3.19-.56-1.28-1.29-2.47-2.53-3.22-2.48-1.49-5.01-2.91-7.56-4.31-.68-.38-1.45-.71-2.22-.82-1.41-.19-2.84-.24-4.27-.28-4.07-.12-8.13-.21-12.21-.33-.38,0-.75-.05-1.13-.1-1.54-.19-3.07-.5-4.62-.56-2.41-.1-4.83-.11-7.24,0-2.08.08-4.18.22-6.21.57-1.65.28-3.28.32-4.94.43-2.16.15-4.36.34-6.46.83-2.72.63-5.33,1.68-8.04,2.33-3.17.76-6.03,2.01-8.63,3.88-.26.18-.56.31-.85.45-1.29.64-2.71,1.11-3.83,1.96-1.5,1.15-3.21,1.85-4.94,2.54-1.58.63-2.61,1.78-3.57,3.07-.69.92-1.45,1.82-2.3,2.6-1.17,1.1-2.62,1.97-3.66,3.17-1.78,2.07-3.36,4.29-4.95,6.49-.65.9-1.15,1.9-1.69,2.86-.19.32-.28.69-.41,1.03.36.02.6-.05.78-.19,1.06-.79,2.12-1.59,3.16-2.4.25-.2.42-.44.72-.1.23.25.42.44.1.79-.93,1-1.89,1.98-2.72,3.06-.51.67-.91,1.48-1.15,2.28-.83,2.72-.65,5.53-.62,8.33.02.78.15,1.57.28,2.34.28,1.72.55,3.44.92,5.14.25,1.13.6,2.25,1.01,3.35,1,2.63,2.24,5.21,2.42,8.06.03.51.3,1,.45,1.49.07-.02.14-.04.2-.05,0-.44-.05-.89.02-1.32.05-.34.23-.68.35-1.02.27.22.57.42.78.69.72.88,1.38,1.8,2.09,2.7.55.68,1.17,1.31,1.68,2.01.69.98,1.6,1.68,2.63,2.32,1.34.83,2.58,1.79,3.9,2.65.48.32,1.03.61,1.59.75,2.34.61,4.73,1.03,6.97,2,1.76.77,3.62,1.42,5.58,1.28,3.38-.25,6.61.75,9.94.9,2.8.11,5.58.62,8.38.69,4.63.11,9.25.04,13.88,0,1.6-.02,3.23,0,4.8-.28,2.46-.44,4.88-1.06,7.3-1.68,1.4-.36,2.75-.85,4.13-1.29.25-.08.49-.21.74-.31-.23-.19-.42-.22-.6-.27-.65-.18-1.31-.33-1.93-.57-.21-.08-.46-.38-.44-.57,0-.19.29-.47.5-.53,1.79-.45,3.6-.87,5.39-1.3.6-.15,1.21-.28,1.79-.49,2.63-.93,5.25-1.91,7.87-2.84,2.82-1,5.63-1.99,8.46-2.97,1.67-.57,2.78-1.85,4.1-2.86.06-.05.07-.15.13-.3-.29,0-.51.02-.72,0-.43-.03-.97.11-1.15-.45-.19-.57.3-.82.68-1.05.65-.4,1.38-.7,2.02-1.1,1.83-1.18,3.74-2.16,5.95-2.49.89-.14,1.8-.19,2.89-.31-.35-.27-.58-.5-.85-.62-.51-.25-1.05-.48-1.59-.63-2.36-.64-4.72-1.26-7.09-1.85-1.06-.27-2.12-.53-3.19-.71-1.63-.28-3.27-.48-4.9-.71-.81-.11-1.63-.24-2.45-.34-.52-.07-1.09,0-1.57-.15-1.46-.45-2.99-.46-4.51-.49-1.4-.03-1.96.09-2.56-1.13,0-.02-.02-.05-.03-.07l.05-.02c0-.31.03-.62,0-.93-.07-.65.02-1.19.85-1.3.11-.02.23-.11.29-.21.14-.25.29-.5.43-.75l.43.23s0,0,0,.02c-.27.45-.27.85.2,1.19.89.63,1.73,1.31,2.65,1.89.93.58,1.55.4,2.14-.5.14-.2.28-.4.4-.61.78-1.37,1.92-2.3,3.53-2.69.17-.04.35-.25.43-.41.51-1.2,1.67-1.79,3.01-1.55.93.18,1.83.53,2.8.07.15-.08.49.13.69.27.08.05.08.31.02.44-.66,1.24-1.56,1.62-3.02,1.51-.87-.07-1.62-.48-2.66-.16-1.97.6-3.57,1.42-4.59,3.18-.5.88-.42,1.1.64,1.18.65.05,1.36-.08,1.95.12,1.96.67,3.71.37,5.33-.83.14-.1.31-.16.46-.25,1.34-.82,2.74-1.58,4.02-2.49,1.96-1.4,2.96-3.52,4.1-5.48,1.42-2.44,2.62-5,4.45-7.21.72-.87,1.21-1.75,1.05-2.89-.14-1,.48-2.18-.77-2.94.22-.22.35-.4.53-.53.97-.74,2.06-1.37,2.92-2.21.93-.91,1.65-2,2.46-3.01-.03-.08-.06-.15-.09-.22-1.26.23-2.53.38-3.77.7-1.99.51-3.96,1.09-5.55,2.44-.27.23-.64.41-1,.47-.2.04-.48-.16-.67-.31-.05-.05.08-.4.21-.5,2.17-1.59,4.59-2.74,7.28-3.27,1.66-.32,3.36-.47,5.14-.71Zm-3.3,26.71c.15-.68-.02-1.21-.69-1.59-2.28-1.29-4.47-2.73-7.21-3.07-.57-.07-.84.05-1.17.47-.94,1.19-1.4,2.75-2.9,3.52-.04.02-.06.08-.1.1-.82.61-1.62,1.28-2.49,1.82-.8.49-1.67.84-2.65,1.32.98.13,1.85.1,2.59.38,2.17.8,4.42,1.26,6.71,1.55,1.51.18,3.03.41,4.55.47.99.03,2.4-.57,2.61-1.75.19-1.08.5-2.14.75-3.21Z"/><path class="cls-6" d="m124.42,22.32c.18.06.29.29.43.44-1.79.24-3.48.39-5.14.71-2.7.53-5.11,1.68-7.28,3.27-.13.1-.26.45-.21.5.19.15.47.35.67.31.35-.07.72-.25,1-.47,1.59-1.35,3.56-1.92,5.55-2.44,1.23-.32,2.51-.47,3.77-.7.03.07.06.15.09.22-.81,1.01-1.54,2.1-2.46,3.01-.86.83-1.95,1.47-2.92,2.21-.18.13-.31.31-.53.53,1.26.77.63,1.94.77,2.94.16,1.13-.33,2.02-1.05,2.89-1.83,2.21-3.03,4.77-4.45,7.21-1.14,1.96-2.15,4.07-4.1,5.48-1.28.91-2.68,1.67-4.02,2.49-.14.08-.32.15-.46.25-1.62,1.19-3.36,1.49-5.33.83-.59-.2-1.3-.07-1.95-.12-1.06-.08-1.14-.3-.64-1.18,1.01-1.76,2.61-2.58,4.59-3.18,1.05-.32,1.79.09,2.66.16,1.46.11,2.36-.27,3.02-1.51.06-.12.06-.38-.02-.44-.2-.14-.54-.34-.69-.27-.97.46-1.87.11-2.8-.07-1.34-.25-2.49.34-3.01,1.55-.07.17-.26.38-.43.41-1.61.39-2.75,1.32-3.53,2.69-.12.21-.27.41-.4.61-.59.9-1.21,1.08-2.14.5-.92-.58-1.76-1.26-2.65-1.89-.47-.34-.47-.74-.2-1.19,0,0,0,0,0-.02.61-1,1.2-2.03,1.83-3.03.46-.74.58-1.46,0-2.21-.2-.26-.29-.61-.43-.91-.32-.74-.67-1.43-1.62-1.64-.48-.1-.63-.5-.6-.95.02-.31.06-.63,0-.93-.04-.22-.19-.53-.36-.6-.19-.08-.54.02-.72.15-1.59,1.16-1.67,1.78-.43,3.32.59.74,1.26,1.36,2.33,1.42.19,0,.43.15.55.3.6.8.76,1.67.29,2.57-.39.77-.82,1.52-1.26,2.27-.14.25-.28.5-.43.75-.06.09-.18.19-.29.21-.84.11-.93.65-.85,1.3.03.31,0,.61,0,.93l-.05.02c-.2-.39-.41-.78-.63-1.16-.19-.72-.62-1.33-1.06-1.95-1-1.4-1.91-2.85-2.95-4.23-.78-1.04-1.64-2.04-2.55-2.98-.83-.87-1.79-1.61-2.65-2.44-.29-.28-.51-.66-.67-1.03-.64-1.57-1.42-3.04-2.69-4.26-.59-.57-.99-1.25-1.01-2.1,0-.23-.32-.44-.5-.67-.17.23-.44.45-.48.7-.13.9.35,1.61.89,2.29.66.84,1.33,1.68,1.96,2.54.14.19.19.45.36.87-1.32-.92-2.49-1.65-3.56-2.5-3.11-2.47-6.75-4.12-10.24-5.97-1.64-.87-3.53-1.31-5.31-1.96-.53-.2-1.06-.43-1.57-.68-.4-.21-.78-.21-.93.2-.23.65,4.84,2.12,5.54,2.4,2.15.87,4.25,1.85,6.29,2.92,4.07,2.15,7.9,4.72,11.37,7.68,2.15,1.83,4.15,3.81,5.99,5.94,1.41,1.63,2.71,3.35,3.77,5.22.06.22.1.46.1.71,0,.03,0,.06.02.08.06.15.25.3.35.44.06-.03.11-.05.16-.08,0,.02.02.05.03.07.6,1.22,1.16,1.1,2.56,1.13,1.51.03,3.05.04,4.51.49.48.15,1.05.08,1.57.15.81.1,1.63.22,2.45.34,1.63.23,3.27.44,4.9.71,1.07.18,2.13.44,3.19.71,2.37.6,4.73,1.22,7.09,1.85.55.15,1.08.38,1.59.63.27.12.5.35.85.62-1.09.11-2,.17-2.89.31-2.2.33-4.12,1.31-5.95,2.49-.64.41-1.37.7-2.02,1.1-.39.23-.88.47-.68,1.05.19.56.72.42,1.15.45.21.02.43,0,.72,0-.06.15-.06.25-.13.3-1.32,1.01-2.44,2.28-4.1,2.86-2.82.98-5.64,1.97-8.46,2.97-2.62.93-5.24,1.91-7.87,2.84-.58.21-1.19.34-1.79.49-1.79.44-3.6.85-5.39,1.3-.21.06-.49.34-.5.53-.02.19.23.5.44.57.62.24,1.28.39,1.93.57.19.05.38.08.6.27-.25.11-.49.23-.74.31-1.38.44-2.73.93-4.13,1.29-2.41.62-4.84,1.25-7.3,1.68-1.56.28-3.19.26-4.8.28-4.63.04-9.25.11-13.88,0-2.8-.07-5.58-.57-8.38-.69-3.33-.15-6.57-1.14-9.94-.9-1.96.14-3.82-.51-5.58-1.28-2.24-.97-4.63-1.39-6.97-2-.56-.15-1.11-.43-1.59-.75-1.32-.86-2.57-1.82-3.9-2.65-1.03-.64-1.94-1.34-2.63-2.32-.51-.7-1.13-1.33-1.68-2.01-.71-.9-1.38-1.82-2.09-2.7-.21-.27-.51-.47-.78-.69-.12.34-.31.67-.35,1.02-.06.44-.02.88-.02,1.32-.06.02-.13.04-.2.05-.15-.49-.42-.98-.45-1.49-.19-2.86-1.42-5.43-2.42-8.06-.41-1.1-.76-2.21-1.01-3.35-.37-1.7-.64-3.42-.92-5.14-.13-.77-.27-1.56-.28-2.34-.03-2.8-.21-5.61.62-8.33.24-.8.64-1.61,1.15-2.28.83-1.08,1.79-2.07,2.72-3.06.32-.34.13-.54-.1-.79-.31-.34-.47-.1-.72.1-1.04.82-2.1,1.62-3.16,2.4-.19.14-.42.21-.78.19.13-.34.23-.71.41-1.03.54-.97,1.04-1.97,1.69-2.86,1.59-2.2,3.17-4.42,4.95-6.49,1.04-1.2,2.49-2.07,3.66-3.17.85-.79,1.61-1.68,2.3-2.6.97-1.29,2-2.44,3.57-3.07,1.73-.7,3.44-1.39,4.94-2.54,1.12-.85,2.54-1.32,3.83-1.96.29-.15.6-.27.85-.45,2.6-1.86,5.46-3.12,8.63-3.88,2.71-.65,5.32-1.7,8.04-2.33,2.1-.48,4.3-.68,6.46-.83,1.66-.11,3.29-.15,4.94-.43,2.04-.35,4.14-.5,6.21-.57,2.41-.1,4.83-.09,7.24,0,1.54.06,3.08.37,4.62.56.38.05.75.09,1.13.1,4.07.11,8.13.21,12.21.33,1.43.05,2.86.09,4.27.28.77.11,1.54.44,2.22.82,2.54,1.4,5.08,2.83,7.56,4.31,1.25.75,1.98,1.95,2.53,3.22.46,1.06.8,2.17,1.33,3.19.4.77,1.03,1.45,1.56,2.17.15.2.31.39.45.56-1.21-.21-2.37-.51-3.54-.57-2.15-.12-4.31-.12-6.48-.1-.48,0-1,.29-1.45.53-.47.25-.56.7-.25,1.1.32.43.6,0,.89-.11.52-.2,1.06-.48,1.6-.48,2.13,0,4.27-.03,6.4.17,1.99.18,3.95.65,5.75,1.53.13.06.23.18.47.35-.56.05-1.01.05-1.42.15-.25.08-.59.31-.63.52-.08.42.28.55.68.54,1.01,0,2.02.07,3.02,0,2.27-.16,4.43.38,6.62.8,1.23.22,2.48.34,3.71.54.49.08.97.22,1.44.39Z"/><path class="cls-6" d="m120.86,47.89c.67.38.84.9.69,1.59-.25,1.06-.56,2.13-.75,3.21-.22,1.17-1.63,1.78-2.61,1.75-1.53-.05-3.04-.28-4.55-.47-2.29-.28-4.54-.75-6.71-1.55-.74-.28-1.61-.25-2.59-.38.97-.47,1.85-.83,2.65-1.32.87-.54,1.67-1.2,2.49-1.82.04-.02.06-.08.1-.1,1.5-.77,1.96-2.34,2.9-3.52.34-.42.6-.54,1.17-.47,2.74.34,4.93,1.78,7.21,3.07Z"/><path class="cls-6" d="m92.39,42.8c.57.75.45,1.46,0,2.21-.63,1-1.21,2.02-1.83,3.03l-.43-.23c.43-.75.86-1.5,1.26-2.27.47-.9.31-1.77-.29-2.57-.11-.15-.35-.29-.55-.3-1.07-.06-1.74-.68-2.33-1.42-1.23-1.54-1.15-2.16.43-3.32.19-.13.53-.22.72-.15.18.07.32.38.36.6.06.3.02.61,0,.93-.02.45.12.85.6.95.95.21,1.3.9,1.62,1.64.14.31.23.65.43.91Z"/><path class="cls-6" d="m88.51,51.01s-.1.05-.16.08c-.1-.15-.29-.29-.35-.44,0-.02-.02-.05-.02-.08,0-.25-.03-.49-.1-.71.22.38.43.77.63,1.16Z"/><path class="cls-6" d="m86.82,47.9c.44.62.88,1.23,1.06,1.95-1.06-1.86-2.37-3.58-3.77-5.22-1.83-2.13-3.84-4.11-5.99-5.94-3.47-2.96-7.3-5.53-11.37-7.68-2.04-1.07-4.14-2.04-6.29-2.92-.7-.28-5.78-1.75-5.54-2.4.15-.41.53-.41.93-.2.51.25,1.04.48,1.57.68,1.78.65,3.67,1.09,5.31,1.96,3.49,1.85,7.13,3.51,10.24,5.97,1.07.85,2.24,1.58,3.56,2.5-.17-.42-.22-.68-.36-.87-.64-.86-1.3-1.69-1.96-2.54-.53-.68-1.01-1.39-.89-2.29.04-.25.31-.47.48-.7.18.22.49.44.5.67.02.85.43,1.52,1.01,2.1,1.26,1.22,2.04,2.69,2.69,4.26.15.37.38.74.67,1.03.86.83,1.82,1.57,2.65,2.44.91.94,1.77,1.94,2.55,2.98,1.04,1.38,1.96,2.83,2.95,4.23Z"/><path class="cls-7" d="m89.14,14.02c-1.05.89-2.19,1.89-3.38,2.84-.73.58-1.53,1.06-2.29,1.61-.65.48-1.28.99-1.92,1.49-.71.56-1.41,1.13-2.13,1.68-.62.48-1.26.94-1.9,1.39-.25.18-.49.65-.85.25-.31-.35-.33-.8.13-1.13.52-.37,1.08-.7,1.59-1.08.86-.64,1.69-1.32,2.56-1.96.79-.59,1.6-1.14,2.4-1.72.66-.47,1.34-.92,1.97-1.42,1.18-.93,2.34-1.87,3.48-2.83.43-.36.81-.31,1.18.03.79.73,1.64,1.42,2.33,2.23,1.5,1.76,2.91,3.58,4.35,5.39.3.38.63.76.84,1.18.17.33.2.72.24,1.09.01.12-.18.36-.27.36-.16,0-.36-.13-.47-.26-1.01-1.3-2.01-2.61-3.01-3.92-.8-1.04-1.52-2.14-2.4-3.12-.68-.75-1.55-1.35-2.46-2.12Z"/><polygon class="cls-3" points="85.51 27.51 87.1 27.64 89.65 27.77 90.85 27.39 91.41 26.45 92.03 24.75 92.16 23.49 91.82 22.28 90.65 20.37 90.24 19.69 90.27 19.13 89.05 18.41 88.86 19.23 88.11 20.23 87.1 21.48 86.21 22.69 85.78 23.81 85.6 25.63 85.51 27.51"/><polygon class="cls-3" points="92.77 15.94 89.99 13.17 89.36 12.89 88.4 13.47 86.17 15.3 84.33 16.7 82.26 18.16 80.48 19.46 78.88 20.7 77.76 21.51 76.8 22.15 76.45 22.68 76.67 23.28 77.14 23.44 77.52 23.03 78.39 22.41 80.16 21.06 83.91 18.16 85.76 16.86 89.14 14.02 89.65 14.44 91.1 15.63 92.16 16.8 93.24 18.16 95.04 20.62 97 23.17 97.74 23.06 97.51 21.97 96.04 19.92 94.77 18.41 92.77 15.94 103.27 9.28 104.02 10.55 104.98 12.89 105.58 14.24 107.6 16.97 106.23 16.71 102.92 16.29 100.04 16.29 97.58 16.3 96.13 16.82 95.89 17.93 97.74 17.44 100.56 17.33 106.22 17.69 108.28 18.16 110.3 18.85 110.99 19.39 108.95 20.06 109.64 20.6 111.24 20.59 112.65 20.59 115.05 20.65 117.1 20.97 120.15 21.53 122.98 21.92 124.85 22.76 122.18 23.09 119.71 23.47 117.67 24.01 115.05 25.11 113.68 25.9 112.22 27.24 112.88 27.56 114.53 27.77 115.25 28.43 116.27 29.31 117.38 29.9 118.18 31.46 118.07 34.05 116.74 36.19 114.74 39.23 112.97 42.39 111.19 45.45 108.54 48.42 104.52 50.9 101.53 52.26 99.55 52.2 98.74 51.98 97.72 51.86 96.8 51.86 96.18 51.77 95.86 51.38 96.15 50.68 97.69 48.92 99.64 47.87 101.14 47.41 102.73 47.55 104.33 47.65 105.53 47.22 106.28 46.39 106.4 45.72 105.71 45.45 104.94 45.66 103.41 45.48 101.77 45.38 100.83 45.77 100.28 46.28 99.72 47.18 98.61 47.62 97.67 48.12 96.85 48.8 95.94 50.03 95 51.24 94.33 51.46 93.78 51.33 91.83 50.03 90.75 49.24 90.37 48.7 90.55 48.05 92.16 45.37 92.66 44.46 92.76 43.63 92.16 42.38 91.71 41.36 91.41 40.9 90.76 40.39 89.93 40.01 89.76 39.15 89.77 38.76 89.65 38.1 89.05 37.77 88.42 38.11 87.87 38.59 87.44 39.22 87.39 39.78 88.22 41.25 89.05 42.1 89.51 42.39 90.55 42.67 91.09 42.97 91.47 43.62 91.65 44.53 91.54 45.16 91.09 46.08 90.53 47.1 90.19 47.71 89.42 48.76 88.83 48.99 88.55 49.61 88.57 50.44 88.35 51.1 88.13 51.11 87.98 50.57 87.86 49.77 87.54 49 86.17 46.96 84.17 44.09 82.55 42.04 81.32 40.7 79.64 39.15 78.01 37.23 77.17 35.46 76.45 34.3 75.32 32.97 74.37 31.38 73.8 30.21 73.49 30.58 73.23 31.46 73.61 32.31 74.65 33.76 75.46 34.81 76.02 35.53 76.53 36.6 75.18 35.68 71.82 33.25 66.75 30.22 63.33 28.45 61.02 27.38 58.59 26.57 57.42 26.17 55.85 25.49 56.63 24.45 56.63 22.56 57.38 22.5 57.38 21.19 58.48 21.19 58.14 20.09 58.89 19.63 58.82 19.02 59.51 18.72 60.33 18.16 61.29 16.96 61.43 16.05 61.49 15 61.49 14.68 62.04 13.89 62.59 13.31 63.42 12.89 63.89 12.53 65.05 11.81 65.6 11.03 66.01 10.05 65.94 8.81 66.36 7.7 67.72 7.77 68.89 7.7 69.85 7.39 70.46 6.46 70.67 5.68 70.67 4.57 71.15 3.6 71.9 3.6 72.86 2.29 73.13 1.82 76.83 2.12 80.26 2.21 84.33 2.32 91.41 2.64 92.54 2.83 93.73 3.3 95.76 4.4 98.68 6.05 101.34 7.6 103.27 9.28 92.77 15.94"/><path class="cls-6" d="m84.35,26.68c.13-2.43.52-4.62,2.35-6.32.28-.26.43-.64.66-.95.23-.31.42-.68.73-.89.24-.15.63-.09.96-.12-.06.28-.03.61-.19.82-.63.86-1.29,1.71-1.99,2.51-.92,1.05-1.26,2.26-1.29,3.58-.01.52.02,1.05,0,1.58-.01.33.14.78-.5.74-.51-.03-.81-.22-.73-.76.02-.12,0-.24,0-.2Z"/><path class="cls-6" d="m90.85,27.39c.81-1.2,1.33-2.48,1.31-3.9,0-.41-.14-.85-.34-1.21-.49-.88-1.07-1.72-1.58-2.59-.08-.14-.07-.41.03-.56.06-.1.36-.14.51-.09.2.07.4.22.53.38,1.73,2.15,2.62,4.45,1.28,7.1-.2.4-.52.76-.85,1.07-.34.31-.68.22-.89-.19Z"/><polygon class="cls-9" points="113.86 27.68 114.53 27.77 115.38 28.55 116.27 29.31 117.38 29.9 118.56 28.9 119.47 28.27 120.64 27.34 121.52 26.41 122.47 25.21 123.04 24.47 123.28 24.16 123.2 23.94 121.15 24.28 118.9 24.78 117.22 25.29 115.26 26.14 114.47 26.63 113.72 27.2 112.98 27.53 113.86 27.68"/><polygon class="cls-9" points="89.05 18.41 90.27 19.13 90.19 19.43 90.35 19.87 90.77 20.56 91.21 21.25 91.49 21.81 91.97 22.59 92.16 23.09 92.16 23.49 92.16 24.13 92.03 24.75 91.84 25.44 91.58 26.11 91.21 27.04 90.85 27.39 89.65 27.77 89.26 27.64 88.83 27.35 88.1 27.39 87.62 27.32 86.69 27.22 86.32 27.42 85.51 27.51 85.53 27.04 85.56 26.38 85.59 25.07 85.72 24.07 86.21 22.69 86.87 21.74 87.62 20.85 88.14 20.19 88.54 19.66 88.86 19.23 89.05 18.41"/><path class="cls-5" d="m78.24,37.51l.1.12,1.3,1.52,1.68,1.55,1.58,1.78,1.9,2.5.97,1.39,1.25,2,.6.95.21.72.16.53.15.55h.22s.22-.67.22-.67l-.03-.83.87-.85.42-.58,1.12-1.67.59-1.36.11-.63v-.6l-.18-.3-.38-.65-.54-.3-1.04-.28-.46-.3-.58-.6-.45-.62-.62-1.1.05-.56.69-.86.91-.59.6.33.09,1.21.18.71,1.25.7.9,1.47.69,1.45-.26,1.17-.94,1.56-.65,1.09-.36.6-.18.65.38.54.29.21,1.71,1.19,1.02.68.55.14.67-.22.94-1.22.91-1.23,1.04-.8,1.22-.58.62-.24.56-.9.55-.51.93-.39,1.16.07,1.41.2h.61s.76-.21.76-.21l.7.27-.12.67-.75.83-1.2.43-3.19-.24-1.51.47-1.54.8-.4.26-.61.69-.53.52-.4.54-.29.71.33.38.93.09,1.62.12.81.22,1.21.04.77.02,2.99-1.36.75-.46,2.03-1.25,1.24-.77,1.78-2.01.86-.97.88-1.33,1.24-2.34-1.3.19-1.28.39-.98.34-1.75.64-.51-.1h-.87l-1.13.15h-.77l-1.39-.64-1.28-.24.56-2.17.67-.91-.1-1.03v-1.52l.46-1.17.26-1.03-.1-1.56-.51-1.37-1.69,1.27-1.28,1.47-.41,2.05-1.03.59-1.12.54-.83.68-.41.93-.73,1.06h-1.48l-1.06-1.01-.64-1.12v-1.08l-.89-.98-1.36-1.08h-3.97l-.62.34-.72.49-.92.1-.77.05-.92.15s-1.34.39-1.54.44l-1.03.24-1.62.62Z"/><path class="cls-1" d="m73.74,31.01c.64,1.25,1.78,2.58,2.42,3.83.71,1.39,1.51,3.06,2.72,4.09,3.66,3.12,3.56,3.88,5.45,5.98s3.28,4.36,4.07,7.02"/><path class="cls-1" d="m115.12,52.13c-1.45-.19-3.24-.02-4.69-.21-1.61-.21-3.51-.5-5.08-.12-4.76,1.17-5.37.66-8.25.99s-5.93-.02-8.69-.87"/><polygon class="cls-8" points="89.42 48.76 89.84 48.19 90.53 47.1 91.21 45.74 91.65 44.27 91.65 43.93 91.09 42.97 90.66 42.45 90.35 42.2 89.38 41.46 88.59 40.54 88.08 39.68 87.55 38.69 87.82 38.29 88.28 37.77 89.05 37.77 89.65 38.1 89.93 40.01 91.17 40.71 92.07 42.18 92.76 43.63 92.5 44.8 90.37 48.7 88.55 49.61 89.42 48.76"/><polygon class="cls-8" points="94.33 51.46 95 51.24 96.85 48.8 97.89 48 99.72 47.18 100.44 46.14 100.83 45.77 101.77 45.38 104.94 45.66 105.71 45.45 106.4 45.72 106.28 46.39 105.53 47.22 104.33 47.65 101.14 47.41 99.64 47.87 97.69 48.92 97.09 49.61 96.36 50.44 95.86 51.38 94.33 51.46"/><polygon class="cls-8" points="91.98 52.35 94.04 52.53 95.77 52.53 96.96 52.44 97.99 52.35 99.21 52.26 100.37 52.26 99.55 52.2 98.74 51.98 96.18 51.77 95.86 51.38 94.33 51.46 93.78 51.33 90.75 49.24 90.37 48.7 88.55 49.61 88.57 50.44 88.4 50.81 88.71 51.61 90.08 51.98 91.98 52.35"/><path class="cls-2" d="m91.41,51.11c-.68-.05-1.12-.08-1.63-.12-.04-.39-.08-.75-.13-1.12.08-.03.16-.07.24-.1.45.4.9.8,1.52,1.35Z"/><polygon class="cls-4" points="86.86 39.97 86.44 41.1 86.72 42.7 86.96 43.63 88.03 44.67 88.88 45.1 90.03 45.23 91.45 44.63 91.63 44.23 91.66 43.78 91.34 43.24 91.1 42.82 90.88 42.57 90.67 42.31 90.36 42.05 89.8 41.65 88.59 40.39 88.17 39.69 87.68 38.78 86.86 39.97"/><polygon class="cls-8" points="89.6 41.34 89.17 41.39 88.57 41.68 88.27 41.97 87.82 42.49 87.33 43.45 87.14 43.8 88.03 43.67 88.63 43.38 89.22 42.56 89.68 42.02 89.8 41.65 89.6 41.34"/></g></svg>