<?xml version="1.0" encoding="UTF-8"?><svg id="Layer_2" xmlns="http://www.w3.org/2000/svg" viewBox="0 0 144.23 83.94"><defs><style>.cls-1{fill:#fff;}.cls-2{fill:#404041;}.cls-3{fill:#ffa6c6;}.cls-4{fill:#929497;}.cls-5{stroke-miterlimit:10;}.cls-5,.cls-6{fill:none;stroke:#372c25;}.cls-7{fill:#c7ffaa;}.cls-8{fill:#f1f1f2;}.cls-9{fill:#231f20;}.cls-6{stroke-linecap:round;stroke-linejoin:round;stroke-width:2px;}</style></defs><g id="Awake_Cloud"><path class="cls-4" d="m69.08,47.93c-.96.26-1.92.57-2.84,1-.05.02-.11.03-.17.05-.31-.03-.28-.33-.39-.52-.07-.14-.06-.26.1-.35.21-.11.4-.24.61-.34,1.26-.57,2.56-1.07,3.86-1.58.1-.04.22-.15.31-.04.09.08-.01.21-.04.32-.18.78-.62,1.25-1.44,1.46Z"/><path class="cls-4" d="m65.8,50.4c.08-.48.33-.78.81-.93.76-.25,1.49-.55,2.24-.83.16-.06.33-.09.49-.14.01.03.03.07.04.1-.65.66-1.38,1.21-2.22,1.61-.35.17-.73.3-1.1.45-.08.03-.18.1-.26.01-.08-.08-.02-.18,0-.27Z"/><path class="cls-4" d="m65.28,47.34c-.05-.17.01-.28.16-.38.9-.53,1.8-1.05,2.68-1.61.91-.58,1.87-1.09,2.73-1.76.08-.06.17-.18.27-.12.13.08.05.21.02.32-.1.4-.21.81-.24,1.23-.03.27-.17.42-.45.51-1.58.49-3.13,1.1-4.6,1.87-.09.05-.19.08-.24.1-.18.01-.28-.03-.33-.16Z"/><path class="cls-8" d="m59.76,59.81c-.85.39-1.77.48-2.68.59-.14.02-.29.03-.41-.12,1.27-.45,2.32-1.19,3.32-2.02.37-.3.44-.74.64-1.11.13-.24.26-.38.56-.36.76.05,1.48-.14,2.17-.46.08-.04.18-.12.26-.05.11.1,0,.2-.04.28-.26.52-.46,1.07-.87,1.52-.27.3-.6.5-.91.74-.62.48-1.35.67-2.04.99Z"/><path class="cls-3" d="m59.46,54.72c.03-.23-.08-.32-.27-.38-.36-.14-.73-.25-1.11-.3-.32-.04-.62-.02-.9.19-.33.26-1.12.06-1.34-.3-.07-.12-.03-.21.05-.29.13-.13.26-.27.4-.38,1.32-1.02,2.76-1.8,4.41-2.11.16-.03.33-.03.49-.03.13,0,.23.06.24.23-.14.26-.28.55-.44.82-.29.5-.42,1.05-.49,1.63-.02.16,0,.3.12.41.17.16.13.31.01.47-.12.14-.24.29-.38.41s-.32.23-.51.11c-.17-.1-.32-.26-.28-.48Z"/><path class="cls-4" d="m135.97,23.12c.07.04.15.06.22.1.11.06.27.11.23.27s-.2.16-.35.14c-.09,0-.18-.05-.31.03.73.37,1.03,1.15,1.71,1.53.47.27.75.73,1.09,1.14.11.13.19.32.45.19.13-.07.21.08.25.18.39,1.1,1.1,2,1.71,2.96.72,1.15,1.07,2.46,1.46,3.75.37,1.21.48,2.44.51,3.7.01.77.08,1.54.13,2.31.01.1.03.21.07.3.12.24.21.46-.03.7-.06.06-.04.22-.05.33-.02.53.08,1.09-.08,1.57-.25.77-.15,1.6-.55,2.33-.16.29-.24.63-.32.96-.47,2.03-1.52,3.74-2.93,5.23-.71.75-1.42,1.49-2.11,2.26-1.73,1.95-3.84,3.32-6.35,4.07-1.37.41-2.7.95-4.1,1.23-1.88.38-3.75.8-5.65,1.05-.39.05-.77.09-1.16.1-1.24.06-2.48.15-3.71.14-1.53-.01-3.07-.11-4.6-.17-1.8-.06-3.58-.35-5.36-.6-1.17-.17-2.35-.2-3.53-.32-.86-.09-1.72.07-2.59.09-.93.01-1.87.03-2.8.17-.66.1-1.31.26-1.97.35-1.63.21-3.27.42-4.87.84-2.29.59-4.53,1.34-6.62,2.47-.59.32-1.11.74-1.67,1.1-1.35.85-2.59,1.83-3.75,2.94-1.47,1.41-2.91,2.87-4.11,4.52-1.05,1.46-1.88,3.07-2.49,4.77-.06.17-.1.34-.12.51-.07.6-.25,1.15-.52,1.7-.33.7-.45,1.49-.53,2.27-.07.71-.36,1.32-.79,1.88-.1.13-.18.13-.28.01-.69-.85-1.3-1.72-1.39-2.88-.08-1.03-.34-2.03-.5-3.04-.27-1.76-.25-3.49.14-5.22.22-.96.38-1.92.7-2.86.52-1.5,1.36-2.8,2.35-4.03.79-.97,1.66-1.87,2.65-2.65.86-.69,1.58-1.52,2.44-2.21,1.35-1.1,2.89-1.91,4.36-2.81,1.28-.78,2.67-1.31,4.02-1.92.36-.16.74-.23,1.11-.35.37-.11.75-.24,1.09-.41,1.22-.58,2.52-.86,3.8-1.21,1.19-.32,2.37-.62,3.57-.9,1.34-.31,2.72-.45,4.06-.76,1.57-.34,3.17-.31,4.74-.49,2.18-.23,4.37-.2,6.56-.3,2.36-.11,4.72.13,7.08.07,1.66-.03,3.32-.1,4.96-.36.76-.13,1.52-.26,2.28-.41,1.79-.36,3.37-1.15,4.86-2.18,1.43-1,2.73-2.13,3.87-3.44,1.16-1.32,1.75-2.91,2.07-4.62.23-1.26.37-2.51.15-3.79-.1-.52-.28-1.01-.55-1.47-.06-.11-.14-.21-.23-.3-.11-.12-.25-.19-.41-.09-.14.1-.19.24-.14.4.04.14.09.27.16.39.21.35.27.73.29,1.14.06,1.31-.04,2.62-.33,3.9-.43,1.89-1.3,3.53-2.78,4.84-1.41,1.24-2.86,2.41-4.51,3.32-.92.51-1.92.72-2.92.97-1.88.48-3.8.6-5.73.71-1.66.1-3.32,0-4.98-.06-1.67-.05-3.34.05-5.02.11-.91.03-1.82,0-2.73.08-1.8.15-3.6.23-5.39.43-2.05.23-4.08.65-6.11,1.06-1.29.25-2.56.66-3.84.99-2.59.69-5.1,1.6-7.5,2.81-1.04.52-2.07,1.05-3.08,1.62-1.93,1.1-3.68,2.42-5.33,3.91-1.67,1.5-3.17,3.15-4.54,4.91-.04.05-.09.09-.1.15-.25.64-.74.74-1.35.69-.78-.07-1.54.08-2.31.15-1.04.09-2.06.25-3.1.34l-4.86.39c-1.41.12-2.82.25-4.22.38-.26.02-.52.05-.78.07l-.03-.38c.09,0,.14-.12.18-.2.57-1.11,1.16-2.21,1.69-3.34.35-.73.79-1.41,1.08-2.17.07-.2.23-.28.44-.26.33.02.65.03.98.07,1.38.15,2.7-.12,3.99-.57.58-.21,1.09-.6,1.64-.87.8-.38,1.24-1.03,1.59-1.78.04-.08.07-.21.11-.21.53-.02.35-.56.6-.79.28-.25.37-.61.36-.99-.01-.77.32-1.48.45-2.23.1-.55.16-1.1.36-1.64.06-.15.14-.24.31-.28,1.71-.41,3.4-.86,5.04-1.47.21-.08.42-.15.63-.23.02,0,.03-.03.12-.15-.66.12-1.24.02-1.81.18-.17.05-.44.22-.54.04-.08-.17.21-.3.35-.43.19-.16.38-.31.59-.45.13-.09.2-.19.27-.34.18-.46.44-.85.97-.97.44-.1.78-.44,1.25-.45.09,0,.14-.08.13-.18s-.1-.12-.18-.12c-.33-.02-.65-.02-.98.08-.25.08-.38-.03-.27-.27.21-.5.26-1.08.7-1.47.15-.12.07-.22-.06-.29-.15-.07-.18-.16-.13-.31.41-1.38.48-2.81.72-4.21.19-1.11.46-2.19.66-3.3.11-.57.27-1.13.46-1.68.43-1.25.84-2.51,1.3-3.75.6-1.61,1.56-3,2.61-4.33,1.64-2.09,3.68-3.65,6.09-4.8,2.15-1.02,4.41-1.59,6.74-1.99.26-.04.53-.09.8-.08,1.34.05,2.68-.27,4.03-.09.17.02.45.11.5-.16.04-.25-.15-.43-.39-.53-.2-.08-.42-.11-.65-.11-.6,0-1.2-.04-1.79.01-.97.09-1.95-.05-2.91.13-2.4.47-4.78,1.04-6.96,2.2-1.12.6-2.26,1.13-3.26,1.93-2.19,1.76-3.98,3.86-5.24,6.37-.67,1.31-1.06,2.74-1.61,4.11-.37.92-.65,1.87-.85,2.84-.03.13-.07.27-.22.35-.33.17-.44.47-.25.82.13.24.12.43.02.66-.15.35-.14.73-.15,1.1-.01.76-.12,1.51-.21,2.27-.02.22-.12.36-.32.46-1.85.9-3.56,2.02-5.31,3.09-.65.4-.56.37-.74-.35-.25-.99.14-1.83.39-2.72.37-1.27.56-2.57.66-3.89.02-.31-.02-.61-.29-.82-.12-.09-.1-.2-.06-.32.07-.2.15-.39.19-.6.05-.19.07-.41-.12-.54-.26-.18-.26-.42-.18-.66.11-.35.17-.67-.2-.93-.18-.13-.13-.37-.08-.56.12-.44-.01-.78-.37-1.04-.2-.15-.23-.31-.18-.55.19-.76.05-1.05-.62-1.43-.04-.02-.09-.03-.09-.05-.17-.6-.88-.93-.8-1.64.05-.43-.08-.75-.45-1.02-.39-.31-.63-.78-1.04-1.08-.1-.07-.09-.22-.08-.33.05-.35-.11-.59-.4-.75-.23-.13-.41-.3-.51-.55-.1-.23-.28-.38-.53-.41-.27-.04-.38-.2-.36-.47,0-.11,0-.23,0-.35-.06-.53-.27-.78-.8-.87-.32-.05-.42-.18-.4-.51.03-.71-.17-.93-.89-1.1-.15-.04-.21-.11-.18-.27.04-.15.05-.3.07-.45.06-.51-.02-.68-.5-.92-.16-.08-.28-.2-.36-.36-.1-.23-.21-.44-.5-.48-.16-.02-.16-.18-.16-.31,0-.36-.04-.7-.27-1-.11-.12-.05-.26,0-.4.12-.34.2-.69.23-1.05.03-.32,0-.6-.39-.66-.2-.04-.2-.2-.19-.36.04-.61.06-1.22.24-1.8.12-.39.16-.78.06-1.18-.05-.22.02-.42.11-.61.14-.29.2-.58.15-.91-.25-1.44.1-2.83.39-4.23.13-.62-.09-1-.6-1.12-.12-.03-.23-.02-.33,0l-.37-2.23c.96-.17,1.92-.32,2.88-.45,1.7-.22,3.39-.43,5.08-.66.15-.02.34-.06.45.01.66.42,1.27.02,1.89-.11.51-.11,1.01-.29,1.51-.45.24-.08.46-.08.66.08.22.18.47.2.74.14,1-.2,2.01-.41,3.02-.62.16-.04.31-.07.42.07.37.5.87.42,1.37.29.98-.26,1.97-.52,2.97-.71.3-.06.53-.08.69.26.13.28.44.32.73.32.43.01.85-.06,1.25-.16,1.09-.27,2.22-.34,3.3-.65.06-.02.14-.02.21-.01.1,0,.24.02.26.13.03.16-.13.13-.22.15-.15.05-.31.09-.29.29.02.22.21.23.37.23.33.01.65-.05.97-.14,1.43-.4,2.87-.61,4.36-.36.71.12,1.42-.06,2.12-.21.15-.04.3-.08.44,0,.83.44,1.71.31,2.58.22.9-.11,1.77-.36,2.67-.41.27-.01.47.05.63.28.29.42.7.59,1.21.58.62-.01,1.24-.04,1.85-.19.28-.08.48-.03.62.27.31.67.94.66,1.54.64.68-.02,1.36-.07,2.03-.09.42-.01.76.12.99.53.24.44.68.66,1.16.79.34.09.69.14,1.04.15.37,0,.75,0,1.12.01q.76.04.94.74c.12.44.63.78,1.26.87.71.1,1.42.04,2.14.07.21,0,.34.06.39.29.18.79.44,1,1.23,1.11.52.07,1.03.06,1.55.06.35,0,.55.1.63.48.13.66.56,1.04,1.23,1.12.5.06,1,.12,1.5.16.5.03.98.17,1.27.58.63.88,1.55,1.02,2.51,1.1.47.05.5.02.48.51-.04.61.24.99.76,1.26.54.27,1.13.36,1.72.48.42.09.85.17,1.26.28.39.1.64.33.7.74.12.95.72,1.46,1.6,1.69.32.08.64.15.96.21.21.04.27.15.21.35-.08.25-.15.51-.22.77-.05.18-.17.19-.32.2-.13.01-.34-.07-.37.09-.02.16.16.3.31.33.57.11,1.05.46,1.62.58.44.1.89.18,1.34.24.33.04.38.14.22.43-.07.13-.16.27-.18.41-.05.28-.08.55-.43.62-.07.01-.14.1-.11.19.04.13.16.2.27.2.68,0,1.28.37,1.94.45.08,0,.16.03.24.04.45.09.48.14.36.58-.07.26-.22.34-.47.24-.1-.03-.25-.14-.32-.02-.07.15.08.24.2.29.62.24,1.18.62,1.78.91Z"/><path class="cls-4" d="m54.13,61.69c-.77,1.61-1.52,3.24-2.14,4.91-.04.1-.13.22-.02.29.03.02.05.02.08.02l.03.38c-1.31.11-2.61.22-3.91.28h-.21c-.34,0-.37-.04-.21-.33.39-.66.74-1.33,1.18-1.95.81-1.15,1.52-2.36,2.43-3.43.12-.13.21-.26.4-.24.71.05,1.4-.07,2.07-.3.12-.04.28-.1.37.01s-.02.25-.07.36Z"/><path class="cls-4" d="m44.77,60.84c.29.22.61.31.93.04.08-.06.2-.13.28-.02.09.12-.03.19-.12.24-.1.06-.16.13-.15.25.02.14.13.15.23.18.34.1.36.15.1.4-1.16,1.15-2.34,2.29-3.5,3.44-.13.12-.43.27-.25.46.18.18.34-.11.47-.23.7-.65,1.5-1.15,2.21-1.78.69-.62,1.4-1.22,2.1-1.81.42-.36,1.01-.31,1.37.11.05.06.11.11.18.16.07.06.12.23.23.14.12-.1-.05-.17-.1-.25-.05-.07-.09-.15,0-.22.07-.06.17-.04.22.02.24.28.44.16.64-.05.13-.13.29-.13.46-.08.31.09.35.17.15.43-.68.9-1.3,1.85-1.91,2.81-.45.68-.86,1.39-1.28,2.09-.15.26-.37.4-.66.38-.3-.03-.6.04-.9.06-1.32.11-2.63-.06-3.93-.31-.71-.14-1.42-.2-2.12-.41l.1-.41c.06,0,.12-.05.17-.16.09-.18.35-.28.35-.45.01-.2-.27-.26-.41-.4-.23-.25-.39-.52-.5-.84-.08-.24-.14-.47.15-.63.11-.06.15-.19.12-.31-.03-.13-.14-.19-.26-.2-.35-.01-.31-.18-.14-.37.45-.53.63-1.12.5-1.82-.08-.41-.06-.84-.09-1.26-.03-.5.18-.84.62-1.08.52-.3,1.08-.42,1.66-.53.06-.02.15-.02.2.01.76.39,1.58.68,2.1,1.42.16.23.2.36-.06.53-.99.67-1.87,1.48-2.75,2.28l-.03.03c-.09.12-.32.23-.19.39.14.16.29-.03.43-.11,1.02-.62,1.85-1.5,2.86-2.14.2-.12.33-.15.52,0Z"/><path class="cls-4" d="m35.12,62.87c.11-.3.36-.22.56-.1.3.2.59.43.89.63.16.12.35.25.52.03.15-.18.07-.37-.07-.54-.1-.13-.25-.19-.39-.28-.4-.27-.91-.39-1.12-.9-.02-.06-.09-.06-.15-.06-.38.02-.68-.13-.9-.44-.02-.04-.06-.07-.1-.09-1.11-.54-1.14-1.62-1.34-2.62-.05-.28-.05-.58-.07-.87-.06-.63.13-.93.76-1.05.49-.09,1-.1,1.5-.13.41-.02.81-.07,1.22-.06,1.22.03,2.17.67,3.12,1.32.29.2.29.29-.04.45-.76.39-1.03,1.03-1.06,1.84-.01.59-.01,1.19.02,1.78.01.2.02.4-.14.57-.57.6-.47,1.28-.2,1.96.1.23.22.46.3.71.11.35.29.66.58.89.14.12.24.26.32.41.06.1.12.16.19.16l-.1.41h-.01c-.53-.15-1.02-.34-1.26-.9-.08-.17-.22-.19-.38-.12-.13.06-.26.1-.39.16-.16.07-.3.04-.43-.06-.13-.12-.03-.23.02-.35.09-.22-.01-.31-.23-.26-.06.01-.11.03-.17.05-.34.12-.38.09-.38-.27.02-.11.03-.23-.06-.3-.34-.33-.51-.79-.87-1.1-.28-.25-.25-.57-.14-.87Z"/><path class="cls-8" d="m32.53,60.85c-.02.06-.02.13.05.15.07.03.12-.02.13-.08.09-.3.21-.15.34-.03.26.23.51.47.79.69.15.12.18.21.13.41-.27.96-.03,1.79.69,2.49.16.15.48.29.41.5-.05.13-.4-.03-.62-.06-.48-.05-.93-.23-1.4-.33-.31-.07-.51-.3-.72-.53-.63-.68-1.08-1.49-1.51-2.31-.25-.49-.45-1-.56-1.54-.03-.12-.05-.25-.06-.35.05-.76.27-1.43.69-2.02.18-.26.44-.42.74-.51.18-.06.36-.03.36.19,0,.96.29,1.86.52,2.78.05.18.08.37.02.55Z"/><path class="cls-4" d="m55.09,6.74c-1.23,1.13-2.44,2.3-3.73,3.35-1.34,1.1-2.74,2.12-4.3,2.9-.26.13-.55.21-.82.31-1.13.41-2.13,1.04-2.95,1.91-.77.8-1.67.74-2.6.49-.68-.18-1.34-.42-2.02-.61-.27-.09-.58-.2-.73.2-.04.1-.16.08-.25.1-.35.06-.7.08-1.05.04-.66-.08-1.31-.06-1.96-.01-.42.04-.82.07-1.17.3-.11.07-.23.07-.34.07-.84.01-1.66.1-2.5.07-.25-.01-.48.05-.68.22-.19.17-.45.16-.7.2-.77.1-1.55.21-2.31.42-.26.07-.51.17-.74.3-.09.04-.21.1-.19.19.08.4-.23.39-.47.45-1.14.32-2.25.69-3.29,1.28-1.67.93-3.36,1.83-5.11,2.62-.31.14-.59.32-.65.71-.02.1-.1.21-.22.17-.14-.04-.11-.18-.06-.27.28-.5.57-.99.85-1.49.08-.13.21-.1.32-.05.28.13.45.02.6-.23.38-.65.83-1.25,1.29-1.84.29-.36.56-.75,1.07-.86.19-.05.3-.26.43-.41.39-.45.79-.92,1.19-1.38.16-.18.34-.31.61-.23.17.04.3-.04.42-.14.65-.57,1.3-1.14,2.07-1.55.09-.04.17-.14.25-.1.28.15.45-.03.65-.17.44-.28.81-.64,1.2-.98.15-.14.29-.2.49-.09.32.18.6.1.91-.09.64-.39,1.19-.92,1.85-1.27.19-.1.38-.21.58-.24.73-.12,1.32-.54,1.96-.83.69-.31,1.4-.58,2.09-.91.03,0,.07-.03.1-.03.82.06,1.46-.42,2.14-.73.56-.26,1.1-.48,1.74-.44.43.02.87-.09,1.26-.28,1.03-.51,2.12-.82,3.22-1.07,1.22-.27,2.42-.63,3.65-.9,1.45-.31,2.89-.67,4.35-.94,1.2-.22,2.41-.45,3.61-.65l.37,2.23c-.16.04-.29.14-.43.26Z"/><path class="cls-4" d="m7.46,40.6c.33-.27.71-.49,1.06-.75.19-.13.32-.09.44.09.13.19.28.37.39.58.39.72.89,1.36,1.45,1.97.4.44.96.57,1.39.93.55.46,1.05.96,1.35,1.63.15.34.39.61.64.87.29.29.63.53.77.94.06.14.21.18.34.24.47.24.83.52.86,1.15.02.56.34,1.04.88,1.3.25.12.34.27.21.53-.22.41-.06.82.02,1.23.02.14.14.18.27.18.11,0,.23-.02.35-.02.09,0,.19.02.24.11.06.1-.03.17-.09.24q-.27.31.11.49c.19.1.38.23.56.35.07.05.16.1.14.19-.02.11-.15.08-.23.1-.03.02-.07,0-.11.02-.1.02-.26-.05-.29.11s.12.21.24.26c.22.09.45.13.69.07.17-.05.35-.04.42.13.06.16-.13.19-.22.27-.18.15-.47.26-.42.52s.37.23.58.3c.19.06.39.07.59.06.22,0,.42-.02.49.27.02.12.17.15.29.15.4.03.74.22,1.07.42.16.1.31.21.3.44,0,.11.06.23.17.23.39,0,.81.19,1.17,0,.41-.21.78-.16,1.15-.01,1.17.48,2.38.52,3.61.31.39-.07.77-.09,1.16-.06.68.05,1.35-.09,2.02-.15l.02.16c-.36.02-.68.2-.97.42-.7.5-1.08,1.2-1.25,2.04-.1.55-.06,1.06.15,1.58.22.55.34,1.14.66,1.65.1.16.06.22-.12.26-.46.09-.93.07-1.36-.07-1.07-.34-2.12-.13-3.19-.02-2.37.25-4.73.38-7.11.17-1.27-.12-2.54-.26-3.79-.47-1.58-.26-3.17-.47-4.67-1.06-1.66-.65-3.28-1.39-4.87-2.17-.81-.39-1.52-.99-2-1.73-.38-.59-.78-1.18-.96-1.92-.2-.82-.33-1.64-.37-2.47-.03-.39.06-.77.14-1.15.32-1.43.67-2.86,1.2-4.24.98-2.55,2.3-4.88,4.43-6.67Z"/><path class="cls-4" d="m52.46,60.47c.66-.89,1.37-1.75,2.19-2.5.14-.12.38-.24.25-.43-.12-.18-.37-.09-.54,0-.52.28-.92.69-1.29,1.13-.5.58-1,1.18-1.48,1.78-.18.22-.37.28-.64.2-.47-.13-.95-.19-1.39-.36-.46-.19-.45-.21-.1-.53,1.11-.97,2.36-1.76,3.52-2.67.15-.12.4-.23.24-.47s-.4-.14-.59-.01c-1.15.72-2.29,1.46-3.32,2.34-.3.26-.62.51-.92.77-.15.14-.32.18-.51.11-.46-.19-.92-.37-1.37-.56-.18-.07-.11-.17,0-.25.17-.13.36-.26.54-.39,1.53-1.04,3.16-1.91,4.77-2.82.22-.13.45-.25.63-.44.09-.09.2-.19.1-.33-.09-.12-.23-.11-.35-.06-.36.16-.73.32-1.08.5-1.73.88-3.33,1.96-4.83,3.18-.31.26-.62.33-1,.19-.47-.17-.91-.38-1.29-.7-.22-.18-.42-.25-.64-.02-.14.14-.31.11-.45.01-.63-.41-1.31-.61-2.06-.55-.28.02-.49-.16-.71-.29-.53-.32-1.03-.69-1.58-.97-1.39-.7-2.84-.87-4.37-.67-.55.06-1.06.27-1.62.27-.21-.01-.31.15-.36.33-.05.16-.14.24-.31.21-.13-.03-.25-.04-.36-.02l-.02-.16c.19-.02.31-.1.3-.31,0-.22-.13-.28-.31-.28-1.18.03-2.36-.01-3.54.11-1.12.12-2.25.09-3.32-.37-.46-.2-1-.11-1.44-.38-.15-.09-.32-.14-.42-.31-.07-.12-.19-.18-.32-.16-.3.06-.46-.1-.66-.3-.29-.3-.53-.73-1.08-.65-.13.02-.14-.1-.14-.19-.04-.5-.29-.82-.78-.97-.22-.07-.42-.19-.62-.31-.18-.11-.3-.27-.29-.49.03-.43-.18-.7-.56-.83-.3-.11-.34-.29-.29-.57.14-.73-.06-1.09-.74-1.38-.22-.1-.32-.26-.31-.5.05-.75-.28-1.29-.9-1.7-.9-.61-1.6-1.43-2.36-2.19-.37-.36-.79-.65-1.14-1.03-.86-.93-1.64-1.91-2.35-2.96-1.23-1.85-2.23-3.81-3.26-5.77-.39-.74-.76-1.51-.9-2.34-.13-.73-.21-1.46-.19-2.2,0-.49.2-.62.67-.47.8.27,1.55.65,2.28,1.08,1.09.64,2.28,1.02,3.5,1.31.21.04.42.05.63.04,1.13-.06,2.25.06,3.35.28.9.19,1.8.4,2.65.77.38.16.78.27,1.17.38,1.08.29,2.01.88,2.94,1.47.54.35,1.1.66,1.71.89.37.14.73.3,1.07.51.16.1.33.17.46-.03.14-.22-.01-.35-.18-.45-.2-.12-.41-.23-.62-.32-1.28-.54-2.4-1.36-3.63-1.99-.45-.23-.9-.45-1.38-.62-1.71-.6-3.39-1.33-5.25-1.45-.52-.03-1.08-.09-1.57-.33-.01-.01-.02-.01-.03-.01-.75.12-.82-.48-1.03-.97.23-.05.4.06.58.07.36,0,.76-.26.57-.7-.14-.29.07-.26.24-.19.3.13.44.08.37-.28-.03-.18.09-.37.02-.62-.09.42-.41.51-.68.67-.08.05-.16.03-.21-.05-.07-.09-.17-.18-.14-.31.03-.09.13-.07.21-.08q.49-.06.39-.54c-.04-.2-.04-.4-.09-.59-.1-.39-.09-.71.35-.89.07-.03.16-.14.17-.21.04-.42.36-.7.5-1.07.11-.3.39-.45.63-.64.2-.15.4-.29.59-.44s.36-.29.62-.11c.15.11.55-.13.6-.31.02-.08,0-.17-.06-.18-.4-.06-.24-.45-.39-.65-.09-.1.02-.19.12-.24.5-.26.99-.53,1.49-.79.11-.05.23-.08.23-.22,0-.33.21-.44.45-.55.7-.31,1.39-.63,2.17-.64.19,0,.28-.09.23-.27-.07-.27.08-.35.29-.46.66-.36,1.33-.69,2.07-.84.12-.03.25-.08.35-.15,1.05-.75,2.26-.91,3.49-.95.16-.01.31,0,.46-.01.14-.01.29-.05.33-.21.03-.18-.09-.28-.22-.37-.21-.12-.46-.08-.73-.19.2-.12.38-.17.57-.19.77-.1,1.53-.18,2.3-.28.32-.04.63.06.94.06.13,0,.3.03.35-.1.12-.3.35-.26.58-.27.38-.02.75-.04,1.13-.06.33-.02.64,0,.96.14.34.15.48.05.48-.32-.01-.21.1-.23.25-.23,1.07,0,2.13-.06,3.19.1.17.03.32.03.4-.13.11-.21.26-.2.44-.15.29.1.6.15.87.28.61.26,1.23.36,1.89.32.08,0,.17,0,.24.03.57.29.98-.01,1.39-.35.51-.42.97-.9,1.54-1.27.52-.34,1.07-.61,1.65-.83,1.2-.43,2.27-1.09,3.32-1.81,1.76-1.21,3.29-2.69,4.91-4.08.04-.04.08-.08.13-.11.07-.06.15-.15.25-.08.07.05.05.15.04.23-.23,1.37-.54,2.7-1.11,3.99-.52,1.18-1.3,2.11-2.14,3.05-.9,1.01-1.98,1.88-2.64,3.12-.51.95-1.02,1.89-1.39,2.9-.19.51-.4,1-.65,1.48-.07.14-.14.29-.16.46-.01.18-.01.35.2.44s.41.1.58-.08c.18-.19.28-.43.38-.67.43-1.08.79-2.19,1.34-3.23.47-.91,1.05-1.73,1.74-2.49.41-.45.83-.89,1.25-1.33s.84-.88,1.25-1.33c.08-.1.15-.21.23-.31.08-.11.12-.3.3-.23.19.07.25.24.21.43-.06.34-.14.66-.2,1-.13.76-.21,1.52-.42,2.26-.09.28.09.49.36.54.37.07.39.24.25.53-.07.14-.09.31-.12.47-.04.18.02.35.19.41.25.08.26.23.21.44-.07.27-.09.55-.08.83.02.3.15.49.47.49.25-.01.41.09.51.33.06.14.17.28.32.31.35.06.37.27.31.56-.02.15-.01.3,0,.45.04.45.36.7.78.56.34-.11.34.04.33.29,0,.42.02.82.47,1.05.15.08.3.15.46.13.27-.02.36.08.34.34-.05.55.2.91.7,1.13.11.04.24.11.25.22.02.38.26.58.53.78.16.12.17.33.2.51.08.46.26.65.72.72.06,0,.13-.01.17.02.22.17.23.49.47.64.25.17.29.4.23.68-.04.18-.02.37-.04.56-.04.34.06.59.39.73.17.06.27.19.31.36.08.38.32.62.66.77.21.1.27.22.18.44-.05.13-.08.27-.09.41-.02.33.04.64.38.79.27.12.32.33.26.58-.09.39-.12.76.23,1.07.13.11.06.28.02.43-.09.38-.23.78.19,1.08.09.07.06.19.02.3-.08.24-.16.49-.25.73-.08.22-.08.45.11.58.46.32.39.78.3,1.2-.13.61-.16,1.26-.48,1.82-.07.12-.08.26-.04.38.13.35.05.68-.14.97-.36.55-.37,1.19-.52,1.8-.02.09-.01.17.07.21.25.13.23.36.22.58,0,.28.05.54.14.79.1.29.03.47-.24.63-.66.42-1.29.9-1.86,1.44-.13.13-.27.26-.38.41-.11.13-.35.3-.2.45.16.17.41.03.57-.11.55-.47,1.07-.98,1.65-1.41.17-.13.34-.26.53-.34.09-.04.19-.09.26.01.06.08.04.19-.02.27-.07.09-.15.18-.25.23-.51.26-.89.68-1.32,1.04-.07.05-.18.11-.1.22.07.09.16.02.22-.01.41-.21.81-.44,1.22-.64.13-.06.3-.31.46-.01.18.32.14.67-.1.8-.28.16-.58.3-.87.45-.11.07-.22.14-.32.22-.08.06-.15.15-.1.27.06.12.16.17.29.15.31-.03.58-.16.84-.33.09-.05.18-.14.29-.07.1.07.07.19.07.29-.01.5-.09.59-.56.74-.31.1-.62.17-.86.39-.09.07-.2.15-.14.29.06.12.18.08.28.07.24-.04.47-.06.7-.11.16-.02.26.01.23.2-.13.86-.23,1.74-.55,2.56-.18.48-.71.66-1.14.87-.19.09-.4.14-.61.19-.45.11-.57.02-.61-.43,0-.1-.02-.2,0-.28.21-.79.11-1.58.03-2.37-.02-.17.04-.25.17-.34.47-.32.44-.82.41-1.29-.01-.41-.36-.53-.69-.64-.74-.25-1.43-.05-2.11.22-1.21.48-2.36,1.07-3.44,1.81-.42.29-.76.65-1.04,1.08-.01.01-.02.03-.03.06-.06.1-.12.27-.02.31.42.16.04.92.7.89.3-.02.6.08.84.24.45.3.91.27,1.36.07.39-.18.67-.08.97.18.34.29.69.56,1.02.87.15.14.15.27.09.46-.31.91-1.02,1.45-1.77,1.96-.7.48-1.47.83-2.23,1.2-.06.02-.13.07-.19.01-.07-.07-.05-.15,0-.23.08-.17.17-.33.25-.5.1-.23.22-.44.3-.67.07-.18.13-.4-.08-.5s-.37.09-.44.25c-.24.5-.47,1-.67,1.51-.09.24-.22.38-.47.46-.64.2-1.27.42-1.93.55-.08,0-.18.1-.25-.01-.05-.08.03-.16.08-.22Z"/><path class="cls-2" d="m65.78,48.11c-.16.09-.17.21-.1.35.11.19.08.49.39.52.06-.02.12-.03.17-.05.92-.43,1.88-.74,2.84-1,.82-.21,1.26-.68,1.44-1.46.03-.11.13-.24.04-.32-.09-.11-.21,0-.31.04-1.3.51-2.6,1.01-3.86,1.58-.21.1-.4.23-.61.34Zm.83,1.36c-.48.15-.73.45-.81.93-.02.09-.08.19,0,.27.08.09.18.02.26-.01.37-.15.75-.28,1.1-.45.84-.4,1.57-.95,2.22-1.61-.01-.03-.03-.07-.04-.1-.16.05-.33.08-.49.14-.75.28-1.48.58-2.24.83Zm-1.17-2.51c-.15.1-.21.21-.16.38.05.13.15.17.33.16.05-.02.15-.05.24-.1,1.47-.77,3.02-1.38,4.6-1.87.28-.09.42-.24.45-.51.03-.42.14-.83.24-1.23.03-.11.11-.24-.02-.32-.1-.06-.19.06-.27.12-.86.67-1.82,1.18-2.73,1.76-.88.56-1.78,1.08-2.68,1.61Zm-34.55,10.88c-.42.59-.64,1.26-.69,2.02.01.1.03.23.06.35.11.54.31,1.05.56,1.54.43.82.88,1.63,1.51,2.31.21.23.41.46.72.53.47.1.92.28,1.4.33.22.03.57.19.62.06.07-.21-.25-.35-.41-.5-.72-.7-.96-1.53-.69-2.49.05-.2.02-.29-.13-.41-.28-.22-.53-.46-.79-.69-.13-.12-.25-.27-.34.03-.01.06-.06.11-.13.08-.07-.02-.07-.09-.05-.15.06-.18.03-.37-.02-.55-.23-.92-.51-1.82-.52-2.78,0-.22-.18-.25-.36-.19-.3.09-.56.25-.74.51Zm14.81,3.04c-.32.27-.64.18-.93-.04-.19-.15-.32-.12-.52,0-1.01.64-1.84,1.52-2.86,2.14-.14.08-.29.27-.43.11-.13-.16.1-.27.19-.39l.03-.03c.88-.8,1.76-1.61,2.75-2.28.26-.17.22-.3.06-.53-.52-.74-1.34-1.03-2.1-1.42-.05-.03-.14-.03-.2-.01-.58.11-1.14.23-1.66.53-.44.24-.65.58-.62,1.08.03.42.01.85.09,1.26.13.7-.05,1.29-.5,1.82-.17.19-.21.36.14.37.12.01.23.07.26.2.03.12-.01.25-.12.31-.29.16-.23.39-.15.63.11.32.27.59.5.84.14.14.42.2.41.4,0,.17-.26.27-.35.45-.05.11-.11.16-.17.16-.07,0-.13-.06-.19-.16-.08-.15-.18-.29-.32-.41-.29-.23-.47-.54-.58-.89-.08-.25-.2-.48-.3-.71-.27-.68-.37-1.36.2-1.96.16-.17.15-.37.14-.57-.03-.59-.03-1.19-.02-1.78.03-.81.3-1.45,1.06-1.84.33-.16.33-.25.04-.45-.95-.65-1.9-1.29-3.12-1.32-.41-.01-.81.04-1.22.06-.5.03-1.01.04-1.5.13-.63.12-.82.42-.76,1.05.02.29.02.59.07.87.2,1,.23,2.08,1.34,2.62.04.02.08.05.1.09.22.31.52.46.9.44.06,0,.13,0,.15.06.21.51.72.63,1.12.9.14.09.29.15.39.28.14.17.22.36.07.54-.17.22-.36.09-.52-.03-.3-.2-.59-.43-.89-.63-.2-.12-.45-.2-.56.1s-.14.62.14.87c.36.31.53.77.87,1.1.09.07.08.19.06.3,0,.36.04.39.38.27.06-.02.11-.04.17-.05.22-.05.32.04.23.26-.05.12-.15.23-.02.35.13.1.27.13.43.06.13-.06.26-.1.39-.16.16-.07.3-.05.38.12.24.56.73.75,1.26.9h.01c.7.21,1.41.27,2.12.41,1.3.25,2.61.42,3.93.31.3-.02.6-.09.9-.06.29.02.51-.12.66-.38.42-.7.83-1.41,1.28-2.09.61-.96,1.23-1.91,1.91-2.81.2-.26.16-.34-.15-.43-.17-.05-.33-.05-.46.08-.2.21-.4.33-.64.05-.05-.06-.15-.08-.22-.02-.09.07-.05.15,0,.22.05.08.22.15.1.25-.11.09-.16-.08-.23-.14-.07-.05-.13-.1-.18-.16-.36-.42-.95-.47-1.37-.11-.7.59-1.41,1.19-2.1,1.81-.71.63-1.51,1.13-2.21,1.78-.13.12-.29.41-.47.23-.18-.19.12-.34.25-.46,1.16-1.15,2.34-2.29,3.5-3.44.26-.25.24-.3-.1-.4-.1-.03-.21-.04-.23-.18-.01-.12.05-.19.15-.25.09-.05.21-.12.12-.24-.08-.11-.2-.04-.28.02Zm12.38-6.84c.38.05.75.16,1.11.3.19.06.3.15.27.38-.04.22.11.38.28.48.19.12.37,0,.51-.11s.26-.27.38-.41c.12-.16.16-.31-.01-.47-.13-.11-.14-.25-.12-.41.07-.58.2-1.13.49-1.63.16-.27.3-.56.44-.82,0-.17-.11-.23-.24-.23-.16,0-.33,0-.49.03-1.65.31-3.09,1.09-4.41,2.11-.14.11-.27.25-.4.38-.08.08-.12.17-.05.29.22.36,1.01.56,1.34.3.28-.21.58-.23.9-.19Zm-1.41,6.24c.12.15.27.14.41.12.91-.11,1.83-.2,2.68-.59.69-.32,1.42-.51,2.04-.99.31-.24.64-.44.91-.74.41-.45.61-1,.87-1.52.04-.08.15-.18.04-.28-.08-.07-.18.01-.26.05-.69.32-1.41.51-2.17.46-.3-.02-.43.12-.56.36-.2.37-.27.81-.64,1.11-1,.83-2.05,1.57-3.32,2.02Zm-2.02-2.31c-.82.75-1.53,1.61-2.19,2.5-.05.06-.13.14-.08.22.07.11.17.02.25.01.66-.13,1.29-.35,1.93-.55.25-.08.38-.22.47-.46.2-.51.43-1.01.67-1.51.07-.16.23-.35.44-.25s.15.32.08.5c-.08.23-.2.44-.3.67-.08.17-.17.33-.25.5-.04.08-.06.16,0,.23.06.06.13.01.19-.01.76-.37,1.53-.72,2.23-1.2.75-.51,1.46-1.05,1.77-1.96.06-.19.06-.32-.09-.46-.33-.31-.68-.58-1.02-.87-.3-.26-.58-.36-.97-.18-.45.2-.91.23-1.36-.07-.24-.16-.54-.26-.84-.24-.66.03-.28-.73-.7-.89-.1-.04-.04-.21.02-.31.01-.03.02-.05.03-.06.28-.43.62-.79,1.04-1.08,1.08-.74,2.23-1.33,3.44-1.81.68-.27,1.37-.47,2.11-.22.33.11.68.23.69.64.03.47.06.97-.41,1.29-.13.09-.19.17-.17.34.08.79.18,1.58-.03,2.37-.02.08,0,.18,0,.28.04.45.16.54.61.43.21-.05.42-.1.61-.19.43-.21.96-.39,1.14-.87.32-.82.42-1.7.55-2.56.03-.19-.07-.22-.23-.2-.23.05-.46.07-.7.11-.1.01-.22.05-.28-.07-.06-.14.05-.22.14-.29.24-.22.55-.29.86-.39.47-.15.55-.24.56-.74,0-.1.03-.22-.07-.29-.11-.07-.2.02-.29.07-.26.17-.53.3-.84.33-.13.02-.23-.03-.29-.15-.05-.12.02-.21.1-.27.1-.08.21-.15.32-.22.29-.15.59-.29.87-.45.24-.13.28-.48.1-.8-.16-.3-.33-.05-.46.01-.41.2-.81.43-1.22.64-.06.03-.15.1-.22.01-.08-.11.03-.17.1-.22.43-.36.81-.78,1.32-1.04.1-.05.18-.14.25-.23.06-.08.08-.19.02-.27-.07-.1-.17-.05-.26-.01-.19.08-.36.21-.53.34-.58.43-1.1.94-1.65,1.41-.16.14-.41.28-.57.11-.15-.15.09-.32.2-.45.11-.15.25-.28.38-.41.57-.54,1.2-1.02,1.86-1.44.27-.16.34-.34.24-.63-.09-.25-.15-.51-.14-.79.01-.22.03-.45-.22-.58-.08-.04-.09-.12-.07-.21.15-.61.16-1.25.52-1.8.19-.29.27-.62.14-.97-.04-.12-.03-.26.04-.38.32-.56.35-1.21.48-1.82.09-.42.16-.88-.3-1.2-.19-.13-.19-.36-.11-.58.09-.24.17-.49.25-.73.04-.11.07-.23-.02-.3-.42-.3-.28-.7-.19-1.08.04-.15.11-.32-.02-.43-.35-.31-.32-.68-.23-1.07.06-.25.01-.46-.26-.58-.34-.15-.4-.46-.38-.79.01-.14.04-.28.09-.41.09-.22.03-.34-.18-.44-.34-.15-.58-.39-.66-.77-.04-.17-.14-.3-.31-.36-.33-.14-.43-.39-.39-.73.02-.19,0-.38.04-.56.06-.28.02-.51-.23-.68-.24-.15-.25-.47-.47-.64-.04-.03-.11-.02-.17-.02-.46-.07-.64-.26-.72-.72-.03-.18-.04-.39-.2-.51-.27-.2-.51-.4-.53-.78-.01-.11-.14-.18-.25-.22-.5-.22-.75-.58-.7-1.13.02-.26-.07-.36-.34-.34-.16.02-.31-.05-.46-.13-.45-.23-.48-.63-.47-1.05.01-.25.01-.4-.33-.29-.42.14-.74-.11-.78-.56-.02-.15-.03-.3,0-.45.06-.29.04-.5-.31-.56-.15-.03-.26-.17-.32-.31-.1-.24-.26-.34-.51-.33-.32,0-.45-.19-.47-.49-.01-.28.01-.56.08-.83.05-.21.04-.36-.21-.44-.17-.06-.23-.23-.19-.41.03-.16.05-.33.12-.47.14-.29.12-.46-.25-.53-.27-.05-.45-.26-.36-.54.21-.74.29-1.5.42-2.26.06-.34.14-.66.2-1,.04-.19-.02-.36-.21-.43-.18-.07-.22.12-.3.23-.08.1-.15.21-.23.31-.41.45-.83.89-1.25,1.33s-.84.88-1.25,1.33c-.69.76-1.27,1.58-1.74,2.49-.55,1.04-.91,2.15-1.34,3.23-.1.24-.2.48-.38.67-.17.18-.37.17-.58.08s-.21-.26-.2-.44c.02-.17.09-.32.16-.46.25-.48.46-.97.65-1.48.37-1.01.88-1.95,1.39-2.9.66-1.24,1.74-2.11,2.64-3.12.84-.94,1.62-1.87,2.14-3.05.57-1.29.88-2.62,1.11-3.99.01-.08.03-.18-.04-.23-.1-.07-.18.02-.25.08-.05.03-.09.07-.13.11-1.62,1.39-3.15,2.87-4.91,4.08-1.05.72-2.12,1.38-3.32,1.81-.58.22-1.13.49-1.65.83-.57.37-1.03.85-1.54,1.27-.41.34-.82.64-1.39.35-.07-.03-.16-.03-.24-.03-.66.04-1.28-.06-1.89-.32-.27-.13-.58-.18-.87-.28-.18-.05-.33-.06-.44.15-.08.16-.23.16-.4.13-1.06-.16-2.12-.1-3.19-.1-.15,0-.26.02-.25.23,0,.37-.14.47-.48.32-.32-.13-.63-.16-.96-.14-.38.02-.75.04-1.13.06-.23.01-.46-.03-.58.27-.05.13-.22.1-.35.1-.31,0-.62-.1-.94-.06-.77.1-1.53.18-2.3.28-.19.02-.37.07-.57.19.27.11.52.07.73.19.13.09.25.19.22.37-.04.16-.19.2-.33.21-.15.01-.3,0-.46.01-1.23.04-2.44.2-3.49.95-.1.07-.23.12-.35.15-.74.15-1.41.48-2.07.84-.21.11-.36.19-.29.46.05.18-.04.27-.23.27-.78.01-1.47.33-2.17.64-.24.11-.46.22-.45.55,0,.14-.12.17-.23.22-.5.26-.99.53-1.49.79-.1.05-.21.14-.12.24.15.2,0,.59.39.65.05,0,.08.1.06.18-.05.18-.45.42-.6.31-.26-.18-.43-.04-.62.11s-.39.29-.59.44c-.24.19-.52.34-.63.64-.14.37-.46.65-.5,1.07-.01.07-.1.18-.17.21-.44.18-.45.5-.35.89.05.19.05.39.09.59q.1.48-.39.54c-.08.01-.18-.01-.21.08-.03.13.07.22.14.31.05.08.13.1.21.05.27-.16.59-.25.68-.67.07.25-.05.44-.02.62.07.36-.07.41-.37.28-.17-.07-.38-.1-.24.19.19.44-.21.71-.57.7-.18-.01-.35-.12-.58-.07.21.49.28,1.09,1.03.97,0,0,.02,0,.03.01.49.24,1.05.3,1.57.33,1.86.12,3.54.85,5.25,1.45.48.17.93.39,1.38.62,1.23.63,2.35,1.45,3.63,1.99.21.09.42.2.62.32.17.1.32.23.18.45-.13.2-.3.13-.46.03-.34-.21-.7-.37-1.07-.51-.61-.23-1.17-.54-1.71-.89-.93-.59-1.86-1.18-2.94-1.47-.39-.11-.79-.22-1.17-.38-.85-.37-1.75-.58-2.65-.77-1.1-.22-2.22-.34-3.35-.28-.21.01-.42,0-.63-.04-1.22-.29-2.41-.67-3.5-1.31-.73-.43-1.48-.81-2.28-1.08-.47-.15-.66-.02-.67.47-.02.74.06,1.47.19,2.2.14.83.51,1.6.9,2.34,1.03,1.96,2.03,3.92,3.26,5.77.71,1.05,1.49,2.03,2.35,2.96.35.38.77.67,1.14,1.03.76.76,1.46,1.58,2.36,2.19.62.41.95.95.9,1.7,0,.24.09.4.31.5.68.29.88.65.74,1.38-.05.28-.01.46.29.57.38.13.59.4.56.83-.01.22.11.38.29.49.2.12.4.24.62.31.49.15.74.47.78.97,0,.09.01.21.14.19.55-.08.79.35,1.08.65.2.2.36.36.66.3.13-.02.25.04.32.16.1.17.27.22.42.31.44.27.98.18,1.44.38,1.07.46,2.2.49,3.32.37,1.18-.12,2.36-.08,3.54-.11.18,0,.31.06.31.28.01.21-.11.29-.3.31-.67.06-1.34.2-2.02.15-.39-.03-.77-.01-1.16.06-1.23.21-2.44.17-3.61-.31-.37-.15-.74-.2-1.15.01-.36.19-.78,0-1.17,0-.11,0-.17-.12-.17-.23,0-.23-.14-.34-.3-.44-.33-.2-.67-.39-1.07-.42-.12,0-.27-.03-.29-.15-.07-.29-.27-.27-.49-.27-.2.01-.4,0-.59-.06-.21-.07-.53-.04-.58-.3s.24-.37.42-.52c.09-.08.28-.11.22-.27-.07-.17-.25-.18-.42-.13-.24.06-.47.02-.69-.07-.12-.05-.27-.1-.24-.26s.19-.09.29-.11c.04-.01.08,0,.11-.02.08-.02.21,0,.23-.1.02-.09-.07-.14-.14-.19-.18-.12-.37-.25-.56-.35q-.38-.18-.11-.49c.06-.07.15-.14.09-.24-.05-.09-.15-.11-.24-.11-.12,0-.24.02-.35.02-.13,0-.25-.04-.27-.18-.08-.41-.24-.82-.02-1.23.13-.26.04-.41-.21-.53-.54-.26-.86-.74-.88-1.3-.03-.63-.39-.91-.86-1.15-.13-.06-.28-.1-.34-.24-.14-.41-.48-.65-.77-.94-.25-.26-.49-.53-.64-.87-.3-.67-.8-1.17-1.35-1.63-.43-.36-.99-.49-1.39-.93-.56-.61-1.06-1.25-1.45-1.97-.11-.21-.26-.39-.39-.58-.12-.18-.25-.22-.44-.09-.35.26-.73.48-1.06.75-2.13,1.79-3.45,4.12-4.43,6.67-.53,1.38-.88,2.81-1.2,4.24-.08.38-.17.76-.14,1.15.04.83.17,1.65.37,2.47.18.74.58,1.33.96,1.92.48.74,1.19,1.34,2,1.73,1.59.78,3.21,1.52,4.87,2.17,1.5.59,3.09.8,4.67,1.06,1.25.21,2.52.35,3.79.47,2.38.21,4.74.08,7.11-.17,1.07-.11,2.12-.32,3.19.02.43.14.9.16,1.36.07.18-.04.22-.1.12-.26-.32-.51-.44-1.1-.66-1.65-.21-.52-.25-1.03-.15-1.58.17-.84.55-1.54,1.25-2.04.29-.22.61-.4.97-.42.11-.02.23-.01.36.02.17.03.26-.05.31-.21.05-.18.15-.34.36-.33.56,0,1.07-.21,1.62-.27,1.53-.2,2.98-.03,4.37.67.55.28,1.05.65,1.58.97.22.13.43.31.71.29.75-.06,1.43.14,2.06.55.14.1.31.13.45-.01.22-.23.42-.16.64.02.38.32.82.53,1.29.7.38.14.69.07,1-.19,1.5-1.22,3.1-2.3,4.83-3.18.35-.18.72-.34,1.08-.5.12-.05.26-.06.35.06.1.14-.01.24-.1.33-.18.19-.41.31-.63.44-1.61.91-3.24,1.78-4.77,2.82-.18.13-.37.26-.54.39-.11.08-.18.18,0,.25.45.19.91.37,1.37.56.19.07.36.03.51-.11.3-.26.62-.51.92-.77,1.03-.88,2.17-1.62,3.32-2.34.19-.13.43-.23.59.01s-.09.35-.24.47c-1.16.91-2.41,1.7-3.52,2.67-.35.32-.36.34.1.53.44.17.92.23,1.39.36.27.08.46.02.64-.2.48-.6.98-1.2,1.48-1.78.37-.44.77-.85,1.29-1.13.17-.09.42-.18.54,0,.13.19-.11.31-.25.43Zm68.82,2.04c-2,.43-4.04.42-6.07.54-2.31.13-4.6-.2-6.9-.12-.84.03-1.66-.26-2.48-.36-1.57-.2-3.13-.45-4.7-.58-1.28-.1-2.57.03-3.86.13-1.43.12-2.87.21-4.28.48-1.23.23-2.47.4-3.69.68-1.44.33-2.85.75-4.25,1.2-2.36.76-4.46,2.06-6.39,3.58-2.17,1.71-4.08,3.69-5.77,5.87-.6.77-1.1,1.62-1.64,2.44-.34.53-.57,1.12-.92,1.64-.03.04-.07.09-.06.12.17.58-.25,1.04-.33,1.57-.23,1.39-.55,2.77-.95,4.13-.18.61-.43,1.18-.81,1.7-.33.45-.75.53-1.24.22-.74-.49-1.17-1.22-1.44-2.02-.61-1.81-1.05-3.66-1.3-5.56-.11-.83-.27-1.66-.18-2.51.2-1.9.53-3.79,1.18-5.6.32-.92.31-.77-.56-.71-.69.05-1.37.26-2.08.3-.39.03-.8-.02-1.18.12-.79.29-1.6.1-2.39.15-.08.01-.18-.03-.24.01-.61.31-1.25.09-1.88.15-1.62.16-3.24.26-4.86.4-1.45.13-2.9.36-4.37.34-.37-.01-.75.03-1.12.07-.46.05-.93.07-1.4,0-.33-.05-.57.02-.73.37-.22.45-.54.84-.74,1.31-.05.1-.1.26-.24.21-.16-.06-.09-.22-.06-.34.13-.45.33-.87.53-1.3.09-.19.05-.28-.18-.25-.95.14-1.88.04-2.82-.1-.84-.12-1.68-.18-2.52-.26-.27-.03-.51-.13-.77-.21-.56-.18-1.12-.38-1.67-.6-.53-.22-1.03-.48-1.53-.77-.84-.51-1.68-1.02-2.74-1.04-.89-.02-1.66-.43-2.36-.97-.15-.12-.24-.28-.33-.45-.16-.33-.38-.56-.81-.53-.3.02-.55-.25-.86-.28-1.54-.12-3.06-.26-4.61-.05-1.73.22-3.46.43-5.21.27-2.82-.25-5.63-.58-8.4-1.19-1.08-.24-2.08-.7-3.1-1.12-1.37-.57-2.75-1.12-4.02-1.9-1.43-.88-2.56-2.02-3.16-3.63-.54-1.42-.57-2.86-.37-4.32.09-.67.19-1.35.37-2s.47-1.26.7-1.9c.72-1.99,1.62-3.89,2.99-5.53.81-.96,1.6-1.95,2.71-2.62.22-.13.4-.15.61-.01.07.05.17.14.25.07.1-.1-.02-.19-.06-.28-.94-1.69-1.85-3.41-2.66-5.17-.69-1.51-.92-3.1-.59-4.76.06-.28.21-.36.47-.34.83.07,1.61.31,2.35.67.77.37,1.53.76,2.29,1.15.54.27,1.11.42,1.7.55.1.02.23.06.29-.03.08-.11-.05-.19-.1-.27-.13-.18-.27-.35-.38-.55-.21-.42,0-.75.46-.75h.21c.23.02.35.01.23-.29-.17-.42-.13-.85.25-1.18.13-.12.16-.26.13-.44-.11-.57-.05-1.07.41-1.51.31-.29.39-.76.45-1.16.09-.59.43-.99.82-1.38.13-.13.14-.18.03-.33-.32-.41-.09-1.12.4-1.29.21-.07.32-.22.43-.39.34-.55.64-1.12,1.02-1.64.21-.27.43-.5.8-.5.18,0,.26-.13.35-.25.36-.48.72-.96,1.08-1.43.34-.43.69-.84,1.23-1.07.33-.15.48-.53.74-.79s.53-.56.8-.83c.21-.22.46-.36.78-.32.14.02.25-.03.35-.12.59-.51,1.25-.91,1.88-1.35.17-.12.36-.22.58-.22.21-.01.37-.13.53-.25.46-.37.92-.72,1.38-1.09.26-.21.54-.27.83-.07.17.12.31.06.46-.03.49-.31.99-.62,1.48-.94.32-.22.66-.41,1.02-.54.08-.02.17-.08.23-.06.53.16.9-.19,1.3-.4.71-.39,1.39-.88,2.18-1.02,1.04-.17,1.9-.69,2.81-1.13.42-.21.85-.32,1.32-.3.44.02.86-.05,1.27-.22,1.38-.57,2.78-1.02,4.26-1.28,1.15-.21,2.27-.65,3.42-.9,1.83-.38,3.66-.83,5.5-1.1,2.25-.34,4.45-.89,6.72-1.09,1.1-.1,2.2-.31,3.31-.32.5,0,.95-.26,1.41-.43.3-.11.57-.18.82.12.13.15.3.09.46.03.43-.18.89-.28,1.34-.41.3-.09.56-.04.77.18.19.19.4.19.64.14.88-.22,1.76-.42,2.63-.62.2-.05.39-.07.59-.09.27-.03.52.04.68.27.13.19.28.21.49.16,1.22-.3,2.45-.6,3.7-.78.45-.06.86-.11,1.06.45.1.26.37.18.56.12.84-.24,1.7-.33,2.55-.47.98-.16,1.96-.34,2.95-.41.34-.02.63.04.82.35.11.18.28.14.44.12.63-.09,1.26-.14,1.89-.12.14,0,.31-.01.41.06.34.23.66.13,1.01.06.5-.09,1.01-.18,1.53-.2.35-.01.69.04,1.01.2.4.19.84.12,1.25.06,1.09-.16,2.17-.34,3.26-.51.34-.05.69.01.88.31.44.71,1.1.63,1.76.55.48-.05.96-.11,1.43-.2.39-.07.66.06.76.43.13.5.48.57.91.57.65,0,1.31-.04,1.96-.12.75-.1,1.35.07,1.69.8.23.46.64.56,1.08.58.76.03,1.52.16,2.28.15.67,0,.99.3,1.13.97.1.5.12.53.63.56.65.04,1.29.08,1.93.08.78,0,1.06.23,1.22.97.07.28.2.42.49.46.46.06.91.03,1.37.04.83.03,1.24.16,1.48,1.07.13.52.61.57,1.04.62.66.07,1.33.04,1.97.31.36.16.69.35.9.7.24.4.61.59,1.06.66.37.06.74.12,1.11.15.61.06.98.43,1,1.05,0,.63.05.69.64.92.66.25,1.36.34,2.04.49.5.11.98.24,1.34.64.21.23.4.49.39.8-.04.6.41.88.93,1,.39.09.78.16,1.16.29.82.28,1.08.89.69,1.68-.15.33-.11.45.25.57.48.15.99.18,1.48.27,1.07.2,1.35.77.8,1.72-.12.23-.05.31.15.39.3.13.61.23.94.28.1.02.21.04.31.06.85.21,1.03.47.85,1.32-.06.28.01.42.27.51.3.09.58.25.84.43.37.26.6.6.54,1.07-.04.31.1.48.34.66.55.4,1.07.83,1.61,1.25.31.24.52.55.69.91.41.81.86,1.61,1.39,2.35,1.14,1.62,1.9,3.4,2.29,5.34.55,2.72.47,5.46.34,8.2-.07,1.45-.57,2.81-.95,4.2-.4,1.43-1.14,2.67-2.03,3.85-.99,1.3-2.22,2.36-3.28,3.6-1.23,1.43-2.73,2.57-4.49,3.29-1.21.5-2.46.9-3.7,1.32-1.14.38-2.28.62-3.57.52.25.22.23.31-.02.34-.14.02-.29.07-.44.11-.06.01-.12.01-.15-.05-.02-.07.04-.1.09-.14.08-.06.24-.01.29-.18-.17-.09-.35-.07-.42.09-.32.63-.95.57-1.49.68Zm15.71-9.17c1.41-1.49,2.46-3.2,2.93-5.23.08-.33.16-.67.32-.96.4-.73.3-1.56.55-2.33.16-.48.06-1.04.08-1.57,0-.11-.01-.27.05-.33.24-.24.15-.46.03-.7-.04-.09-.06-.2-.07-.3-.05-.77-.12-1.54-.13-2.31-.03-1.26-.14-2.49-.51-3.7-.39-1.29-.74-2.6-1.46-3.75-.61-.96-1.32-1.86-1.71-2.96-.04-.1-.12-.25-.25-.18-.26.13-.34-.06-.45-.19-.34-.41-.62-.87-1.09-1.14-.68-.38-.98-1.16-1.71-1.53.13-.08.22-.04.31-.03.15.02.31.02.35-.14s-.12-.21-.23-.27c-.07-.04-.15-.06-.22-.1-.6-.29-1.16-.67-1.78-.91-.12-.05-.27-.14-.2-.29.07-.12.22,0,.32.02.25.1.4.02.47-.24.12-.44.09-.49-.36-.58-.08-.01-.16-.03-.24-.04-.66-.08-1.26-.46-1.94-.45-.11,0-.23-.07-.27-.2-.03-.09.04-.18.11-.19.35-.07.38-.34.43-.62.02-.14.11-.28.18-.41.16-.29.11-.39-.22-.43-.45-.06-.9-.14-1.34-.24-.57-.12-1.05-.47-1.62-.58-.15-.03-.33-.17-.31-.33.03-.16.24-.08.37-.09.15,0,.27-.02.32-.2.07-.26.14-.52.22-.77.06-.2,0-.31-.21-.35-.32-.06-.64-.13-.96-.21-.88-.23-1.48-.74-1.6-1.69-.06-.41-.31-.64-.7-.74-.41-.11-.84-.19-1.26-.28-.59-.12-1.18-.21-1.72-.48-.52-.27-.8-.65-.76-1.26.02-.49-.01-.46-.48-.51-.96-.08-1.88-.22-2.51-1.1-.29-.41-.77-.55-1.27-.58-.5-.04-1-.1-1.5-.16-.67-.08-1.1-.46-1.23-1.12-.08-.38-.28-.48-.63-.48-.52,0-1.03.01-1.55-.06-.79-.11-1.05-.32-1.23-1.11-.05-.23-.18-.29-.39-.29-.72-.03-1.43.03-2.14-.07-.63-.09-1.14-.43-1.26-.87q-.18-.7-.94-.74c-.37-.02-.75-.01-1.12-.01-.35,0-.7-.06-1.04-.15-.48-.13-.92-.35-1.16-.79-.23-.41-.57-.54-.99-.53-.67.02-1.35.07-2.03.09-.6.02-1.23.03-1.54-.64-.14-.3-.34-.35-.62-.27-.61.15-1.23.18-1.85.19-.51.01-.92-.16-1.21-.58-.16-.23-.36-.29-.63-.28-.9.05-1.77.3-2.67.41-.87.09-1.75.22-2.58-.22-.14-.08-.29-.04-.44,0-.7.15-1.41.33-2.12.21-1.49-.25-2.93-.04-4.36.36-.32.09-.64.15-.97.14-.16,0-.35-.01-.37-.23-.02-.2.14-.24.29-.29.09-.02.25.01.22-.15-.02-.11-.16-.13-.26-.13-.07-.01-.15-.01-.21.01-1.08.31-2.21.38-3.3.65-.4.1-.82.17-1.25.16-.29,0-.6-.04-.73-.32-.16-.34-.39-.32-.69-.26-1,.19-1.99.45-2.97.71-.5.13-1,.21-1.37-.29-.11-.14-.26-.11-.42-.07-1.01.21-2.02.42-3.02.62-.27.06-.52.04-.74-.14-.2-.16-.42-.16-.66-.08-.5.16-1,.34-1.51.45-.62.13-1.23.53-1.89.11-.11-.07-.3-.03-.45-.01-1.69.23-3.38.44-5.08.66-.96.13-1.92.28-2.88.45-1.2.2-2.41.43-3.61.65-1.46.27-2.9.63-4.35.94-1.23.27-2.43.63-3.65.9-1.1.25-2.19.56-3.22,1.07-.39.19-.83.3-1.26.28-.64-.04-1.18.18-1.74.44-.68.31-1.32.79-2.14.73-.03,0-.07.02-.1.03-.69.33-1.4.6-2.09.91-.64.29-1.23.71-1.96.83-.2.03-.39.14-.58.24-.66.35-1.21.88-1.85,1.27-.31.19-.59.27-.91.09-.2-.11-.34-.05-.49.09-.39.34-.76.7-1.2.98-.2.14-.37.32-.65.17-.08-.04-.16.06-.25.1-.77.41-1.42.98-2.07,1.55-.12.1-.25.18-.42.14-.27-.08-.45.05-.61.23-.4.46-.8.93-1.19,1.38-.13.15-.24.36-.43.41-.51.11-.78.5-1.07.86-.46.59-.91,1.19-1.29,1.84-.15.25-.32.36-.6.23-.11-.05-.24-.08-.32.05-.28.5-.57.99-.85,1.49-.05.09-.08.23.06.27.12.04.2-.07.22-.17.06-.39.34-.57.65-.71,1.75-.79,3.44-1.69,5.11-2.62,1.04-.59,2.15-.96,3.29-1.28.24-.06.55-.05.47-.45-.02-.09.1-.15.19-.19.23-.13.48-.23.74-.3.76-.21,1.54-.32,2.31-.42.25-.04.51-.03.7-.2.2-.17.43-.23.68-.22.84.03,1.66-.06,2.5-.07.11,0,.23,0,.34-.07.35-.23.75-.26,1.17-.3.65-.05,1.3-.07,1.96.01.35.04.7.02,1.05-.04.09-.02.21,0,.25-.1.15-.4.46-.29.73-.2.68.19,1.34.43,2.02.61.93.25,1.83.31,2.6-.49.82-.87,1.82-1.5,2.95-1.91.27-.1.56-.18.82-.31,1.56-.78,2.96-1.8,4.3-2.9,1.29-1.05,2.5-2.22,3.73-3.35.14-.12.27-.22.43-.26.1-.02.21-.03.33,0,.51.12.73.5.6,1.12-.29,1.4-.64,2.79-.39,4.23.05.33-.01.62-.15.91-.09.19-.16.39-.11.61.1.4.06.79-.06,1.18-.18.58-.2,1.19-.24,1.8,0,.16,0,.32.19.36.4.06.42.34.39.66-.03.36-.11.71-.23,1.05-.04.14-.1.28,0,.4.23.3.27.64.27,1,0,.13,0,.29.16.31.29.04.4.25.5.48.08.16.2.28.36.36.48.24.56.41.5.92-.02.15-.03.3-.07.45-.03.16.03.23.18.27.72.17.92.39.89,1.1-.02.33.08.46.4.51.53.09.74.34.8.87,0,.12,0,.24,0,.35-.02.27.09.43.36.47.25.03.43.18.53.41.1.25.28.42.51.55.29.16.45.4.4.75,0,.11-.02.26.08.33.41.3.65.77,1.04,1.08.37.27.5.59.45,1.02-.08.71.63,1.04.8,1.64,0,.02.05.03.09.05.67.38.81.67.62,1.43-.05.24-.02.4.18.55.36.26.49.6.37,1.04-.05.19-.1.43.08.56.37.26.31.58.2.93-.08.24-.08.48.18.66.19.13.17.35.12.54-.04.21-.12.4-.19.6-.04.12-.06.23.06.32.27.21.31.51.29.82-.1,1.32-.29,2.62-.66,3.89-.25.89-.64,1.73-.39,2.72.18.72.09.75.74.35,1.75-1.07,3.46-2.19,5.31-3.09.2-.1.3-.24.32-.46.09-.76.2-1.51.21-2.27,0-.37,0-.75.15-1.1.1-.23.11-.42-.02-.66-.19-.35-.08-.65.25-.82.15-.08.19-.22.22-.35.2-.97.48-1.92.85-2.84.55-1.37.94-2.8,1.61-4.11,1.26-2.51,3.05-4.61,5.24-6.37,1-.8,2.14-1.33,3.26-1.93,2.18-1.16,4.56-1.73,6.96-2.2.96-.18,1.94-.04,2.91-.13.59-.05,1.19-.01,1.79-.01.23,0,.45.03.65.11.24.1.43.28.39.53-.05.27-.33.18-.5.16-1.35-.18-2.69.14-4.03.09-.27-.01-.54.04-.8.08-2.33.4-4.59.97-6.74,1.99-2.41,1.15-4.45,2.71-6.09,4.8-1.05,1.33-2.01,2.72-2.61,4.33-.46,1.24-.87,2.5-1.3,3.75-.19.55-.35,1.11-.46,1.68-.2,1.11-.47,2.19-.66,3.3-.24,1.4-.31,2.83-.72,4.21-.05.15-.02.24.13.31.13.07.21.17.06.29-.44.39-.49.97-.7,1.47-.11.24.02.35.27.27.33-.1.65-.1.98-.08.08,0,.17.02.18.12s-.04.18-.13.18c-.47.01-.81.35-1.25.45-.53.12-.79.51-.97.97-.07.15-.14.25-.27.34-.21.14-.4.29-.59.45-.14.13-.43.26-.35.43.1.18.37.01.54-.04.57-.16,1.15-.06,1.81-.18-.09.12-.1.15-.12.15-.21.08-.42.15-.63.23-1.64.61-3.33,1.06-5.04,1.47-.17.04-.25.13-.31.28-.2.54-.26,1.09-.36,1.64-.13.75-.46,1.46-.45,2.23.01.38-.08.74-.36.99-.25.23-.07.77-.6.79-.04,0-.07.13-.11.21-.35.75-.79,1.4-1.59,1.78-.55.27-1.06.66-1.64.87-1.29.45-2.61.72-3.99.57-.33-.04-.65-.05-.98-.07-.21-.02-.37.06-.44.26-.29.76-.73,1.44-1.08,2.17-.53,1.13-1.12,2.23-1.69,3.34-.04.08-.09.2-.18.2-.03,0-.05,0-.08-.02-.11-.07-.02-.19.02-.29.62-1.67,1.37-3.3,2.14-4.91.05-.11.16-.25.07-.36s-.25-.05-.37-.01c-.67.23-1.36.35-2.07.3-.19-.02-.28.11-.4.24-.91,1.07-1.62,2.28-2.43,3.43-.44.62-.79,1.29-1.18,1.95-.16.29-.13.33.21.33h.21c1.3-.06,2.6-.17,3.91-.28.26-.02.52-.05.78-.07,1.4-.13,2.81-.26,4.22-.38l4.86-.39c1.04-.09,2.06-.25,3.1-.34.77-.07,1.53-.22,2.31-.15.61.05,1.1-.05,1.35-.69.01-.06.06-.1.1-.15,1.37-1.76,2.87-3.41,4.54-4.91,1.65-1.49,3.4-2.81,5.33-3.91,1.01-.57,2.04-1.1,3.08-1.62,2.4-1.21,4.91-2.12,7.5-2.81,1.28-.33,2.55-.74,3.84-.99,2.03-.41,4.06-.83,6.11-1.06,1.79-.2,3.59-.28,5.39-.43.91-.08,1.82-.05,2.73-.08,1.68-.06,3.35-.16,5.02-.11,1.66.06,3.32.16,4.98.06,1.93-.11,3.85-.23,5.73-.71,1-.25,2-.46,2.92-.97,1.65-.91,3.1-2.08,4.51-3.32,1.48-1.31,2.35-2.95,2.78-4.84.29-1.28.39-2.59.33-3.9-.02-.41-.08-.79-.29-1.14-.07-.12-.12-.25-.16-.39-.05-.16,0-.3.14-.4.16-.1.3-.03.41.09.09.09.17.19.23.3.27.46.45.95.55,1.47.22,1.28.08,2.53-.15,3.79-.32,1.71-.91,3.3-2.07,4.62-1.14,1.31-2.44,2.44-3.87,3.44-1.49,1.03-3.07,1.82-4.86,2.18-.76.15-1.52.28-2.28.41-1.64.26-3.3.33-4.96.36-2.36.06-4.72-.18-7.08-.07-2.19.1-4.38.07-6.56.3-1.57.18-3.17.15-4.74.49-1.34.31-2.72.45-4.06.76-1.2.28-2.38.58-3.57.9-1.28.35-2.58.63-3.8,1.21-.34.17-.72.3-1.09.41-.37.12-.75.19-1.11.35-1.35.61-2.74,1.14-4.02,1.92-1.47.9-3.01,1.71-4.36,2.81-.86.69-1.58,1.52-2.44,2.21-.99.78-1.86,1.68-2.65,2.65-.99,1.23-1.83,2.53-2.35,4.03-.32.94-.48,1.9-.7,2.86-.39,1.73-.41,3.46-.14,5.22.16,1.01.42,2.01.5,3.04.09,1.16.7,2.03,1.39,2.88.1.12.18.12.28-.01.43-.56.72-1.17.79-1.88.08-.78.2-1.57.53-2.27.27-.55.45-1.1.52-1.7.02-.17.06-.34.12-.51.61-1.7,1.44-3.31,2.49-4.77,1.2-1.65,2.64-3.11,4.11-4.52,1.16-1.11,2.4-2.09,3.75-2.94.56-.36,1.08-.78,1.67-1.1,2.09-1.13,4.33-1.88,6.62-2.47,1.6-.42,3.24-.63,4.87-.84.66-.09,1.31-.25,1.97-.35.93-.14,1.87-.16,2.8-.17.87-.02,1.73-.18,2.59-.09,1.18.12,2.36.15,3.53.32,1.78.25,3.56.54,5.36.6,1.53.06,3.07.16,4.6.17,1.23.01,2.47-.08,3.71-.14.39,0,.77-.05,1.16-.1,1.9-.25,3.77-.67,5.65-1.05,1.4-.28,2.73-.82,4.1-1.23,2.51-.75,4.62-2.12,6.35-4.07.69-.77,1.4-1.51,2.11-2.26Z"/><path class="cls-5" d="m125.61,59.16c.25.22.23.31-.02.34-.14.02-.29.07-.44.11-.06.01-.12.01-.15-.05-.02-.07.04-.1.09-.14.08-.06.24-.01.29-.18-.17-.09-.35-.07-.42.09-.32.63-.95.57-1.49.68-2,.43-4.04.42-6.07.54-2.31.13-4.6-.2-6.9-.12-.84.03-1.66-.26-2.48-.36-1.57-.2-3.13-.45-4.7-.58-1.28-.1-2.57.03-3.86.13-1.43.12-2.87.21-4.28.48-1.23.23-2.47.4-3.69.68-1.44.33-2.85.75-4.25,1.2-2.36.76-4.46,2.06-6.39,3.58-2.17,1.71-4.08,3.69-5.77,5.87-.6.77-1.1,1.62-1.64,2.44-.34.53-.57,1.12-.92,1.64-.03.04-.07.09-.06.12.17.58-.25,1.04-.33,1.57-.23,1.39-.55,2.77-.95,4.13-.18.61-.43,1.18-.81,1.7-.33.45-.75.53-1.24.22-.74-.49-1.17-1.22-1.44-2.02-.61-1.81-1.05-3.66-1.3-5.56-.11-.83-.27-1.66-.18-2.51.2-1.9.53-3.79,1.18-5.6.32-.92.31-.77-.56-.71-.69.05-1.37.26-2.08.3-.39.03-.8-.02-1.18.12-.79.29-1.6.1-2.39.15-.08.01-.18-.03-.24.01-.61.31-1.25.09-1.88.15-1.62.16-3.24.26-4.86.4-1.45.13-2.9.36-4.37.34-.37-.01-.75.03-1.12.07-.46.05-.93.07-1.4,0-.33-.05-.57.02-.73.37-.22.45-.54.84-.74,1.31-.05.1-.1.26-.24.21-.16-.06-.09-.22-.06-.34.13-.45.33-.87.53-1.3.09-.19.05-.28-.18-.25-.95.14-1.88.04-2.82-.1-.84-.12-1.68-.18-2.52-.26-.27-.03-.51-.13-.77-.21-.56-.18-1.12-.38-1.67-.6-.53-.22-1.03-.48-1.53-.77-.84-.51-1.68-1.02-2.74-1.04-.89-.02-1.66-.43-2.36-.97-.15-.12-.24-.28-.33-.45-.16-.33-.38-.56-.81-.53-.3.02-.55-.25-.86-.28-1.54-.12-3.06-.26-4.61-.05-1.73.22-3.46.43-5.21.27-2.82-.25-5.63-.58-8.4-1.19-1.08-.24-2.08-.7-3.1-1.12-1.37-.57-2.75-1.12-4.02-1.9-1.43-.88-2.56-2.02-3.16-3.63-.54-1.42-.57-2.86-.37-4.32.09-.67.19-1.35.37-2s.47-1.26.7-1.9c.72-1.99,1.62-3.89,2.99-5.53.81-.96,1.6-1.95,2.71-2.62.22-.13.4-.15.61-.01.07.05.17.14.25.07.1-.1-.02-.19-.06-.28-.94-1.69-1.85-3.41-2.66-5.17-.69-1.51-.92-3.1-.59-4.76.06-.28.21-.36.47-.34.83.07,1.61.31,2.35.67.77.37,1.53.76,2.29,1.15.54.27,1.11.42,1.7.55.1.02.23.06.29-.03.08-.11-.05-.19-.1-.27-.13-.18-.27-.35-.38-.55-.21-.42,0-.75.46-.75h.21c.23.02.35.01.23-.29-.17-.42-.13-.85.25-1.18.13-.12.16-.26.13-.44-.11-.57-.05-1.07.41-1.51.31-.29.39-.76.45-1.16.09-.59.43-.99.82-1.38.13-.13.14-.18.03-.33-.32-.41-.09-1.12.4-1.29.21-.07.32-.22.43-.39.34-.55.64-1.12,1.02-1.64.21-.27.43-.5.8-.5.18,0,.26-.13.35-.25.36-.48.72-.96,1.08-1.43.34-.43.69-.84,1.23-1.07.33-.15.48-.53.74-.79s.53-.56.8-.83c.21-.22.46-.36.78-.32.14.02.25-.03.35-.12.59-.51,1.25-.91,1.88-1.35.17-.12.36-.22.58-.22.21-.01.37-.13.53-.25.46-.37.92-.72,1.38-1.09.26-.21.54-.27.83-.07.17.12.31.06.46-.03.49-.31.99-.62,1.48-.94.32-.22.66-.41,1.02-.54.08-.02.17-.08.23-.06.53.16.9-.19,1.3-.4.71-.39,1.39-.88,2.18-1.02,1.04-.17,1.9-.69,2.81-1.13.42-.21.85-.32,1.32-.3.44.02.86-.05,1.27-.22,1.38-.57,2.78-1.02,4.26-1.28,1.15-.21,2.27-.65,3.42-.9,1.83-.38,3.66-.83,5.5-1.1,2.25-.34,4.45-.89,6.72-1.09,1.1-.1,2.2-.31,3.31-.32.5,0,.95-.26,1.41-.43.3-.11.57-.18.82.12.13.15.3.09.46.03.43-.18.89-.28,1.34-.41.3-.09.56-.04.77.18.19.19.4.19.64.14.88-.22,1.76-.42,2.63-.62.2-.05.39-.07.59-.09.27-.03.52.04.68.27.13.19.28.21.49.16,1.22-.3,2.45-.6,3.7-.78.45-.06.86-.11,1.06.45.1.26.37.18.56.12.84-.24,1.7-.33,2.55-.47.98-.16,1.96-.34,2.95-.41.34-.02.63.04.82.35.11.18.28.14.44.12.63-.09,1.26-.14,1.89-.12.14,0,.31-.01.41.06.34.23.66.13,1.01.06.5-.09,1.01-.18,1.53-.2.35-.01.69.04,1.01.2.4.19.84.12,1.25.06,1.09-.16,2.17-.34,3.26-.51.34-.05.69.01.88.31.44.71,1.1.63,1.76.55.48-.05.96-.11,1.43-.2.39-.07.66.06.76.43.13.5.48.57.91.57.65,0,1.31-.04,1.96-.12.75-.1,1.35.07,1.69.8.23.46.64.56,1.08.58.76.03,1.52.16,2.28.15.67,0,.99.3,1.13.97.1.5.12.53.63.56.65.04,1.29.08,1.93.08.78,0,1.06.23,1.22.97.07.28.2.42.49.46.46.06.91.03,1.37.04.83.03,1.24.16,1.48,1.07.13.52.61.57,1.04.62.66.07,1.33.04,1.97.31.36.16.69.35.9.7.24.4.61.59,1.06.66.37.06.74.12,1.11.15.61.06.98.43,1,1.05,0,.63.05.69.64.92.66.25,1.36.34,2.04.49.5.11.98.24,1.34.64.21.23.4.49.39.8-.04.6.41.88.93,1,.39.09.78.16,1.16.29.82.28,1.08.89.69,1.68-.15.33-.11.45.25.57.48.15.99.18,1.48.27,1.07.2,1.35.77.8,1.72-.12.23-.05.31.15.39.3.13.61.23.94.28.1.02.21.04.31.06.85.21,1.03.47.85,1.32-.06.28.01.42.27.51.3.09.58.25.84.43.37.26.6.6.54,1.07-.04.31.1.48.34.66.55.4,1.07.83,1.61,1.25.31.24.52.55.69.91.41.81.86,1.61,1.39,2.35,1.14,1.62,1.9,3.4,2.29,5.34.55,2.72.47,5.46.34,8.2-.07,1.45-.57,2.81-.95,4.2-.4,1.43-1.14,2.67-2.03,3.85-.99,1.3-2.22,2.36-3.28,3.6-1.23,1.43-2.73,2.57-4.49,3.29-1.21.5-2.46.9-3.7,1.32-1.14.38-2.28.62-3.57.52Z"/><path class="cls-5" d="m55.52,6.48c.1-.02.21-.03.33,0,.51.12.73.5.6,1.12-.29,1.4-.64,2.79-.39,4.23.05.33-.01.62-.15.91-.09.19-.16.39-.11.61.1.4.06.79-.06,1.18-.18.58-.2,1.19-.24,1.8,0,.16,0,.32.19.36.4.06.42.34.39.66-.03.36-.11.71-.23,1.05-.04.14-.1.28,0,.4.23.3.27.64.27,1,0,.13,0,.29.16.31.29.04.4.25.5.48.08.16.2.28.36.36.48.24.56.41.5.92-.02.15-.03.3-.07.45-.03.16.03.23.18.27.72.17.92.39.89,1.1-.02.33.08.46.4.51.53.09.74.34.8.87,0,.12,0,.24,0,.35-.02.27.09.43.36.47.25.03.43.18.53.41.1.25.28.42.51.55.29.16.45.4.4.75,0,.11-.02.26.08.33.41.3.65.77,1.04,1.08.37.27.5.59.45,1.02-.08.71.63,1.04.8,1.64,0,.02.05.03.09.05.67.38.81.67.62,1.43-.05.24-.02.4.18.55.36.26.49.6.37,1.04-.05.19-.1.43.08.56.37.26.31.58.2.93-.08.24-.08.48.18.66.19.13.17.35.12.54-.04.21-.12.4-.19.6-.04.12-.06.23.06.32.27.21.31.51.29.82-.1,1.32-.29,2.62-.66,3.89-.25.89-.64,1.73-.39,2.72.18.72.09.75.74.35,1.75-1.07,3.46-2.19,5.31-3.09.2-.1.3-.24.32-.46.09-.76.2-1.51.21-2.27,0-.37,0-.75.15-1.1.1-.23.11-.42-.02-.66-.19-.35-.08-.65.25-.82.15-.08.19-.22.22-.35.2-.97.48-1.92.85-2.84.55-1.37.94-2.8,1.61-4.11,1.26-2.51,3.05-4.61,5.24-6.37,1-.8,2.14-1.33,3.26-1.93,2.18-1.16,4.56-1.73,6.96-2.2.96-.18,1.94-.04,2.91-.13.59-.05,1.19-.01,1.79-.01.23,0,.45.03.65.11.24.1.43.28.39.53-.05.27-.33.18-.5.16-1.35-.18-2.69.14-4.03.09-.27-.01-.54.04-.8.08-2.33.4-4.59.97-6.74,1.99-2.41,1.15-4.45,2.71-6.09,4.8-1.05,1.33-2.01,2.72-2.61,4.33-.46,1.24-.87,2.5-1.3,3.75-.19.55-.35,1.11-.46,1.68-.2,1.11-.47,2.19-.66,3.3-.24,1.4-.31,2.83-.72,4.21-.05.15-.02.24.13.31.13.07.21.17.06.29-.44.39-.49.97-.7,1.47-.11.24.02.35.27.27.33-.1.65-.1.98-.08.08,0,.17.02.18.12s-.04.18-.13.18c-.47.01-.81.35-1.25.45-.53.12-.79.51-.97.97-.07.15-.14.25-.27.34-.21.14-.4.29-.59.45-.14.13-.43.26-.35.43.1.18.37.01.54-.04.57-.16,1.15-.06,1.81-.18-.09.12-.1.15-.12.15-.21.08-.42.15-.63.23-1.64.61-3.33,1.06-5.04,1.47-.17.04-.25.13-.31.28-.2.54-.26,1.09-.36,1.64-.13.75-.46,1.46-.45,2.23.01.38-.08.74-.36.99-.25.23-.07.77-.6.79-.04,0-.07.13-.11.21-.35.75-.79,1.4-1.59,1.78-.55.27-1.06.66-1.64.87-1.29.45-2.61.72-3.99.57-.33-.04-.65-.05-.98-.07-.21-.02-.37.06-.44.26-.29.76-.73,1.44-1.08,2.17-.53,1.13-1.12,2.23-1.69,3.34-.04.08-.09.2-.18.2-.03,0-.05,0-.08-.02-.11-.07-.02-.19.02-.29.62-1.67,1.37-3.3,2.14-4.91.05-.11.16-.25.07-.36s-.25-.05-.37-.01c-.67.23-1.36.35-2.07.3-.19-.02-.28.11-.4.24-.91,1.07-1.62,2.28-2.43,3.43-.44.62-.79,1.29-1.18,1.95-.16.29-.13.33.21.33h.21c1.3-.06,2.6-.17,3.91-.28.26-.02.52-.05.78-.07,1.4-.13,2.81-.26,4.22-.38l4.86-.39c1.04-.09,2.06-.25,3.1-.34.77-.07,1.53-.22,2.31-.15.61.05,1.1-.05,1.35-.69.01-.06.06-.1.1-.15,1.37-1.76,2.87-3.41,4.54-4.91,1.65-1.49,3.4-2.81,5.33-3.91,1.01-.57,2.04-1.1,3.08-1.62,2.4-1.21,4.91-2.12,7.5-2.81,1.28-.33,2.55-.74,3.84-.99,2.03-.41,4.06-.83,6.11-1.06,1.79-.2,3.59-.28,5.39-.43.91-.08,1.82-.05,2.73-.08,1.68-.06,3.35-.16,5.02-.11,1.66.06,3.32.16,4.98.06,1.93-.11,3.85-.23,5.73-.71,1-.25,2-.46,2.92-.97,1.65-.91,3.1-2.08,4.51-3.32,1.48-1.31,2.35-2.95,2.78-4.84.29-1.28.39-2.59.33-3.9-.02-.41-.08-.79-.29-1.14-.07-.12-.12-.25-.16-.39-.05-.16,0-.3.14-.4.16-.1.3-.03.41.09.09.09.17.19.23.3.27.46.45.95.55,1.47.22,1.28.08,2.53-.15,3.79-.32,1.71-.91,3.3-2.07,4.62-1.14,1.31-2.44,2.44-3.87,3.44-1.49,1.03-3.07,1.82-4.86,2.18-.76.15-1.52.28-2.28.41-1.64.26-3.3.33-4.96.36-2.36.06-4.72-.18-7.08-.07-2.19.1-4.38.07-6.56.3-1.57.18-3.17.15-4.74.49-1.34.31-2.72.45-4.06.76-1.2.28-2.38.58-3.57.9-1.28.35-2.58.63-3.8,1.21-.34.17-.72.3-1.09.41-.37.12-.75.19-1.11.35-1.35.61-2.74,1.14-4.02,1.92-1.47.9-3.01,1.71-4.36,2.81-.86.69-1.58,1.52-2.44,2.21-.99.78-1.86,1.68-2.65,2.65-.99,1.23-1.83,2.53-2.35,4.03-.32.94-.48,1.9-.7,2.86-.39,1.73-.41,3.46-.14,5.22.16,1.01.42,2.01.5,3.04.09,1.16.7,2.03,1.39,2.88.1.12.18.12.28-.01.43-.56.72-1.17.79-1.88.08-.78.2-1.57.53-2.27.27-.55.45-1.1.52-1.7.02-.17.06-.34.12-.51.61-1.7,1.44-3.31,2.49-4.77,1.2-1.65,2.64-3.11,4.11-4.52,1.16-1.11,2.4-2.09,3.75-2.94.56-.36,1.08-.78,1.67-1.1,2.09-1.13,4.33-1.88,6.62-2.47,1.6-.42,3.24-.63,4.87-.84.66-.09,1.31-.25,1.97-.35.93-.14,1.87-.16,2.8-.17.87-.02,1.73-.18,2.59-.09,1.18.12,2.36.15,3.53.32,1.78.25,3.56.54,5.36.6,1.53.06,3.07.16,4.6.17,1.23.01,2.47-.08,3.71-.14.39,0,.77-.05,1.16-.1,1.9-.25,3.77-.67,5.65-1.05,1.4-.28,2.73-.82,4.1-1.23,2.51-.75,4.62-2.12,6.35-4.07.69-.77,1.4-1.51,2.11-2.26,1.41-1.49,2.46-3.2,2.93-5.23.08-.33.16-.67.32-.96.4-.73.3-1.56.55-2.33.16-.48.06-1.04.08-1.57,0-.11-.01-.27.05-.33.24-.24.15-.46.03-.7-.04-.09-.06-.2-.07-.3-.05-.77-.12-1.54-.13-2.31-.03-1.26-.14-2.49-.51-3.7-.39-1.29-.74-2.6-1.46-3.75-.61-.96-1.32-1.86-1.71-2.96-.04-.1-.12-.25-.25-.18-.26.13-.34-.06-.45-.19-.34-.41-.62-.87-1.09-1.14-.68-.38-.98-1.16-1.71-1.53.13-.08.22-.04.31-.03.15.02.31.02.35-.14s-.12-.21-.23-.27c-.07-.04-.15-.06-.22-.1-.6-.29-1.16-.67-1.78-.91-.12-.05-.27-.14-.2-.29.07-.12.22,0,.32.02.25.1.4.02.47-.24.12-.44.09-.49-.36-.58-.08-.01-.16-.03-.24-.04-.66-.08-1.26-.46-1.94-.45-.11,0-.23-.07-.27-.2-.03-.09.04-.18.11-.19.35-.07.38-.34.43-.62.02-.14.11-.28.18-.41.16-.29.11-.39-.22-.43-.45-.06-.9-.14-1.34-.24-.57-.12-1.05-.47-1.62-.58-.15-.03-.33-.17-.31-.33.03-.16.24-.08.37-.09.15,0,.27-.02.32-.2.07-.26.14-.52.22-.77.06-.2,0-.31-.21-.35-.32-.06-.64-.13-.96-.21-.88-.23-1.48-.74-1.6-1.69-.06-.41-.31-.64-.7-.74-.41-.11-.84-.19-1.26-.28-.59-.12-1.18-.21-1.72-.48-.52-.27-.8-.65-.76-1.26.02-.49-.01-.46-.48-.51-.96-.08-1.88-.22-2.51-1.1-.29-.41-.77-.55-1.27-.58-.5-.04-1-.1-1.5-.16-.67-.08-1.1-.46-1.23-1.12-.08-.38-.28-.48-.63-.48-.52,0-1.03.01-1.55-.06-.79-.11-1.05-.32-1.23-1.11-.05-.23-.18-.29-.39-.29-.72-.03-1.43.03-2.14-.07-.63-.09-1.14-.43-1.26-.87q-.18-.7-.94-.74c-.37-.02-.75-.01-1.12-.01-.35,0-.7-.06-1.04-.15-.48-.13-.92-.35-1.16-.79-.23-.41-.57-.54-.99-.53-.67.02-1.35.07-2.03.09-.6.02-1.23.03-1.54-.64-.14-.3-.34-.35-.62-.27-.61.15-1.23.18-1.85.19-.51.01-.92-.16-1.21-.58-.16-.23-.36-.29-.63-.28-.9.05-1.77.3-2.67.41-.87.09-1.75.22-2.58-.22-.14-.08-.29-.04-.44,0-.7.15-1.41.33-2.12.21-1.49-.25-2.93-.04-4.36.36-.32.09-.64.15-.97.14-.16,0-.35-.01-.37-.23-.02-.2.14-.24.29-.29.09-.02.25.01.22-.15-.02-.11-.16-.13-.26-.13-.07-.01-.15-.01-.21.01-1.08.31-2.21.38-3.3.65-.4.1-.82.17-1.25.16-.29,0-.6-.04-.73-.32-.16-.34-.39-.32-.69-.26-1,.19-1.99.45-2.97.71-.5.13-1,.21-1.37-.29-.11-.14-.26-.11-.42-.07-1.01.21-2.02.42-3.02.62-.27.06-.52.04-.74-.14-.2-.16-.42-.16-.66-.08-.5.16-1,.34-1.51.45-.62.13-1.23.53-1.89.11-.11-.07-.3-.03-.45-.01-1.69.23-3.38.44-5.08.66-.96.13-1.92.28-2.88.45-1.2.2-2.41.43-3.61.65-1.46.27-2.9.63-4.35.94-1.23.27-2.43.63-3.65.9-1.1.25-2.19.56-3.22,1.07-.39.19-.83.3-1.26.28-.64-.04-1.18.18-1.74.44-.68.31-1.32.79-2.14.73-.03,0-.07.02-.1.03-.69.33-1.4.6-2.09.91-.64.29-1.23.71-1.96.83-.2.03-.39.14-.58.24-.66.35-1.21.88-1.85,1.27-.31.19-.59.27-.91.09-.2-.11-.34-.05-.49.09-.39.34-.76.7-1.2.98-.2.14-.37.32-.65.17-.08-.04-.16.06-.25.1-.77.41-1.42.98-2.07,1.55-.12.1-.25.18-.42.14-.27-.08-.45.05-.61.23-.4.46-.8.93-1.19,1.38-.13.15-.24.36-.43.41-.51.11-.78.5-1.07.86-.46.59-.91,1.19-1.29,1.84-.15.25-.32.36-.6.23-.11-.05-.24-.08-.32.05-.28.5-.57.99-.85,1.49-.05.09-.08.23.06.27.12.04.2-.07.22-.17.06-.39.34-.57.65-.71,1.75-.79,3.44-1.69,5.11-2.62,1.04-.59,2.15-.96,3.29-1.28.24-.06.55-.05.47-.45-.02-.09.1-.15.19-.19.23-.13.48-.23.74-.3.76-.21,1.54-.32,2.31-.42.25-.04.51-.03.7-.2.2-.17.43-.23.68-.22.84.03,1.66-.06,2.5-.07.11,0,.23,0,.34-.07.35-.23.75-.26,1.17-.3.65-.05,1.3-.07,1.96.01.35.04.7.02,1.05-.04.09-.02.21,0,.25-.1.15-.4.46-.29.73-.2.68.19,1.34.43,2.02.61.93.25,1.83.31,2.6-.49.82-.87,1.82-1.5,2.95-1.91.27-.1.56-.18.82-.31,1.56-.78,2.96-1.8,4.3-2.9,1.29-1.05,2.5-2.22,3.73-3.35.14-.12.27-.22.43-.26Z"/><path class="cls-5" d="m31.54,56.45c.11-.02.23-.01.36.02.17.03.26-.05.31-.21.05-.18.15-.34.36-.33.56,0,1.07-.21,1.62-.27,1.53-.2,2.98-.03,4.37.67.55.28,1.05.65,1.58.97.22.13.43.31.71.29.75-.06,1.43.14,2.06.55.14.1.31.13.45-.01.22-.23.42-.16.64.02.38.32.82.53,1.29.7.38.14.69.07,1-.19,1.5-1.22,3.1-2.3,4.83-3.18.35-.18.72-.34,1.08-.5.12-.05.26-.06.35.06.1.14-.01.24-.1.33-.18.19-.41.31-.63.44-1.61.91-3.24,1.78-4.77,2.82-.18.13-.37.26-.54.39-.11.08-.18.18,0,.25.45.19.91.37,1.37.56.19.07.36.03.51-.11.3-.26.62-.51.92-.77,1.03-.88,2.17-1.62,3.32-2.34.19-.13.43-.23.59.01s-.09.35-.24.47c-1.16.91-2.41,1.7-3.52,2.67-.35.32-.36.34.1.53.44.17.92.23,1.39.36.27.08.46.02.64-.2.48-.6.98-1.2,1.48-1.78.37-.44.77-.85,1.29-1.13.17-.09.42-.18.54,0,.13.19-.11.31-.25.43-.82.75-1.53,1.61-2.19,2.5-.05.06-.13.14-.08.22.07.11.17.02.25.01.66-.13,1.29-.35,1.93-.55.25-.08.38-.22.47-.46.2-.51.43-1.01.67-1.51.07-.16.23-.35.44-.25s.15.32.08.5c-.08.23-.2.44-.3.67-.08.17-.17.33-.25.5-.04.08-.06.16,0,.23.06.06.13.01.19-.01.76-.37,1.53-.72,2.23-1.2.75-.51,1.46-1.05,1.77-1.96.06-.19.06-.32-.09-.46-.33-.31-.68-.58-1.02-.87-.3-.26-.58-.36-.97-.18-.45.2-.91.23-1.36-.07-.24-.16-.54-.26-.84-.24-.66.03-.28-.73-.7-.89-.1-.04-.04-.21.02-.31.01-.03.02-.05.03-.06.28-.43.62-.79,1.04-1.08,1.08-.74,2.23-1.33,3.44-1.81.68-.27,1.37-.47,2.11-.22.33.11.68.23.69.64.03.47.06.97-.41,1.29-.13.09-.19.17-.17.34.08.79.18,1.58-.03,2.37-.02.08,0,.18,0,.28.04.45.16.54.61.43.21-.05.42-.1.61-.19.43-.21.96-.39,1.14-.87.32-.82.42-1.7.55-2.56.03-.19-.07-.22-.23-.2-.23.05-.46.07-.7.11-.1.01-.22.05-.28-.07-.06-.14.05-.22.14-.29.24-.22.55-.29.86-.39.47-.15.55-.24.56-.74,0-.1.03-.22-.07-.29-.11-.07-.2.02-.29.07-.26.17-.53.3-.84.33-.13.02-.23-.03-.29-.15-.05-.12.02-.21.1-.27.1-.08.21-.15.32-.22.29-.15.59-.29.87-.45.24-.13.28-.48.1-.8-.16-.3-.33-.05-.46.01-.41.2-.81.43-1.22.64-.06.03-.15.1-.22.01-.08-.11.03-.17.1-.22.43-.36.81-.78,1.32-1.04.1-.05.18-.14.25-.23.06-.08.08-.19.02-.27-.07-.1-.17-.05-.26-.01-.19.08-.36.21-.53.34-.58.43-1.1.94-1.65,1.41-.16.14-.41.28-.57.11-.15-.15.09-.32.2-.45.11-.15.25-.28.38-.41.57-.54,1.2-1.02,1.86-1.44.27-.16.34-.34.24-.63-.09-.25-.15-.51-.14-.79.01-.22.03-.45-.22-.58-.08-.04-.09-.12-.07-.21.15-.61.16-1.25.52-1.8.19-.29.27-.62.14-.97-.04-.12-.03-.26.04-.38.32-.56.35-1.21.48-1.82.09-.42.16-.88-.3-1.2-.19-.13-.19-.36-.11-.58.09-.24.17-.49.25-.73.04-.11.07-.23-.02-.3-.42-.3-.28-.7-.19-1.08.04-.15.11-.32-.02-.43-.35-.31-.32-.68-.23-1.07.06-.25.01-.46-.26-.58-.34-.15-.4-.46-.38-.79.01-.14.04-.28.09-.41.09-.22.03-.34-.18-.44-.34-.15-.58-.39-.66-.77-.04-.17-.14-.3-.31-.36-.33-.14-.43-.39-.39-.73.02-.19,0-.38.04-.56.06-.28.02-.51-.23-.68-.24-.15-.25-.47-.47-.64-.04-.03-.11-.02-.17-.02-.46-.07-.64-.26-.72-.72-.03-.18-.04-.39-.2-.51-.27-.2-.51-.4-.53-.78-.01-.11-.14-.18-.25-.22-.5-.22-.75-.58-.7-1.13.02-.26-.07-.36-.34-.34-.16.02-.31-.05-.46-.13-.45-.23-.48-.63-.47-1.05.01-.25.01-.4-.33-.29-.42.14-.74-.11-.78-.56-.02-.15-.03-.3,0-.45.06-.29.04-.5-.31-.56-.15-.03-.26-.17-.32-.31-.1-.24-.26-.34-.51-.33-.32,0-.45-.19-.47-.49-.01-.28.01-.56.08-.83.05-.21.04-.36-.21-.44-.17-.06-.23-.23-.19-.41.03-.16.05-.33.12-.47.14-.29.12-.46-.25-.53-.27-.05-.45-.26-.36-.54.21-.74.29-1.5.42-2.26.06-.34.14-.66.2-1,.04-.19-.02-.36-.21-.43-.18-.07-.22.12-.3.23-.08.1-.15.21-.23.31-.41.45-.83.89-1.25,1.33s-.84.88-1.25,1.33c-.69.76-1.27,1.58-1.74,2.49-.55,1.04-.91,2.15-1.34,3.23-.1.24-.2.48-.38.67-.17.18-.37.17-.58.08s-.21-.26-.2-.44c.02-.17.09-.32.16-.46.25-.48.46-.97.65-1.48.37-1.01.88-1.95,1.39-2.9.66-1.24,1.74-2.11,2.64-3.12.84-.94,1.62-1.87,2.14-3.05.57-1.29.88-2.62,1.11-3.99.01-.08.03-.18-.04-.23-.1-.07-.18.02-.25.08-.05.03-.09.07-.13.11-1.62,1.39-3.15,2.87-4.91,4.08-1.05.72-2.12,1.38-3.32,1.81-.58.22-1.13.49-1.65.83-.57.37-1.03.85-1.54,1.27-.41.34-.82.64-1.39.35-.07-.03-.16-.03-.24-.03-.66.04-1.28-.06-1.89-.32-.27-.13-.58-.18-.87-.28-.18-.05-.33-.06-.44.15-.08.16-.23.16-.4.13-1.06-.16-2.12-.1-3.19-.1-.15,0-.26.02-.25.23,0,.37-.14.47-.48.32-.32-.13-.63-.16-.96-.14-.38.02-.75.04-1.13.06-.23.01-.46-.03-.58.27-.05.13-.22.1-.35.1-.31,0-.62-.1-.94-.06-.77.1-1.53.18-2.3.28-.19.02-.37.07-.57.19.27.11.52.07.73.19.13.09.25.19.22.37-.04.16-.19.2-.33.21-.15.01-.3,0-.46.01-1.23.04-2.44.2-3.49.95-.1.07-.23.12-.35.15-.74.15-1.41.48-2.07.84-.21.11-.36.19-.29.46.05.18-.04.27-.23.27-.78.01-1.47.33-2.17.64-.24.11-.46.22-.45.55,0,.14-.12.17-.23.22-.5.26-.99.53-1.49.79-.1.05-.21.14-.12.24.15.2,0,.59.39.65.05,0,.08.1.06.18-.05.18-.45.42-.6.31-.26-.18-.43-.04-.62.11s-.39.29-.59.44c-.24.19-.52.34-.63.64-.14.37-.46.65-.5,1.07-.01.07-.1.18-.17.21-.44.18-.45.5-.35.89.05.19.05.39.09.59q.1.48-.39.54c-.08.01-.18-.01-.21.08-.03.13.07.22.14.31.05.08.13.1.21.05.27-.16.59-.25.68-.67.07.25-.05.44-.02.62.07.36-.07.41-.37.28-.17-.07-.38-.1-.24.19.19.44-.21.71-.57.7-.18-.01-.35-.12-.58-.07.21.49.28,1.09,1.03.97,0,0,.02,0,.03.01.49.24,1.05.3,1.57.33,1.86.12,3.54.85,5.25,1.45.48.17.93.39,1.38.62,1.23.63,2.35,1.45,3.63,1.99.21.09.42.2.62.32.17.1.32.23.18.45-.13.2-.3.13-.46.03-.34-.21-.7-.37-1.07-.51-.61-.23-1.17-.54-1.71-.89-.93-.59-1.86-1.18-2.94-1.47-.39-.11-.79-.22-1.17-.38-.85-.37-1.75-.58-2.65-.77-1.1-.22-2.22-.34-3.35-.28-.21.01-.42,0-.63-.04-1.22-.29-2.41-.67-3.5-1.31-.73-.43-1.48-.81-2.28-1.08-.47-.15-.66-.02-.67.47-.02.74.06,1.47.19,2.2.14.83.51,1.6.9,2.34,1.03,1.96,2.03,3.92,3.26,5.77.71,1.05,1.49,2.03,2.35,2.96.35.38.77.67,1.14,1.03.76.76,1.46,1.58,2.36,2.19.62.41.95.95.9,1.7,0,.24.09.4.31.5.68.29.88.65.74,1.38-.05.28-.01.46.29.57.38.13.59.4.56.83-.01.22.11.38.29.49.2.12.4.24.62.31.49.15.74.47.78.97,0,.09.01.21.14.19.55-.08.79.35,1.08.65.2.2.36.36.66.3.13-.02.25.04.32.16.1.17.27.22.42.31.44.27.98.18,1.44.38,1.07.46,2.2.49,3.32.37,1.18-.12,2.36-.08,3.54-.11.18,0,.31.06.31.28.01.21-.11.29-.3.31-.67.06-1.34.2-2.02.15-.39-.03-.77-.01-1.16.06-1.23.21-2.44.17-3.61-.31-.37-.15-.74-.2-1.15.01-.36.19-.78,0-1.17,0-.11,0-.17-.12-.17-.23,0-.23-.14-.34-.3-.44-.33-.2-.67-.39-1.07-.42-.12,0-.27-.03-.29-.15-.07-.29-.27-.27-.49-.27-.2.01-.4,0-.59-.06-.21-.07-.53-.04-.58-.3s.24-.37.42-.52c.09-.08.28-.11.22-.27-.07-.17-.25-.18-.42-.13-.24.06-.47.02-.69-.07-.12-.05-.27-.1-.24-.26s.19-.09.29-.11c.04-.01.08,0,.11-.02.08-.02.21,0,.23-.1.02-.09-.07-.14-.14-.19-.18-.12-.37-.25-.56-.35q-.38-.18-.11-.49c.06-.07.15-.14.09-.24-.05-.09-.15-.11-.24-.11-.12,0-.24.02-.35.02-.13,0-.25-.04-.27-.18-.08-.41-.24-.82-.02-1.23.13-.26.04-.41-.21-.53-.54-.26-.86-.74-.88-1.3-.03-.63-.39-.91-.86-1.15-.13-.06-.28-.1-.34-.24-.14-.41-.48-.65-.77-.94-.25-.26-.49-.53-.64-.87-.3-.67-.8-1.17-1.35-1.63-.43-.36-.99-.49-1.39-.93-.56-.61-1.06-1.25-1.45-1.97-.11-.21-.26-.39-.39-.58-.12-.18-.25-.22-.44-.09-.35.26-.73.48-1.06.75-2.13,1.79-3.45,4.12-4.43,6.67-.53,1.38-.88,2.81-1.2,4.24-.08.38-.17.76-.14,1.15.04.83.17,1.65.37,2.47.18.74.58,1.33.96,1.92.48.74,1.19,1.34,2,1.73,1.59.78,3.21,1.52,4.87,2.17,1.5.59,3.09.8,4.67,1.06,1.25.21,2.52.35,3.79.47,2.38.21,4.74.08,7.11-.17,1.07-.11,2.12-.32,3.19.02.43.14.9.16,1.36.07.18-.04.22-.1.12-.26-.32-.51-.44-1.1-.66-1.65-.21-.52-.25-1.03-.15-1.58.17-.84.55-1.54,1.25-2.04.29-.22.61-.4.97-.42Z"/><path class="cls-5" d="m39.52,66.48c-.07,0-.13-.06-.19-.16-.08-.15-.18-.29-.32-.41-.29-.23-.47-.54-.58-.89-.08-.25-.2-.48-.3-.71-.27-.68-.37-1.36.2-1.96.16-.17.15-.37.14-.57-.03-.59-.03-1.19-.02-1.78.03-.81.3-1.45,1.06-1.84.33-.16.33-.25.04-.45-.95-.65-1.9-1.29-3.12-1.32-.41-.01-.81.04-1.22.06-.5.03-1.01.04-1.5.13-.63.12-.82.42-.76,1.05.02.29.02.59.07.87.2,1,.23,2.08,1.34,2.62.04.02.08.05.1.09.22.31.52.46.9.44.06,0,.13,0,.15.06.21.51.72.63,1.12.9.14.09.29.15.39.28.14.17.22.36.07.54-.17.22-.36.09-.52-.03-.3-.2-.59-.43-.89-.63-.2-.12-.45-.2-.56.1s-.14.62.14.87c.36.31.53.77.87,1.1.09.07.08.19.06.3,0,.36.04.39.38.27.06-.02.11-.04.17-.05.22-.05.32.04.23.26-.05.12-.15.23-.02.35.13.1.27.13.43.06.13-.06.26-.1.39-.16.16-.07.3-.05.38.12.24.56.73.75,1.26.9h.01c.7.21,1.41.27,2.12.41,1.3.25,2.61.42,3.93.31.3-.02.6-.09.9-.06.29.02.51-.12.66-.38.42-.7.83-1.41,1.28-2.09.61-.96,1.23-1.91,1.91-2.81.2-.26.16-.34-.15-.43-.17-.05-.33-.05-.46.08-.2.21-.4.33-.64.05-.05-.06-.15-.08-.22-.02-.09.07-.05.15,0,.22.05.08.22.15.1.25-.11.09-.16-.08-.23-.14-.07-.05-.13-.1-.18-.16-.36-.42-.95-.47-1.37-.11-.7.59-1.41,1.19-2.1,1.81-.71.63-1.51,1.13-2.21,1.78-.13.12-.29.41-.47.23-.18-.19.12-.34.25-.46,1.16-1.15,2.34-2.29,3.5-3.44.26-.25.24-.3-.1-.4-.1-.03-.21-.04-.23-.18-.01-.12.05-.19.15-.25.09-.05.21-.12.12-.24-.08-.11-.2-.04-.28.02-.32.27-.64.18-.93-.04-.19-.15-.32-.12-.52,0-1.01.64-1.84,1.52-2.86,2.14-.14.08-.29.27-.43.11-.13-.16.1-.27.19-.39l.03-.03c.88-.8,1.76-1.61,2.75-2.28.26-.17.22-.3.06-.53-.52-.74-1.34-1.03-2.1-1.42-.05-.03-.14-.03-.2-.01-.58.11-1.14.23-1.66.53-.44.24-.65.58-.62,1.08.03.42.01.85.09,1.26.13.7-.05,1.29-.5,1.82-.17.19-.21.36.14.37.12.01.23.07.26.2.03.12-.01.25-.12.31-.29.16-.23.39-.15.63.11.32.27.59.5.84.14.14.42.2.41.4,0,.17-.26.27-.35.45-.05.11-.11.16-.17.16Z"/><path class="cls-5" d="m30.2,59.86c.01.1.03.23.06.35.11.54.31,1.05.56,1.54.43.82.88,1.63,1.51,2.31.21.23.41.46.72.53.47.1.92.28,1.4.33.22.03.57.19.62.06.07-.21-.25-.35-.41-.5-.72-.7-.96-1.53-.69-2.49.05-.2.02-.29-.13-.41-.28-.22-.53-.46-.79-.69-.13-.12-.25-.27-.34.03-.01.06-.06.11-.13.08-.07-.02-.07-.09-.05-.15.06-.18.03-.37-.02-.55-.23-.92-.51-1.82-.52-2.78,0-.22-.18-.25-.36-.19-.3.09-.56.25-.74.51-.42.59-.64,1.26-.69,2.02Z"/><path class="cls-5" d="m61.43,51.35c0-.17-.11-.23-.24-.23-.16,0-.33,0-.49.03-1.65.31-3.09,1.09-4.41,2.11-.14.11-.27.25-.4.38-.08.08-.12.17-.05.29.22.36,1.01.56,1.34.3.28-.21.58-.23.9-.19.38.05.75.16,1.11.3.19.06.3.15.27.38-.04.22.11.38.28.48.19.12.37,0,.51-.11s.26-.27.38-.41c.12-.16.16-.31-.01-.47-.13-.11-.14-.25-.12-.41.07-.58.2-1.13.49-1.63.16-.27.3-.56.44-.82Z"/><path class="cls-5" d="m56.67,60.28c.12.15.27.14.41.12.91-.11,1.83-.2,2.68-.59.69-.32,1.42-.51,2.04-.99.31-.24.64-.44.91-.74.41-.45.61-1,.87-1.52.04-.08.15-.18.04-.28-.08-.07-.18.01-.26.05-.69.32-1.41.51-2.17.46-.3-.02-.43.12-.56.36-.2.37-.27.81-.64,1.11-1,.83-2.05,1.57-3.32,2.02Z"/><path class="cls-5" d="m65.61,47.5s.15-.05.24-.1c1.47-.77,3.02-1.38,4.6-1.87.28-.09.42-.24.45-.51.03-.42.14-.83.24-1.23.03-.11.11-.24-.02-.32-.1-.06-.19.06-.27.12-.86.67-1.82,1.18-2.73,1.76-.88.56-1.78,1.08-2.68,1.61-.15.1-.21.21-.16.38.05.13.15.17.33.16Z"/><path class="cls-5" d="m66.07,48.98c.06-.02.12-.03.17-.05.92-.43,1.88-.74,2.84-1,.82-.21,1.26-.68,1.44-1.46.03-.11.13-.24.04-.32-.09-.11-.21,0-.31.04-1.3.51-2.6,1.01-3.86,1.58-.21.1-.4.23-.61.34-.16.09-.17.21-.1.35.11.19.08.49.39.52Z"/><path class="cls-5" d="m69.38,48.6s-.03-.07-.04-.1c-.16.05-.33.08-.49.14-.75.28-1.48.58-2.24.83-.48.15-.73.45-.81.93-.02.09-.08.19,0,.27.08.09.18.02.26-.01.37-.15.75-.28,1.1-.45.84-.4,1.57-.95,2.22-1.61Z"/><path class="cls-8" d="m40.41,63.51c.69-1.28,3.91-3.04,3.7-3.44s-.53-.88-.97-.99c-.23-.05-.8-.54-1.3-.66s-1.71.44-2.13.77c-.6.48,0,2.25-.18,3-.11.5-.65.69-.65,1.19,0,.37.43-.06.52.3.12.49-.44.25-.32.75.07.3.57,1.01.94,1.34.17.15-.41.44-.43.75,0,.06-.06.14-.11.21-.1.14-.22.25-.05.22,2.33-.49,5.09-3.51,6.77-5.19.18-.18-.62-.21-.44-.39.22-.22.29-.37.18-.54-.09-.14-.69.39-1.33-.08-.31-.23-4.2,2.76-4.2,2.76Z"/><path class="cls-2" d="m59.38,53.63c-.09,0-.2.01-.24-.1-.03-.09.07-.13.13-.19.2-.18.42-.34.71-.29.14.02.26.05.27.21.02.16-.08.24-.22.26-.22.04-.44.07-.65.1Z"/><path class="cls-1" d="m47.95,23.68l.17-.09.18-.21.18-.36.63-1.64.42-1.02.54-1.07.37-.61.44-.62.43-.54.59-.66.81-.85,1.35-1.44.21-.27.09-.12.11-.18.06-.05h.06s.06,0,.06,0l.06.03.09.08.04.08.02.07v.14s-.2.99-.2.99l-.19,1.2-.08.46-.08.35-.08.28-.02.13.02.14.05.1.06.07.1.07.12.04.09.02.13.04.08.05.05.07v.07s0,.13,0,.13l-.05.12-.06.15-.09.46v.08s.04.1.04.1l.1.1.14.06.07.05.06.08.02.13-.03.18-.04.23-.02.19v.3s.01.22.01.22l.05.14.08.11.14.08.12.02h.14s.14.02.14.02l.13.06.12.12.09.19.09.13.08.07.1.05.1.02.11.05.08.06.06.11.02.13v.13l-.03.12v.2s.01.22.01.22l.05.22.05.1.08.11.14.1.12.04h.12s.13,0,.13,0l.16-.05.13-.02h.04s.06.04.06.04l.03.05.02.14v.29s0,.13,0,.13v.1s.05.17.05.17h-.91v-.17l-.3.17h-.26l-.19-.1-.34.02-.1-.07s.15.08-.14.05l-.29-.04-.07-.09-.06.1h-.1l-.14-.02-.03.06h-.1s-.19-.04-.19-.04l-.04.05-.27-.05-.03.03-.58-.02-.1-.07-.08-.08-.17.02h-.28s-.16.05-.16.05h-.11s-.06.04-.06.04l-.04-.02-.14.04-.06-.02-.11-.09-.05-.02h-.14l-.08.02h-.05s-.06.05-.06.05l-.12.04h-.44s-.19.01-.19.01l-.14-.02-.12-.05-.06-.02-.07-.04-.25-.02-.17.04-.14.04-.17.05h-.11s-.09-.04-.09-.04l-.07-.09-.14-.14-.16-.14-.1-.05-.1-.03h-.04s-.13.02-.13.02l-.14-.08-.13-.09h-.14s-.17.01-.17.01l-.18.08h-.09s-.14-.11-.14-.11l-.26.06Z"/><polygon class="cls-2" points="70.26 82.67 69.38 82.92 68.12 80.63 66.86 75.39 67.37 68.71 71.03 63.18 74.3 60.12 74.98 60.5 75.25 61.04 75.28 61.41 75.91 61.53 76.43 61.97 76.36 62.32 76.83 62.59 77.22 62.79 77.52 63.26 77.66 63.66 78.16 63.89 78.55 64.06 78.69 64.4 78.99 64.69 79.05 64.95 79.5 65.19 79.92 65.61 77.11 68.12 75.58 69.78 74.35 71.91 73.2 73.35 72.47 74.86 72.11 76.29 71.24 78.29 70.81 79.9 70.26 82.67"/><path class="cls-6" d="m80.24,56.01l.4,1.5c.44-.08.9-.17,1.34-.07s.87.41.94.86c.11.68-.57,1.19-1.14,1.58s-1.18,1.05-.88,1.67c.1.21.3.36.49.49.98.62,2.24.75,3.33.35"/><path class="cls-6" d="m85.26,54.34l.54,1.91c1.28-.09,2.36.89,3.3,1.77s2.16,1.76,3.4,1.43"/><path class="cls-6" d="m98.47,50.7l-1.2,1.78c-.57.84-1.15,1.72-1.29,2.72-.2,1.41.48,2.78,1.15,4.04"/><path class="cls-6" d="m106.87,49.9c-1.21,1.02-2.43,2.05-3.64,3.07-.5.43-1.02.86-1.38,1.41s-.57,1.24-.4,1.88c.27,1.01,1.35,1.56,2.35,1.87s2.1.54,2.8,1.32"/><path class="cls-6" d="m114.62,50.54c1.04-.36,2.17.77,2.04,1.87s-1.16,1.92-2.24,2.13-2.19-.07-3.24-.43-2.08-.78-3.17-.88c-.11,1.07.57,2.1,1.46,2.71s1.96.89,3,1.15c2.73.69,5.46,1.37,8.19,2.06"/><path class="cls-6" d="m129.23,57.97c.37-.99.75-2.01.73-3.07s-.5-2.18-1.45-2.64c-.53-.26-1.13-.29-1.72-.29s-1.18.03-1.75-.13-1.11-.53-1.28-1.09.15-1.27.73-1.37"/><path class="cls-6" d="m132.05,44.05c-.18.92-.37,1.84-.35,2.77s.25,1.89.83,2.62c.42.54,1.01.93,1.49,1.41.76.76,1.28,1.77,1.45,2.83"/><path class="cls-6" d="m134.39,40.16c2.04-.02,4.18.75,5.4,2.39s1.19,4.22-.34,5.57c-.18,1.15-.57,2.39-.74,3.54"/><path class="cls-6" d="m142.83,40.15c.21-.61-.04-1.3-.47-1.78s-1.01-.79-1.58-1.09c-1.2-.63-2.41-1.26-3.61-1.9-.83-.44-1.78-.89-2.68-.61"/><path class="cls-6" d="m141.88,32.46c-2.29-.92-4.63-1.85-7.09-1.92s-5.11.87-6.4,2.96c-.74,1.2-.97,2.64-1.18,4.03-.56,3.62-1.11,7.23-1.67,10.85"/><path class="cls-6" d="m120.7,48.86c-1.21-3.85-.92-8.16.8-11.82,1.14-2.42,2.86-4.52,4.56-6.58.71-.87,1.42-1.73,2.13-2.6,1.69-2.06,3.51-4.21,6.03-5.08-1.97-1.32-7.36-2.64-9.14-1.07s-2.86,3.76-4.16,5.75c-2.25,3.44-5.25,6.39-8.73,8.58-1.62,1.01-3.38,1.9-4.58,3.38s-1.66,3.8-.43,5.26c1.14,1.35,3.15,1.43,4.91,1.61s3.83.91,4.19,2.64"/><path class="cls-6" d="m103.02,49c1.11-1.44.97-3.51.32-5.2s-1.75-3.19-2.46-4.86-.99-3.7-.03-5.24c.85-1.36,2.48-2.03,4.05-2.33s3.21-.33,4.74-.81c2.95-.93,5.11-3.41,7.1-5.78,1.07-1.27,2.14-2.55,3.22-3.82.9-1.07,1.81-2.15,2.96-2.96,1.41-1,3.15-1.54,4.88-1.51"/><path class="cls-6" d="m122.76,11.09c-2.51.55-4.56,2.34-6.24,4.29s-3.1,4.12-5,5.85c-3.14,2.86-7.3,4.27-11.04,6.29-3.74,2.02-7.38,5.16-7.91,9.37-.28,2.22.34,4.43.78,6.62s.66,4.57-.34,6.57"/><path class="cls-6" d="m86.91,52.36c-1.17-2.97-2.35-5.96-2.92-9.09s-.49-6.47.78-9.39c1.34-3.08,3.88-5.46,6.35-7.74,2.62-2.42,5.26-4.85,8.32-6.68,1.99-1.19,4.14-2.11,6.22-3.14,3.72-1.84,7.25-4.06,10.53-6.61"/><path class="cls-6" d="m88.1,22.16c-2.76.07-5.41,1.78-6.59,4.27-1.19,2.5-.92,5.41-1.18,8.17-.31,3.25-1.41,6.39-1.76,9.64s.19,6.86,2.57,9.09c.32.3,1.42.74,1.85.87"/><path class="cls-6" d="m75.01,31.89c1.24,4.4,1.03,9.2-.59,13.47-.72,1.91-1.74,3.77-1.85,5.81-.14,2.48,1.05,4.82,2.21,7.02"/><path class="cls-6" d="m70.61,61.74c-.92-.64-1.37-1.78-1.56-2.88s-.15-2.24-.37-3.35-.74-2.22-1.72-2.77"/><path class="cls-6" d="m64.08,57.66c.63.47.99,1.24,1.11,2.01s.02,1.57-.14,2.34c-.33,1.6-.9,3.15-1.7,4.57"/><path class="cls-6" d="m59.5,60.18c.78.43,1,1.49.81,2.37s-.7,1.64-1.06,2.46-.55,1.81-.11,2.59"/><path class="cls-6" d="m56.91,62.03c-.66,1.69-1.32,3.39-1.98,5.08"/><path class="cls-6" d="m43.96,68.13c1.3-1.82,2.73-3.73,4.82-4.49.67-.24,1.37-.36,2.08-.47.65-.1,1.3-.21,1.94-.31"/><path class="cls-6" d="m85.84,21.39c1.1-3.12,3.55-5.61,6.35-7.37s5.95-2.87,9.07-3.96c3.28-1.15,6.56-2.3,9.84-3.45"/><path class="cls-6" d="m80.21,24c-3.33-3.6-4.45-9.09-2.79-13.7,1.66-4.61,6.01-8.14,10.87-8.8"/><path class="cls-6" d="m73,2.32c-1.2-.29-2.56.34-3.12,1.44s-.26,2.57.69,3.36c.7.59,1.72.87,2.12,1.69.41.83,0,1.8-.3,2.66-.95,2.69-.89,5.72.17,8.37s3.09,4.89,5.63,6.19"/><path class="cls-6" d="m63.97,3.04c-1.51,1.36-2.02,3.57-1.81,5.59s1.04,3.92,1.86,5.77c1.37,3.11,2.75,6.21,4.12,9.32.6,1.36,1.22,2.74,2.12,3.93s2.14,2.18,3.6,2.5"/><path class="cls-6" d="m73.31,34.42c-3.47-2.4-6.03-5.87-8.51-9.28-1.17-1.6-2.34-3.2-3.51-4.81-.97-1.32-1.94-2.66-2.58-4.17-1.59-3.73-.95-7.99-.28-11.99"/><path class="cls-6" d="m55.44,14.92c1.39,4.24,2.82,8.56,5.47,12.15,1.09,1.48,2.38,2.8,3.66,4.12,2.33,2.41,4.67,4.82,7,7.23"/><path class="cls-6" d="m65.74,37.86c1.43,1.95,3.59,3.33,5.96,3.82"/><path class="cls-6" d="m65.79,42.68c1.55,1.32,3.59,2.06,5.62,2.03"/><path class="cls-6" d="m82.83,22.19c-1.51-2.3-2.32-5.06-2.28-7.81.01-1.01.14-2.04.56-2.96s1.17-1.73,2.12-2.05c1.13-.38,2.37-.07,3.48.37s2.18,1.02,3.37,1.16c1.35.17,2.77-.26,3.8-1.16s1.64-2.25,1.65-3.61c0-.69-.14-1.39.01-2.06s.73-1.33,1.41-1.24"/><path class="cls-6" d="m47.33,12.38c-.16-1.16.51-2.3,1.39-3.07s1.96-1.28,2.95-1.9,1.95-1.42,2.36-2.51"/><path class="cls-6" d="m19.24,18.16l2.06,1.33"/><path class="cls-6" d="m22.92,15.02l.8,3.31"/><path class="cls-6" d="m26.55,17.65c-.21-1.57.4-3.23,1.58-4.29"/><path class="cls-6" d="m30.54,16.2c.11-1.98.75-3.92,1.82-5.58"/><path class="cls-6" d="m34.23,15.73c1.26-1.91,1.87-4.23,1.71-6.51"/><path class="cls-6" d="m38.53,8.24c.62.64,1.25,1.29,1.75,2.04s.86,1.6.89,2.5c.03.88-.26,1.77-.82,2.45"/><path class="cls-6" d="m43.43,15.2l1.1-4.46c.28-1.16.57-2.33.55-3.52"/><path class="cls-6" d="m10.74,42.24c-2.37.9-4.08,2.94-5.69,4.89-.84,1.02-1.67,2.03-2.51,3.05"/><path class="cls-6" d="m2.36,56.7c1.02-2.65,3.22-4.81,5.88-5.8,1.55-.57,3.23-.76,4.76-1.38s2.98-1.88,3.12-3.53"/><path class="cls-6" d="m7.33,60.15c1.37-1.82,3.35-3.06,5.28-4.26,1.7-1.06,3.4-2.11,5.1-3.17"/><path class="cls-6" d="m11.78,61.22l5.07-2.99c1.44-.85,2.88-1.7,4.25-2.66"/><path class="cls-6" d="m18.07,63.09c-.05-1.17.83-2.23,1.91-2.69s2.31-.41,3.46-.2c.88.16,1.85.39,2.64-.03.54-.28.9-.82,1.1-1.4s.24-1.19.28-1.8"/><path class="cls-6" d="m27.53,61.94l1.51-1.38"/><path class="cls-6" d="m54.84,45.91c-3.34-4.56-5.29-9.96-7.2-15.28-1.66-4.63-3.33-9.26-4.99-13.89"/><path class="cls-6" d="m53.95,48.22c-2.88-2.71-5.2-6.03-6.75-9.66-1.15-2.7-1.89-5.58-3.17-8.22-2.75-5.7-7.77-9.92-12.64-13.96"/><path class="cls-6" d="m47.63,45.3c-4.66-6.26-5.16-7.02-12.01-10.75-1.79-.98-3.68-1.75-5.47-2.74-4.46-2.47-8.06-6.21-11.58-9.89"/><path class="cls-6" d="m22.45,19.95c1.46,2.72,4.05,4.62,6.55,6.42,3.68,2.65,7.35,5.31,11.03,7.96l3.93,2.81"/><path class="cls-6" d="m27.02,18.31c3.15,1.9,4.64,6.14,8.09,7.41,2.6.95,4.88,5.47,6.91,6.58"/><path class="cls-6" d="m46.82,21.12c-.18-1.65-.36-3.35.16-4.92.31-.97.89-1.85,1.64-2.53"/><path class="cls-6" d="m49.91,16.8c1.4-2.14,2.98-4.17,4.72-6.05"/><path class="cls-6" d="m62.17,45.48c-.18-2.96-1.2-5.79-1.9-8.67-.7-2.88-1.07-5.99.02-8.75"/><path class="cls-6" d="m64.26,40.4c-1.31-2.04-2.1-4.41-2.3-6.83"/><path class="cls-6" d="m56.24,39.97l-2.06-4.68c-1.25-2.84-2.52-5.78-2.56-8.88"/><path class="cls-6" d="m57.79,37.14c-2.16-3.21-3.26-7.12-3.09-10.98"/><path class="cls-6" d="m57.01,28.63l.08-1.45"/><path class="cls-6" d="m46.46,57.16c-6.91-4.61-15.46-6.7-23.72-5.8"/><path class="cls-6" d="m24.79,54.1c3.48.51,7.02.66,10.54.45"/><path class="cls-6" d="m48.39,54.93l-10.04-6.75c-4.08-2.74-8.52-5.59-13.43-5.4-.92.04-1.86.18-2.76,0-.81-.17-1.54-.6-2.25-1.03-4.21-2.58-8.15-5.62-11.72-9.03"/><path class="cls-6" d="m33.66,48.92c-.98-1.08-2.55-1.33-4-1.53-2.1-.29-4.21-.57-6.31-.86-.99-.13-1.98-.27-2.94-.58-2.14-.69-3.92-2.21-5.49-3.82"/><polygon class="cls-1" points="45.29 58.85 45.79 58.91 46.3 58.67 49.72 56.26 51.12 55.48 52.2 54.99 52.56 55.04 52.45 55.38 46.51 59.02 46.51 59.28 47.88 59.83 48.4 59.72 52.86 56.5 53.22 56.63 53.22 56.89 49.26 59.97 49.22 60.09 49.76 60.36 50.95 60.65 51.28 60.67 51.52 60.53 53.3 58.41 53.99 57.78 54.62 57.45 54.82 57.47 54.94 57.61 54.86 57.8 54.66 57.97 53.67 58.98 52.46 60.47 52.38 60.69 52.51 60.74 54.76 60.06 54.94 59.88 55.72 58.14 55.87 57.96 56.09 57.92 56.28 58.11 56.23 58.43 55.67 59.6 55.65 59.79 55.74 59.86 56.08 59.72 57.55 58.97 59.14 57.86 59.61 57.21 59.81 56.82 59.9 56.54 59.95 56.39 59.78 56.2 58.96 55.5 58.57 55.19 58.36 55.09 58.06 55.07 57.77 55.2 57.36 55.28 57.03 55.3 56.67 55.21 56.43 55.08 56.1 54.92 55.71 54.84 55.43 54.83 55.27 54.74 55.16 54.51 55.12 54.26 55.06 54.11 54.9 53.96 54.84 53.84 55 53.49 55.45 52.95 55.81 52.64 56.75 52.01 58.32 51.17 59.42 50.69 60.08 50.47 60.67 50.36 61.25 50.4 61.76 50.55 62.08 50.75 62.21 50.99 62.24 51.3 62.24 51.71 62.15 52 62.02 52.22 61.78 52.43 61.65 52.6 61.66 52.93 61.7 53.34 61.74 53.99 61.73 54.4 61.63 55.05 61.6 55.26 61.63 55.55 61.75 55.81 62.01 55.86 62.67 55.7 63.49 55.3 63.76 55.09 63.93 54.86 64.01 54.67 64.2 54.06 64.41 52.98 64.52 52.17 64.52 52.12 64.44 52.01 64.33 52 63.6 52.11 63.45 52.13 63.35 52.08 63.3 51.94 63.45 51.75 63.86 51.51 64.52 51.29 64.71 51.18 64.83 50.98 64.85 50.39 64.75 50.31 64.64 50.31 64.45 50.45 64.28 50.59 64.02 50.65 63.57 50.73 63.41 50.62 63.39 50.42 63.57 50.24 63.95 50.02 64.27 49.86 64.68 49.64 64.85 49.43 64.85 49.03 64.77 48.84 64.62 48.7 64.45 48.76 64.23 48.94 63.93 49.05 63.27 49.41 63 49.54 62.87 49.5 62.87 49.37 63 49.25 63.54 48.78 64 48.42 64.42 48.15 64.57 47.97 64.56 47.75 64.43 47.69 64.26 47.75 63.93 48 63.45 48.3 63.23 48.5 62.71 48.91 62.13 49.42 62.01 49.58 61.81 49.66 61.65 49.65 61.53 49.56 61.54 49.39 62.14 48.73 63.08 47.93 64 47.3 64.21 47.1 64.26 47 64.27 46.82 64.16 46.41 63.49 46.41 63.03 46.11 62.6 46.33 60.94 46.46 60.08 46.75 59.7 46.71 58.9 46.71 58.13 46.95 57.62 46.5 57.2 46.5 56.65 46.11 55.81 46.11 54.9 45.48 54.9 46.11 54.6 46.58 54.6 46.95 54.05 47.55 53.92 48.5 53.58 48.71 53.37 49.61 52.69 50.03 52.22 51.12 51.03 51.65 50.94 52.41 50.35 53.11 50.18 53.86 49.66 54.03 49.11 54.97 48.47 55.26 48.43 55.82 47.96 55.9 47.49 56.71 47.15 56.67 46.86 57.31 45.49 57.9 45.29 58.85"/><path class="cls-6" d="m16.44,25.31c4.75,5.7,10.72,10.23,16.63,14.71,2.22,1.68,4.44,3.36,6.66,5.05,1.51,1.14-1.64-1.24,1.51,1.14"/><path class="cls-6" d="m32.69,36.4c3.18,2.29,6.35,4.58,9.53,6.87"/><path class="cls-6" d="m25.83,39.02c-2.14-.08-4-1.47-5.61-2.88s-3.25-2.96-5.33-3.49"/><path class="cls-6" d="m14.18,26.88c1.65,1.78,3.3,3.55,4.96,5.33"/><polygon class="cls-7" points="42.87 49.25 43.72 50.11 45.29 50.54 46.23 50.72 47.63 50.2 48.39 49.61 48.99 48.63 49.05 47.31 48.61 47.3 48.08 47.13 47.63 46.99 47.26 46.94 46.97 46.98 46.67 46.95 46.46 46.98 45.65 47.31 43.6 47.58 43.12 47.64 42.36 47.76 42.87 49.25"/><path class="cls-9" d="m49.2,47.31c-.5.02-.91-.11-1.3-.24-.28-.09-.59-.2-.85-.09-.27.12-.7.29-1,.38-.83.27-1.49.27-2.45.21-.38-.02-.85.2-1.23.18-.24-.01-.46-.16-.55-.31-.05-.08.37-.33.57-.34,1.32-.06,2.47-.39,3.67-.64.13-.03.26-.06.41-.05,1.1.06,2.15.18,3,.58.04.02.09.04.12.07.07.06.22.11.14.19-.07.07-.22.05-.35.06-.06,0-.12,0-.17,0Z"/><polygon class="cls-9" points="45.29 47.36 45.16 47.76 45.16 48.43 45.29 48.83 45.57 49.45 46.23 50.31 46.46 50.63 46.72 49.77 46.72 49.1 46.23 48.22 45.94 47.57 45.65 47.31 45.29 47.36"/><polygon class="cls-7" points="61.05 39.59 61.42 40.52 61.22 41.85 61.04 42.62 60.18 43.5 59.48 43.88 58.54 44.01 57.52 43.61 57.66 43.28 57.71 42.82 57.75 42.43 57.84 42.14 57.97 41.93 58.04 41.7 58.14 41.55 58.65 41.04 59.55 39.58 59.75 39.24 60.06 38.62 61.05 39.59"/><polygon class="cls-9" points="58.81 40.79 59.16 40.82 59.67 41.04 59.92 41.28 60.3 41.7 60.74 42.49 60.9 42.77 60.16 42.68 59.65 42.45 59.15 41.79 58.76 41.35 58.65 41.04 58.81 40.79"/><path class="cls-9" d="m57.07,42.52c.09-.46.32-.85.59-1.16.35-.4.4-.71.69-1.14.4-.6.77-1.23,1.25-1.78.1-.11.2-.33.37-.26.18.07.09.29.09.44.01.35-.13.67-.31.96-.39.63-.7,1.3-1.14,1.89-.11.14-.19.3-.23.47-.06.24-.2.42-.43.52-.24.11-.18.42-.27.65-.08.2-.08.77-.39.7-.3-.06-.35-.44-.33-.73,0-.05.11-.51.11-.56Z"/></g></svg>