<?xml version="1.0" encoding="UTF-8"?><svg id="Layer_2" xmlns="http://www.w3.org/2000/svg" viewBox="0 0 126.66 80.68"><defs><style>.cls-1{fill:none;stroke:#231f20;}.cls-1,.cls-2{stroke-linecap:round;stroke-linejoin:round;}.cls-3{fill:#9a8479;}.cls-2{stroke:#372c25;}.cls-2,.cls-4{fill:#372c25;}.cls-5,.cls-6{fill:#5a4a42;}.cls-6{stroke:#5a4a42;stroke-miterlimit:10;stroke-width:2px;}.cls-7{fill:#231f20;}.cls-8{fill:#c1b49a;}</style></defs><g id="Sleep_Mona"><path class="cls-5" d="m120.86,47.89c.66.38.84.91.68,1.59-.24,1.06-.55,2.13-.75,3.21-.21,1.17-1.63,1.78-2.61,1.75-1.52-.05-3.03-.28-4.55-.47-2.29-.28-4.53-.75-6.7-1.55-.74-.28-1.61-.25-2.59-.37.97-.48,1.85-.83,2.64-1.32.88-.54,1.67-1.2,2.49-1.81.04-.03.06-.08.1-.11,1.5-.77,1.96-2.34,2.9-3.52.34-.42.6-.54,1.17-.47,2.74.34,4.93,1.78,7.21,3.07Z"/><path class="cls-5" d="m91.38,45.54c.47-.9.31-1.77-.29-2.57-.11-.15-.35-.29-.54-.3-1.07-.06-1.74-.68-2.33-1.42-1.22-1.53-1.14-2.16.44-3.32.18-.14.53-.23.72-.15.18.07.31.38.36.6.06.3.02.62,0,.93-.02.45.12.85.6.96.95.2,1.3.9,1.62,1.63.13.31.23.65.42.91.57.75.46,1.46,0,2.21-.62,1-1.21,2.02-1.82,3.03l-.43-.23c.43-.75.85-1.5,1.25-2.27Z"/><path class="cls-5" d="m87.89,49.87c.22.38.43.76.62,1.15-.06.02-.1.05-.15.08-.11-.15-.3-.29-.35-.44-.02-.03-.02-.06-.02-.09,0-.25-.04-.47-.1-.7Z"/><path class="cls-5" d="m78.01,37.23c.15.37.38.74.67,1.03.86.83,1.82,1.58,2.65,2.44.91.94,1.77,1.94,2.55,2.98,1.03,1.38,1.96,2.83,2.95,4.23.44.63.88,1.25,1.06,1.97-1.05-1.86-2.37-3.59-3.78-5.23-1.83-2.13-3.83-4.11-5.98-5.94-3.47-2.96-7.31-5.53-11.38-7.67-2.04-1.08-4.14-2.05-6.28-2.93-.7-.28-5.79-1.75-5.54-2.4.15-.41.53-.41.93-.2.51.25,1.03.48,1.57.68,1.77.65,3.67,1.09,5.31,1.96,3.49,1.85,7.13,3.51,10.24,5.97,1.06.85,2.24,1.58,3.55,2.5-.17-.42-.22-.68-.36-.87-.64-.86-1.3-1.69-1.96-2.54-.54-.68-1.01-1.39-.89-2.28.03-.25.31-.47.48-.7.17.22.49.44.5.67.02.85.43,1.52,1.01,2.1,1.26,1.22,2.04,2.69,2.69,4.26Z"/><path class="cls-5" d="m2.4,32.62c.54-.97,1.04-1.98,1.69-2.87,1.6-2.2,3.18-4.42,4.96-6.49,1.03-1.19,2.49-2.07,3.66-3.17.84-.79,1.61-1.68,2.3-2.6.96-1.28,2-2.44,3.57-3.07,1.73-.7,3.43-1.39,4.94-2.54,1.11-.84,2.54-1.32,3.83-1.96.29-.15.6-.27.85-.45,2.6-1.85,5.46-3.12,8.63-3.88,2.71-.64,5.32-1.7,8.04-2.33,2.1-.48,4.3-.68,6.46-.83,1.65-.11,3.29-.15,4.93-.43,2.04-.35,4.14-.5,6.22-.57,2.41-.09,4.83-.09,7.23,0,1.55.06,3.08.38,4.63.57.37.05.75.08,1.13.09,4.06.11,8.13.21,12.21.33,1.42.05,2.86.09,4.27.28.77.11,1.54.44,2.22.82,2.54,1.4,5.07,2.83,7.56,4.31,1.24.75,1.98,1.95,2.53,3.22.45,1.06.79,2.17,1.32,3.19.41.78,1.04,1.45,1.57,2.17.14.2.31.39.45.56-1.21-.21-2.37-.51-3.54-.57-2.16-.11-4.32-.12-6.48-.09-.49,0-1,.28-1.45.52-.48.25-.56.7-.25,1.1.32.43.59,0,.89-.11.52-.2,1.07-.48,1.6-.48,2.13,0,4.28-.02,6.4.17,2,.18,3.95.65,5.76,1.53.13.06.23.18.47.36-.56.05-1.01.04-1.42.15-.25.07-.59.31-.63.52-.08.41.28.54.68.54,1.01,0,2.02.07,3.02,0,2.27-.16,4.43.38,6.62.8,1.22.23,2.48.34,3.71.54.49.08.97.22,1.44.39.18.06.29.29.43.44-1.79.24-3.48.39-5.14.71-2.7.53-5.11,1.68-7.28,3.27-.14.1-.27.45-.21.5.18.16.47.36.67.31.35-.07.72-.25.99-.47,1.59-1.35,3.57-1.92,5.55-2.44,1.24-.31,2.52-.47,3.77-.7.02.08.06.15.08.22-.81,1.01-1.53,2.11-2.46,3.01-.86.83-1.94,1.47-2.92,2.21-.17.13-.31.31-.52.53,1.26.77.62,1.94.76,2.95.16,1.13-.32,2.01-1.04,2.88-1.83,2.21-3.03,4.77-4.45,7.21-1.14,1.96-2.16,4.08-4.11,5.48-1.27.92-2.67,1.67-4.01,2.49-.15.09-.32.15-.46.25-1.62,1.19-3.36,1.49-5.33.83-.59-.2-1.3-.07-1.95-.11-1.06-.08-1.15-.31-.64-1.19,1.01-1.76,2.61-2.58,4.59-3.18,1.05-.31,1.79.09,2.66.16,1.46.11,2.37-.26,3.02-1.51.06-.12.07-.38,0-.44-.2-.14-.54-.34-.7-.27-.96.46-1.87.11-2.79-.07-1.34-.25-2.49.34-3.02,1.55-.07.17-.25.38-.42.42-1.62.38-2.76,1.31-3.54,2.68-.11.21-.26.41-.39.61-.59.89-1.21,1.07-2.14.49-.92-.58-1.76-1.26-2.65-1.89-.48-.34-.48-.74-.2-1.19,0,0,0,0,0-.02.61-1,1.2-2.03,1.82-3.03.47-.74.58-1.46,0-2.21-.19-.26-.29-.61-.42-.91-.32-.74-.67-1.43-1.62-1.63-.48-.11-.63-.51-.6-.96.02-.31.06-.63,0-.93-.05-.22-.19-.53-.36-.6-.19-.08-.55.02-.72.15-1.59,1.16-1.67,1.78-.44,3.32.6.74,1.26,1.36,2.33,1.42.19,0,.43.15.54.3.6.8.76,1.67.29,2.57-.39.77-.81,1.52-1.25,2.27-.14.25-.28.5-.43.75-.06.1-.19.2-.29.21-.84.11-.93.65-.86,1.3.03.31,0,.62,0,.93-.02,0-.04.02-.06.03-.19-.39-.4-.77-.62-1.15-.19-.72-.62-1.34-1.06-1.97-1-1.4-1.92-2.85-2.95-4.23-.78-1.04-1.64-2.04-2.55-2.98-.83-.86-1.79-1.6-2.65-2.44-.29-.28-.51-.66-.67-1.03-.64-1.57-1.42-3.04-2.69-4.26-.59-.57-.99-1.25-1.01-2.1,0-.23-.33-.44-.5-.67-.17.23-.45.45-.48.7-.13.89.35,1.6.89,2.28.66.84,1.32,1.68,1.96,2.54.14.19.19.45.36.87-1.31-.92-2.49-1.65-3.55-2.5-3.11-2.47-6.75-4.12-10.24-5.97-1.64-.87-3.54-1.31-5.31-1.96-.54-.2-1.06-.43-1.57-.68-.4-.21-.78-.21-.93.2-.24.65,4.84,2.12,5.54,2.4,2.15.87,4.25,1.85,6.28,2.93,4.07,2.14,7.91,4.71,11.38,7.67,2.15,1.83,4.15,3.81,5.98,5.94,1.42,1.64,2.73,3.37,3.78,5.23.06.22.1.45.1.7,0,.03,0,.06.02.09.06.15.24.29.35.44.05-.03.1-.05.15-.08,0,.02.02.04.03.06.61,1.22,1.17,1.1,2.57,1.13,1.51.03,3.04.04,4.5.49.49.15,1.05.08,1.57.15.82.1,1.63.22,2.45.34,1.63.23,3.27.44,4.9.71,1.07.18,2.13.44,3.19.71,2.37.6,4.73,1.22,7.09,1.85.56.15,1.09.38,1.6.63.27.12.49.35.85.62-1.09.11-2,.17-2.9.31-2.2.34-4.11,1.32-5.94,2.49-.64.41-1.37.7-2.02,1.1-.39.23-.88.47-.68,1.06.19.55.72.41,1.14.44.22.02.43,0,.73,0-.06.15-.07.25-.13.3-1.33,1.01-2.45,2.28-4.1,2.86-2.82.98-5.64,1.97-8.46,2.97-2.63.93-5.24,1.91-7.87,2.84-.58.21-1.19.34-1.79.49-1.8.44-3.6.85-5.39,1.31-.22.05-.5.33-.51.52s.23.5.44.58c.63.23,1.29.38,1.94.56.19.05.38.08.6.27-.25.11-.49.23-.75.31-1.37.44-2.73.94-4.12,1.29-2.41.62-4.84,1.25-7.3,1.68-1.56.28-3.19.26-4.8.28-4.63.04-9.26.11-13.88,0-2.8-.07-5.58-.57-8.38-.69-3.33-.14-6.57-1.13-9.95-.9-1.96.14-3.82-.51-5.58-1.28-2.24-.97-4.63-1.39-6.97-2-.56-.15-1.11-.43-1.59-.75-1.32-.86-2.57-1.82-3.91-2.65-1.02-.64-1.93-1.34-2.62-2.31-.51-.71-1.13-1.34-1.68-2.02-.72-.89-1.38-1.82-2.09-2.7-.22-.27-.51-.47-.78-.69-.12.34-.31.67-.35,1.02-.06.44-.02.88-.02,1.32-.07.02-.14.04-.2.05-.15-.49-.42-.98-.45-1.48-.19-2.86-1.42-5.43-2.42-8.07-.41-1.1-.77-2.21-1.01-3.35-.38-1.7-.64-3.42-.93-5.14-.13-.77-.27-1.56-.27-2.34-.03-2.8-.22-5.61.62-8.33.24-.8.64-1.61,1.15-2.28.82-1.08,1.79-2.07,2.72-3.06.32-.34.13-.54-.1-.79-.31-.34-.47-.1-.72.1-1.04.82-2.1,1.62-3.17,2.4-.18.14-.42.21-.77.19.13-.34.23-.7.4-1.03Z"/><path class="cls-5" d="m120.8,52.68c.2-1.08.51-2.14.75-3.21.16-.67-.02-1.21-.68-1.59-2.28-1.29-4.47-2.73-7.21-3.07-.57-.07-.84.05-1.17.47-.95,1.19-1.4,2.75-2.9,3.52-.04.02-.06.08-.1.11-.83.61-1.62,1.27-2.49,1.81-.79.49-1.67.84-2.64,1.32.98.12,1.85.09,2.59.37,2.17.8,4.41,1.27,6.7,1.55,1.52.19,3.03.41,4.55.47.99.03,2.41-.57,2.61-1.75ZM3.86,57.55c-.83-2.06-1.5-4.13-1.78-6.33-.23-1.79-.79-3.55-.93-5.35-.18-2.25-.39-4.53.23-6.77.15-.54.14-1.14.31-1.68.27-.92.62-1.82.93-2.73-.84.07-1.35.88-2.33,1.4,0-.47-.1-.83,0-1.13,1.05-3.03,2.78-5.69,4.78-8.23.9-1.15,1.74-2.34,2.63-3.49,1.13-1.46,2.53-2.64,4.09-3.68.94-.63,1.68-1.39,2.22-2.38.95-1.73,2.38-2.97,4.3-3.74,1.68-.67,3.34-1.36,4.8-2.49,1.03-.8,2.38-1.2,3.57-1.82.6-.31,1.14-.68,1.72-1.02.83-.48,1.68-.94,2.49-1.45,2.25-1.38,4.88-1.83,7.35-2.64,2.24-.74,4.51-1.41,6.81-1.93,1.67-.38,3.42-.62,5.13-.66,2.12-.04,4.2-.24,6.29-.51,5.15-.67,10.35-.97,15.48-.33,4.1.51,8.17.31,12.25.51,1.85.09,3.69.31,5.54.47.25.02.51.09.75.05,1.86-.3,3.35.47,4.84,1.38,1.79,1.1,3.6,2.18,5.49,3.12,2.16,1.09,3.6,2.7,4.5,4.81.3.71.64,1.4.89,2.12.81,2.31,2.7,3.74,4.67,5.07.51.34.96.59.94,1.26.22.02.42.06.61.05,2.08-.13,4.08.31,6.09.75,1.67.37,3.41.51,5.11.81.8.15,1.57.46,2.37.68.5.14.5.43.26.75-.42.57-.85,1.12-1.32,1.65-.72.83-1.56,1.57-2.17,2.46-.72,1.03-1.63,1.78-2.76,2.34-.52.26-.71.64-.67,1.22.05.88-.03,1.77.02,2.65.07,1.12-.34,2.04-1.01,2.93-1.71,2.25-3.24,4.6-4.35,7.18-.39.93-.37.91.6,1.16,1.15.3,2.29.68,3.39,1.12.96.39,1.87.91,2.79,1.38,1.57.8,2.1,2.03,1.67,3.89-.19.79-.39,1.58-.6,2.36-.53,2.03-3.18,3.31-5.46,2.67-.4-.11-.8-.19-1.21-.28,0,.06-.02.13-.03.19.66.32,1.34.61,1.98.97.41.21.85.46,1.13.8.23.28.4.8.27,1.08-.13.27-.65.46-1.04.52-1.43.25-2.89.34-4.3.64-1.87.41-3.44,1.39-4.92,2.53-.14.11-.25.26-.38.39.02.07.04.15.06.21.66,0,1.33-.05,1.98.02.31.03.6.29.9.45-.24.21-.45.57-.72.62-1.48.31-2.62,1.1-3.75,2.03-.77.63-1.66,1.2-2.59,1.55-2.77,1.04-5.59,1.95-8.39,2.93-2.3.8-4.62,1.59-6.89,2.47-1.29.51-2.55.95-3.94,1.11-.66.08-1.28.38-1.92.57.02.09.04.18.06.28,1.09,0,2.18-.02,3.27,0,.3,0,.75-.19.82.35.06.48-.28.6-.66.71-2.2.67-4.39,1.35-6.57,2.03-1.42.44-2.82.96-4.26,1.36-2.78.77-5.55,1.46-8.49,1.42-5.41-.05-10.81.05-16.21-.04-2.28-.04-4.55-.34-6.81-.6-2.44-.28-4.87-.64-7.3-.93-.62-.08-1.26-.1-1.88-.05-2.57.2-4.94-.38-7.31-1.3-1.94-.74-3.99-1.26-6.03-1.75-1.42-.34-2.64-.87-3.71-1.88-.9-.83-2.04-1.46-3.15-2.07-1.02-.57-1.84-1.29-2.53-2.19-.72-.95-1.5-1.86-2.27-2.76-.25-.29-.58-.51-1.01-.88-.06,1.05-.1,1.92-.14,2.8-.09.03-.18.05-.27.08-.2-.18-.46-.32-.6-.54-1.01-1.49-1.68-3.03-1.89-4.89-.22-2-1.04-3.97-1.8-5.87Zm.23-27.8c-.65.9-1.15,1.9-1.69,2.87-.18.32-.27.68-.4,1.03.35.02.6-.05.77-.19,1.07-.79,2.13-1.59,3.17-2.4.25-.2.42-.44.72-.1.23.25.42.44.1.79-.93,1-1.9,1.98-2.72,3.06-.51.67-.91,1.48-1.15,2.28-.84,2.72-.65,5.53-.62,8.33,0,.78.14,1.57.27,2.34.29,1.72.55,3.44.93,5.14.24,1.13.6,2.25,1.01,3.35,1,2.64,2.24,5.21,2.42,8.07.03.5.3.99.45,1.48.06-.02.13-.03.2-.05,0-.44-.05-.89.02-1.32.05-.34.23-.68.35-1.02.27.22.56.42.78.69.71.88,1.38,1.81,2.09,2.7.55.68,1.17,1.31,1.68,2.02.69.97,1.6,1.67,2.62,2.31,1.34.83,2.59,1.79,3.91,2.65.48.32,1.03.61,1.59.75,2.34.61,4.73,1.03,6.97,2,1.75.77,3.62,1.42,5.58,1.28,3.39-.24,6.62.76,9.95.9,2.8.11,5.58.62,8.38.69,4.62.11,9.25.04,13.88,0,1.6-.02,3.23,0,4.8-.28,2.46-.44,4.88-1.06,7.3-1.68,1.39-.35,2.75-.85,4.12-1.29.26-.08.5-.21.75-.31-.23-.19-.42-.22-.6-.27-.65-.18-1.31-.33-1.94-.56-.21-.08-.45-.39-.44-.58s.29-.47.51-.52c1.79-.46,3.59-.87,5.39-1.31.6-.15,1.21-.28,1.79-.49,2.63-.93,5.24-1.91,7.87-2.84,2.82-1,5.63-1.99,8.46-2.97,1.66-.57,2.78-1.85,4.1-2.86.06-.05.06-.15.13-.3-.3,0-.51.02-.73,0-.43-.03-.96.11-1.14-.44-.19-.58.3-.83.68-1.06.65-.4,1.38-.69,2.02-1.1,1.83-1.17,3.73-2.15,5.94-2.49.9-.14,1.81-.19,2.9-.31-.36-.27-.58-.5-.85-.62-.51-.25-1.05-.48-1.6-.63-2.36-.64-4.71-1.26-7.09-1.85-1.05-.27-2.12-.53-3.19-.71-1.63-.28-3.27-.48-4.9-.71-.82-.11-1.63-.24-2.45-.34-.52-.06-1.08,0-1.57-.15-1.46-.45-2.99-.46-4.5-.49-1.4-.03-1.96.09-2.57-1.13,0-.02-.02-.04-.03-.06.02,0,.04-.02.06-.03,0-.31.02-.62,0-.93-.06-.65.02-1.19.86-1.3.1,0,.23-.11.29-.21.14-.25.29-.5.43-.75l.43.23s0,0,0,.02c-.28.45-.28.85.2,1.19.89.63,1.73,1.31,2.65,1.89.93.58,1.55.4,2.14-.49.14-.21.28-.41.39-.61.78-1.37,1.92-2.3,3.54-2.68.17-.05.35-.25.42-.42.52-1.2,1.67-1.79,3.02-1.55.92.18,1.83.53,2.79.07.16-.07.5.13.7.27.08.05.07.31,0,.44-.65,1.25-1.55,1.62-3.02,1.51-.87-.07-1.61-.47-2.66-.16-1.98.6-3.57,1.42-4.59,3.18-.51.88-.42,1.1.64,1.19.65.05,1.36-.08,1.95.11,1.96.67,3.71.37,5.33-.83.14-.1.31-.15.46-.25,1.34-.82,2.74-1.57,4.01-2.49,1.96-1.39,2.97-3.52,4.11-5.48,1.42-2.44,2.61-5,4.45-7.21.72-.87,1.2-1.75,1.04-2.88-.14-1.01.49-2.18-.76-2.95.22-.22.35-.4.52-.53.98-.74,2.06-1.37,2.92-2.21.93-.9,1.65-2,2.46-3.01-.02-.08-.06-.15-.08-.22-1.26.23-2.53.39-3.77.7-1.98.51-3.96,1.09-5.55,2.44-.27.23-.64.41-.99.47-.2.05-.49-.15-.67-.31-.06-.05.07-.4.21-.5,2.17-1.59,4.59-2.74,7.28-3.27,1.66-.32,3.36-.47,5.14-.71-.14-.15-.25-.38-.43-.44-.47-.17-.95-.31-1.44-.39-1.23-.2-2.49-.31-3.71-.54-2.19-.41-4.35-.96-6.62-.8-1,.08-2.01,0-3.02,0-.4,0-.76-.12-.68-.54.04-.21.38-.45.63-.52.41-.11.85-.11,1.42-.15-.24-.18-.34-.3-.47-.36-1.81-.88-3.77-1.35-5.76-1.53-2.12-.19-4.26-.18-6.4-.17-.53,0-1.08.28-1.6.48-.3.11-.56.54-.89.11-.31-.41-.23-.86.25-1.1.45-.24.96-.52,1.45-.52,2.16-.03,4.32-.02,6.48.09,1.17.06,2.33.37,3.54.57-.14-.17-.31-.36-.45-.56-.53-.72-1.16-1.39-1.57-2.17-.53-1.02-.87-2.13-1.32-3.19-.56-1.27-1.3-2.47-2.53-3.22-2.49-1.49-5.01-2.91-7.56-4.31-.68-.38-1.45-.71-2.22-.82-1.41-.19-2.85-.24-4.27-.28-4.07-.12-8.14-.21-12.21-.33-.38,0-.76-.05-1.13-.09-1.54-.19-3.07-.51-4.63-.57-2.41-.1-4.83-.1-7.23,0-2.08.08-4.18.22-6.22.57-1.64.28-3.28.32-4.93.43-2.16.15-4.36.34-6.46.83-2.72.63-5.33,1.68-8.04,2.33-3.17.76-6.03,2.02-8.63,3.88-.26.18-.56.31-.85.45-1.29.64-2.72,1.12-3.83,1.96-1.51,1.15-3.21,1.85-4.94,2.54-1.58.63-2.61,1.79-3.57,3.07-.69.92-1.46,1.82-2.3,2.6-1.17,1.1-2.63,1.98-3.66,3.17-1.78,2.07-3.36,4.29-4.96,6.49Z"/><path class="cls-6" d="m89.14,14.02c-1.05.89-2.19,1.89-3.38,2.84-.73.58-1.53,1.06-2.29,1.61-.65.48-1.28.99-1.92,1.49-.71.56-1.41,1.13-2.13,1.68-.62.48-1.26.94-1.9,1.39-.25.18-.49.65-.85.25-.31-.35-.33-.8.13-1.13.52-.37,1.08-.7,1.59-1.08.86-.64,1.69-1.32,2.56-1.96.79-.59,1.6-1.14,2.4-1.72.66-.47,1.34-.92,1.97-1.42,1.18-.93,2.34-1.87,3.48-2.83.43-.36.81-.31,1.18.03.79.73,1.64,1.42,2.33,2.23,1.5,1.76,2.91,3.58,4.35,5.39.3.38.63.76.84,1.18.17.33.2.72.24,1.09.01.12-.18.36-.27.36-.16,0-.36-.13-.47-.26-1.01-1.3-2.01-2.61-3.01-3.92-.8-1.04-1.52-2.14-2.4-3.12-.68-.75-1.55-1.35-2.46-2.12Z"/><polygon class="cls-3" points="85.51 27.51 87.1 27.64 89.65 27.77 90.85 27.39 91.41 26.45 92.03 24.75 92.16 23.49 91.82 22.28 90.65 20.37 90.24 19.69 90.27 19.13 89.05 18.41 88.86 19.23 88.11 20.23 87.1 21.48 86.21 22.69 85.78 23.81 85.6 25.63 85.51 27.51"/><polygon class="cls-3" points="92.77 15.94 89.99 13.17 89.36 12.89 88.4 13.47 86.17 15.3 84.33 16.7 82.26 18.16 80.48 19.46 78.88 20.7 77.76 21.51 76.8 22.15 76.45 22.68 76.67 23.28 77.14 23.44 77.52 23.03 78.39 22.41 80.16 21.06 83.91 18.16 85.76 16.86 89.14 14.02 89.65 14.44 91.1 15.63 92.16 16.8 93.24 18.16 95.04 20.62 97 23.17 97.74 23.06 97.51 21.97 96.04 19.92 94.77 18.41 92.77 15.94 103.27 9.28 104.02 10.55 104.98 12.89 105.58 14.24 107.6 16.97 106.23 16.71 102.92 16.29 100.04 16.29 97.58 16.3 96.13 16.82 95.89 17.93 97.74 17.44 100.56 17.33 106.22 17.69 108.28 18.16 110.3 18.85 110.99 19.39 108.95 20.06 109.64 20.6 111.24 20.59 112.65 20.59 115.05 20.65 117.1 20.97 120.15 21.53 122.98 21.92 124.85 22.76 122.18 23.09 119.71 23.47 117.67 24.01 115.05 25.11 113.68 25.9 112.22 27.24 112.88 27.56 114.53 27.77 115.25 28.43 116.27 29.31 117.38 29.9 118.18 31.46 118.07 34.05 116.74 36.19 114.74 39.23 112.97 42.39 111.19 45.45 108.54 48.42 104.52 50.9 101.53 52.26 99.55 52.2 98.74 51.98 97.72 51.86 96.8 51.86 96.18 51.77 95.86 51.38 96.15 50.68 97.69 48.92 99.64 47.87 101.14 47.41 102.73 47.55 104.33 47.65 105.53 47.22 106.28 46.39 106.4 45.72 105.71 45.45 104.94 45.66 103.41 45.48 101.77 45.38 100.83 45.77 100.28 46.28 99.72 47.18 98.61 47.62 97.67 48.12 96.85 48.8 95.94 50.03 95 51.24 94.33 51.46 93.78 51.33 91.83 50.03 90.75 49.24 90.37 48.7 90.55 48.05 92.16 45.37 92.66 44.46 92.76 43.63 92.16 42.38 91.71 41.36 91.41 40.9 90.76 40.39 89.93 40.01 89.76 39.15 89.77 38.76 89.65 38.1 89.05 37.77 88.42 38.11 87.87 38.59 87.44 39.22 87.39 39.78 88.22 41.25 89.05 42.1 89.51 42.39 90.55 42.67 91.09 42.97 91.47 43.62 91.65 44.53 91.54 45.16 91.09 46.08 90.53 47.1 90.19 47.71 89.42 48.76 88.83 48.99 88.55 49.61 88.57 50.44 88.35 51.1 88.13 51.11 87.98 50.57 87.86 49.77 87.54 49 86.17 46.96 84.17 44.09 82.55 42.04 81.32 40.7 79.64 39.15 78.01 37.23 77.17 35.46 76.45 34.3 75.32 32.97 74.37 31.38 73.8 30.21 73.49 30.58 73.23 31.46 73.61 32.31 74.65 33.76 75.46 34.81 76.02 35.53 76.53 36.6 75.18 35.68 71.82 33.25 66.75 30.22 63.33 28.45 61.02 27.38 58.59 26.57 57.42 26.17 55.85 25.49 56.63 24.45 56.63 22.56 57.38 22.5 57.38 21.19 58.48 21.19 58.14 20.09 58.89 19.63 58.82 19.02 59.51 18.72 60.33 18.16 61.29 16.96 61.43 16.05 61.49 15 61.49 14.68 62.04 13.89 62.59 13.31 63.42 12.89 63.89 12.53 65.05 11.81 65.6 11.03 66.01 10.05 65.94 8.81 66.36 7.7 67.72 7.77 68.89 7.7 69.85 7.39 70.46 6.46 70.67 5.68 70.67 4.57 71.15 3.6 71.9 3.6 72.86 2.29 73.13 1.82 76.83 2.12 80.26 2.21 84.33 2.32 91.41 2.64 92.54 2.83 93.73 3.3 95.76 4.4 98.68 6.05 101.34 7.6 103.27 9.28 92.77 15.94"/><path class="cls-5" d="m84.35,26.68c.13-2.43.52-4.62,2.35-6.32.28-.26.43-.64.66-.95.23-.31.42-.68.73-.89.24-.15.63-.09.96-.12-.06.28-.03.61-.19.82-.63.86-1.29,1.71-1.99,2.51-.92,1.05-1.26,2.26-1.29,3.58-.01.52.02,1.05,0,1.58-.01.33.14.78-.5.74-.51-.03-.81-.22-.73-.76.02-.12,0-.24,0-.2Z"/><path class="cls-5" d="m90.85,27.39c.81-1.2,1.33-2.48,1.31-3.9,0-.41-.14-.85-.34-1.21-.49-.88-1.07-1.72-1.58-2.59-.08-.14-.07-.41.03-.56.06-.1.36-.14.51-.09.2.07.4.22.53.38,1.73,2.15,2.62,4.45,1.28,7.1-.2.4-.52.76-.85,1.07-.34.31-.68.22-.89-.19Z"/><polygon class="cls-8" points="113.86 27.68 114.53 27.77 115.38 28.55 116.27 29.31 117.38 29.9 118.56 28.9 119.47 28.27 120.64 27.34 121.52 26.41 122.47 25.21 123.04 24.47 123.28 24.16 123.2 23.94 121.15 24.28 118.9 24.78 117.22 25.29 115.26 26.14 114.47 26.63 113.72 27.2 112.98 27.53 113.86 27.68"/><polygon class="cls-8" points="89.05 18.41 90.27 19.13 90.19 19.43 90.35 19.87 90.77 20.56 91.21 21.25 91.49 21.81 91.97 22.59 92.16 23.09 92.16 23.49 92.16 24.13 92.03 24.75 91.84 25.44 91.58 26.11 91.21 27.04 90.85 27.39 89.65 27.77 89.26 27.64 88.83 27.35 88.1 27.39 87.62 27.32 86.69 27.22 86.32 27.42 85.51 27.51 85.53 27.04 85.56 26.38 85.59 25.07 85.72 24.07 86.21 22.69 86.87 21.74 87.62 20.85 88.14 20.19 88.54 19.66 88.86 19.23 89.05 18.41"/><path class="cls-4" d="m78.24,37.51l.1.12,1.3,1.52,1.68,1.55,1.58,1.78,1.9,2.5.97,1.39,1.25,2,.6.95.21.72.16.53.15.55h.22s.22-.67.22-.67l-.03-.83.87-.85.42-.58,1.12-1.67.59-1.36.11-.63v-.6l-.18-.3-.38-.65-.54-.3-1.04-.28-.46-.3-.58-.6-.45-.62-.62-1.1.05-.56.69-.86.91-.59.6.33.09,1.21.18.71,1.25.7.9,1.47.69,1.45-.26,1.17-.94,1.56-.65,1.09-.36.6-.18.65.38.54.29.21,1.71,1.19,1.02.68.55.14.67-.22.94-1.22.91-1.23,1.04-.8,1.22-.58.62-.24.56-.9.55-.51.93-.39,1.16.07,1.41.2h.61s.76-.21.76-.21l.7.27-.12.67-.75.83-1.2.43-3.19-.24-1.51.47-1.54.8-.4.26-.61.69-.53.52-.4.54-.29.71.33.38.93.09,1.62.12.81.22,1.21.04.77.02,2.99-1.36.75-.46,2.03-1.25,1.24-.77,1.78-2.01.86-.97.88-1.33,1.24-2.34-1.3.19-1.28.39-.98.34-1.75.64-.51-.1h-.87l-1.13.15h-.77l-1.39-.64-1.28-.24.56-2.17.67-.91-.1-1.03v-1.52l.46-1.17.26-1.03-.1-1.56-.51-1.37-1.69,1.27-1.28,1.47-.41,2.05-1.03.59-1.12.54-.83.68-.41.93-.73,1.06h-1.48l-1.06-1.01-.64-1.12v-1.08l-.89-.98-1.36-1.08h-3.97l-.62.34-.72.49-.92.1-.77.05-.92.15s-1.34.39-1.54.44l-1.03.24-1.62.62Z"/><path class="cls-1" d="m73.74,31.01c.64,1.25,1.78,2.58,2.42,3.83.71,1.39,1.51,3.06,2.72,4.09,3.66,3.12,3.56,3.88,5.45,5.98s3.28,4.36,4.07,7.02"/><path class="cls-1" d="m115.12,52.13c-1.45-.19-3.24-.02-4.69-.21-1.61-.21-3.51-.5-5.08-.12-4.76,1.17-5.37.66-8.25.99s-5.93-.02-8.69-.87"/><polygon class="cls-7" points="89.42 48.76 89.84 48.19 90.53 47.1 91.21 45.74 91.65 44.27 91.65 43.93 91.09 42.97 90.55 42.67 89.51 42.39 88.83 41.88 88.22 41.25 87.83 40.56 87.39 39.78 87.44 39.22 87.87 38.59 89.05 37.77 89.65 38.1 89.93 40.01 91.17 40.71 92.07 42.18 92.76 43.63 92.5 44.8 90.37 48.7 88.55 49.61 89.42 48.76"/><polygon class="cls-7" points="94.33 51.46 95 51.24 96.85 48.8 97.89 48 99.72 47.18 100.44 46.14 100.83 45.77 101.77 45.38 104.94 45.66 105.71 45.45 106.4 45.72 106.28 46.39 105.53 47.22 104.33 47.65 101.14 47.41 99.64 47.87 97.69 48.92 97.09 49.61 96.36 50.44 95.86 51.38 94.33 51.46"/><polygon class="cls-7" points="91.98 52.35 94.04 52.53 95.77 52.53 96.96 52.44 97.99 52.35 99.21 52.26 100.37 52.26 99.55 52.2 98.74 51.98 96.18 51.77 95.86 51.38 94.33 51.46 93.78 51.33 90.75 49.24 90.37 48.7 88.55 49.61 88.57 50.44 88.4 50.81 88.71 51.61 90.08 51.98 91.98 52.35"/><path class="cls-2" d="m91.41,51.11c-.68-.05-1.12-.08-1.63-.12-.04-.39-.08-.75-.13-1.12.08-.03.16-.07.24-.1.45.4.9.8,1.52,1.35Z"/></g></svg>